<svg id="visual" viewBox="0 0 900 600" width="900" height="600" xmlns="http://www.w3.org/2000/svg" xmlns:xlink="http://www.w3.org/1999/xlink" version="1.1"><path d="M0 85L82 109L164 67L245 79L327 115L409 43L491 73L573 127L655 79L736 115L818 73L900 43L900 0L818 0L736 0L655 0L573 0L491 0L409 0L327 0L245 0L164 0L82 0L0 0Z" fill="#00cc8e"></path><path d="M0 199L82 217L164 181L245 127L327 271L409 163L491 235L573 253L655 235L736 193L818 235L900 205L900 41L818 71L736 113L655 77L573 125L491 71L409 41L327 113L245 77L164 65L82 107L0 83Z" fill="#00b98a"></path><path d="M0 367L82 349L164 349L245 307L327 385L409 319L491 451L573 361L655 331L736 325L818 421L900 295L900 203L818 233L736 191L655 233L573 251L491 233L409 161L327 269L245 125L164 179L82 215L0 197Z" fill="#00a784"></path><path d="M0 523L82 517L164 517L245 499L327 565L409 535L491 547L573 541L655 541L736 523L818 535L900 505L900 293L818 419L736 323L655 329L573 359L491 449L409 317L327 383L245 305L164 347L82 347L0 365Z" fill="#00957c"></path><path d="M0 601L82 601L164 601L245 601L327 601L409 601L491 601L573 601L655 601L736 601L818 601L900 601L900 503L818 533L736 521L655 539L573 539L491 545L409 533L327 563L245 497L164 515L82 515L0 521Z" fill="#038373"></path></svg>