<svg id="visual" viewBox="0 0 900 600" width="900" height="600" xmlns="http://www.w3.org/2000/svg" xmlns:xlink="http://www.w3.org/1999/xlink" version="1.1"><path d="M0 121L13.7 126C27.3 131 54.7 141 82 136C109.3 131 136.7 111 163.8 106C191 101 218 111 245.2 115C272.3 119 299.7 117 327 114C354.3 111 381.7 107 409 112C436.3 117 463.7 131 491 123C518.3 115 545.7 85 573 74C600.3 63 627.7 71 654.8 77C682 83 709 87 736.2 97C763.3 107 790.7 123 818 128C845.3 133 872.7 127 886.3 124L900 121L900 0L886.3 0C872.7 0 845.3 0 818 0C790.7 0 763.3 0 736.2 0C709 0 682 0 654.8 0C627.7 0 600.3 0 573 0C545.7 0 518.3 0 491 0C463.7 0 436.3 0 409 0C381.7 0 354.3 0 327 0C299.7 0 272.3 0 245.2 0C218 0 191 0 163.8 0C136.7 0 109.3 0 82 0C54.7 0 27.3 0 13.7 0L0 0Z" fill="#0066ff"></path><path d="M0 253L13.7 258C27.3 263 54.7 273 82 269C109.3 265 136.7 247 163.8 251C191 255 218 281 245.2 305C272.3 329 299.7 351 327 334C354.3 317 381.7 261 409 253C436.3 245 463.7 285 491 301C518.3 317 545.7 309 573 311C600.3 313 627.7 325 654.8 311C682 297 709 257 736.2 240C763.3 223 790.7 229 818 244C845.3 259 872.7 283 886.3 295L900 307L900 119L886.3 122C872.7 125 845.3 131 818 126C790.7 121 763.3 105 736.2 95C709 85 682 81 654.8 75C627.7 69 600.3 61 573 72C545.7 83 518.3 113 491 121C463.7 129 436.3 115 409 110C381.7 105 354.3 109 327 112C299.7 115 272.3 117 245.2 113C218 109 191 99 163.8 104C136.7 109 109.3 129 82 134C54.7 139 27.3 129 13.7 124L0 119Z" fill="#0b53e4"></path><path d="M0 505L13.7 494C27.3 483 54.7 461 82 447C109.3 433 136.7 427 163.8 424C191 421 218 421 245.2 430C272.3 439 299.7 457 327 463C354.3 469 381.7 463 409 452C436.3 441 463.7 425 491 421C518.3 417 545.7 425 573 429C600.3 433 627.7 433 654.8 439C682 445 709 457 736.2 462C763.3 467 790.7 465 818 461C845.3 457 872.7 451 886.3 448L900 445L900 305L886.3 293C872.7 281 845.3 257 818 242C790.7 227 763.3 221 736.2 238C709 255 682 295 654.8 309C627.7 323 600.3 311 573 309C545.7 307 518.3 315 491 299C463.7 283 436.3 243 409 251C381.7 259 354.3 315 327 332C299.7 349 272.3 327 245.2 303C218 279 191 253 163.8 249C136.7 245 109.3 263 82 267C54.7 271 27.3 261 13.7 256L0 251Z" fill="#0c40ca"></path><path d="M0 541L13.7 533C27.3 525 54.7 509 82 502C109.3 495 136.7 497 163.8 500C191 503 218 507 245.2 513C272.3 519 299.7 527 327 528C354.3 529 381.7 523 409 518C436.3 513 463.7 509 491 502C518.3 495 545.7 485 573 479C600.3 473 627.7 471 654.8 480C682 489 709 509 736.2 521C763.3 533 790.7 537 818 532C845.3 527 872.7 513 886.3 506L900 499L900 443L886.3 446C872.7 449 845.3 455 818 459C790.7 463 763.3 465 736.2 460C709 455 682 443 654.8 437C627.7 431 600.3 431 573 427C545.7 423 518.3 415 491 419C463.7 423 436.3 439 409 450C381.7 461 354.3 467 327 461C299.7 455 272.3 437 245.2 428C218 419 191 419 163.8 422C136.7 425 109.3 431 82 445C54.7 459 27.3 481 13.7 492L0 503Z" fill="#082eb1"></path><path d="M0 601L13.7 601C27.3 601 54.7 601 82 601C109.3 601 136.7 601 163.8 601C191 601 218 601 245.2 601C272.3 601 299.7 601 327 601C354.3 601 381.7 601 409 601C436.3 601 463.7 601 491 601C518.3 601 545.7 601 573 601C600.3 601 627.7 601 654.8 601C682 601 709 601 736.2 601C763.3 601 790.7 601 818 601C845.3 601 872.7 601 886.3 601L900 601L900 497L886.3 504C872.7 511 845.3 525 818 530C790.7 535 763.3 531 736.2 519C709 507 682 487 654.8 478C627.7 469 600.3 471 573 477C545.7 483 518.3 493 491 500C463.7 507 436.3 511 409 516C381.7 521 354.3 527 327 526C299.7 525 272.3 517 245.2 511C218 505 191 501 163.8 498C136.7 495 109.3 493 82 500C54.7 507 27.3 523 13.7 531L0 539Z" fill="#001b98"></path></svg>