<svg id="visual" viewBox="0 0 900 600" width="900" height="600" xmlns="http://www.w3.org/2000/svg" xmlns:xlink="http://www.w3.org/1999/xlink" version="1.1"><g stroke-width="1" stroke-linejoin="bevel"><path d="M436 288L530 276L520 211Z" fill="#fdfdfd" stroke="#fdfdfd"></path><path d="M530 276L588 239L520 211Z" fill="#fafafa" stroke="#fafafa"></path><path d="M520 211L385 164L436 288Z" fill="#fafafa" stroke="#fafafa"></path><path d="M571 407L604 320L530 276Z" fill="#f9f9f9" stroke="#f9f9f9"></path><path d="M530 276L604 320L588 239Z" fill="#ffffff" stroke="#ffffff"></path><path d="M588 239L569 118L520 211Z" fill="#fdfdfd" stroke="#fdfdfd"></path><path d="M520 211L473 80L385 164Z" fill="#ffffff" stroke="#ffffff"></path><path d="M662 175L569 118L588 239Z" fill="#fbfbfb" stroke="#fbfbfb"></path><path d="M326 332L365 373L436 288Z" fill="#f9f9f9" stroke="#f9f9f9"></path><path d="M498 432L571 407L530 276Z" fill="#ffffff" stroke="#ffffff"></path><path d="M569 118L473 80L520 211Z" fill="#f8f8f8" stroke="#f8f8f8"></path><path d="M304 194L326 332L436 288Z" fill="#fafafa" stroke="#fafafa"></path><path d="M473 80L396 90L385 164Z" fill="#fdfdfd" stroke="#fdfdfd"></path><path d="M385 164L304 194L436 288Z" fill="#f9f9f9" stroke="#f9f9f9"></path><path d="M498 432L530 276L436 288Z" fill="#fafafa" stroke="#fafafa"></path><path d="M365 373L498 432L436 288Z" fill="#ffffff" stroke="#ffffff"></path><path d="M335 61L304 194L385 164Z" fill="#fcfcfc" stroke="#fcfcfc"></path><path d="M685 368L672 285L604 320Z" fill="#fdfdfd" stroke="#fdfdfd"></path><path d="M604 320L672 285L588 239Z" fill="#fdfdfd" stroke="#fdfdfd"></path><path d="M672 285L662 175L588 239Z" fill="#fafafa" stroke="#fafafa"></path><path d="M182 261L312 361L326 332Z" fill="#f9f9f9" stroke="#f9f9f9"></path><path d="M326 332L312 361L365 373Z" fill="#fafafa" stroke="#fafafa"></path><path d="M365 373L473 511L498 432Z" fill="#fefefe" stroke="#fefefe"></path><path d="M622 463L685 368L571 407Z" fill="#f9f9f9" stroke="#f9f9f9"></path><path d="M571 407L685 368L604 320Z" fill="#f8f8f8" stroke="#f8f8f8"></path><path d="M778 229L709 111L662 175Z" fill="#ffffff" stroke="#ffffff"></path><path d="M396 0L335 61L396 90Z" fill="#fdfdfd" stroke="#fdfdfd"></path><path d="M396 90L335 61L385 164Z" fill="#f9f9f9" stroke="#f9f9f9"></path><path d="M606 0L472 0L473 80Z" fill="#fafafa" stroke="#fafafa"></path><path d="M473 80L396 0L396 90Z" fill="#fcfcfc" stroke="#fcfcfc"></path><path d="M606 0L473 80L569 118Z" fill="#fafafa" stroke="#fafafa"></path><path d="M498 432L622 463L571 407Z" fill="#f9f9f9" stroke="#f9f9f9"></path><path d="M372 528L473 511L365 373Z" fill="#f8f8f8" stroke="#f8f8f8"></path><path d="M498 432L473 511L622 463Z" fill="#f8f8f8" stroke="#f8f8f8"></path><path d="M472 0L396 0L473 80Z" fill="#ffffff" stroke="#ffffff"></path><path d="M778 229L662 175L672 285Z" fill="#f9f9f9" stroke="#f9f9f9"></path><path d="M662 175L709 111L569 118Z" fill="#fdfdfd" stroke="#fdfdfd"></path><path d="M709 111L606 0L569 118Z" fill="#f9f9f9" stroke="#f9f9f9"></path><path d="M396 0L338 0L335 61Z" fill="#fdfdfd" stroke="#fdfdfd"></path><path d="M188 172L182 261L304 194Z" fill="#fafafa" stroke="#fafafa"></path><path d="M304 194L182 261L326 332Z" fill="#fdfdfd" stroke="#fdfdfd"></path><path d="M311 500L372 528L365 373Z" fill="#ffffff" stroke="#ffffff"></path><path d="M188 172L304 194L176 139Z" fill="#f9f9f9" stroke="#f9f9f9"></path><path d="M311 500L365 373L312 361Z" fill="#fbfbfb" stroke="#fbfbfb"></path><path d="M809 270L672 285L685 368Z" fill="#fafafa" stroke="#fafafa"></path><path d="M809 270L778 229L672 285Z" fill="#ffffff" stroke="#ffffff"></path><path d="M225 487L311 500L312 361Z" fill="#fafafa" stroke="#fafafa"></path><path d="M176 139L304 194L335 61Z" fill="#fefefe" stroke="#fefefe"></path><path d="M182 261L190 380L312 361Z" fill="#fcfcfc" stroke="#fcfcfc"></path><path d="M226 0L176 139L335 61Z" fill="#fafafa" stroke="#fafafa"></path><path d="M188 172L127 229L182 261Z" fill="#fdfdfd" stroke="#fdfdfd"></path><path d="M735 494L768 411L685 368Z" fill="#fcfcfc" stroke="#fcfcfc"></path><path d="M768 411L809 270L685 368Z" fill="#fafafa" stroke="#fafafa"></path><path d="M810 81L736 0L709 111Z" fill="#fefefe" stroke="#fefefe"></path><path d="M190 380L225 487L312 361Z" fill="#ffffff" stroke="#ffffff"></path><path d="M337 600L393 600L372 528Z" fill="#fafafa" stroke="#fafafa"></path><path d="M119 124L127 229L188 172Z" fill="#fcfcfc" stroke="#fcfcfc"></path><path d="M182 261L62 303L190 380Z" fill="#fafafa" stroke="#fafafa"></path><path d="M190 380L75 488L225 487Z" fill="#fcfcfc" stroke="#fcfcfc"></path><path d="M622 463L735 494L685 368Z" fill="#fcfcfc" stroke="#fcfcfc"></path><path d="M680 600L735 494L622 463Z" fill="#f9f9f9" stroke="#f9f9f9"></path><path d="M576 600L622 463L473 511Z" fill="#ffffff" stroke="#ffffff"></path><path d="M393 600L473 511L372 528Z" fill="#fbfbfb" stroke="#fbfbfb"></path><path d="M393 600L533 600L473 511Z" fill="#fafafa" stroke="#fafafa"></path><path d="M338 0L226 0L335 61Z" fill="#f9f9f9" stroke="#f9f9f9"></path><path d="M176 139L119 124L188 172Z" fill="#fafafa" stroke="#fafafa"></path><path d="M810 81L709 111L778 229Z" fill="#fefefe" stroke="#fefefe"></path><path d="M709 111L736 0L606 0Z" fill="#fefefe" stroke="#fefefe"></path><path d="M337 600L372 528L311 500Z" fill="#fefefe" stroke="#fefefe"></path><path d="M533 600L576 600L473 511Z" fill="#fefefe" stroke="#fefefe"></path><path d="M900 238L810 81L778 229Z" fill="#fcfcfc" stroke="#fcfcfc"></path><path d="M225 487L337 600L311 500Z" fill="#f9f9f9" stroke="#f9f9f9"></path><path d="M226 0L119 124L176 139Z" fill="#ffffff" stroke="#ffffff"></path><path d="M801 600L787 503L735 494Z" fill="#fafafa" stroke="#fafafa"></path><path d="M735 494L787 503L768 411Z" fill="#fefefe" stroke="#fefefe"></path><path d="M900 273L900 238L809 270Z" fill="#fefefe" stroke="#fefefe"></path><path d="M576 600L680 600L622 463Z" fill="#fbfbfb" stroke="#fbfbfb"></path><path d="M810 81L806 0L736 0Z" fill="#ffffff" stroke="#ffffff"></path><path d="M0 315L62 303L0 179Z" fill="#f9f9f9" stroke="#f9f9f9"></path><path d="M127 229L62 303L182 261Z" fill="#fefefe" stroke="#fefefe"></path><path d="M900 273L809 270L900 364Z" fill="#fbfbfb" stroke="#fbfbfb"></path><path d="M809 270L900 238L778 229Z" fill="#f9f9f9" stroke="#f9f9f9"></path><path d="M810 81L900 0L806 0Z" fill="#f8f8f8" stroke="#f8f8f8"></path><path d="M900 364L809 270L768 411Z" fill="#fafafa" stroke="#fafafa"></path><path d="M62 303L75 411L190 380Z" fill="#fefefe" stroke="#fefefe"></path><path d="M225 487L166 600L337 600Z" fill="#fafafa" stroke="#fafafa"></path><path d="M900 487L900 364L768 411Z" fill="#fefefe" stroke="#fefefe"></path><path d="M900 238L900 91L810 81Z" fill="#f9f9f9" stroke="#f9f9f9"></path><path d="M0 424L75 488L75 411Z" fill="#fcfcfc" stroke="#fcfcfc"></path><path d="M75 411L75 488L190 380Z" fill="#fbfbfb" stroke="#fbfbfb"></path><path d="M75 488L166 600L225 487Z" fill="#fdfdfd" stroke="#fdfdfd"></path><path d="M226 0L77 0L119 124Z" fill="#fafafa" stroke="#fafafa"></path><path d="M0 179L62 303L127 229Z" fill="#f9f9f9" stroke="#f9f9f9"></path><path d="M680 600L801 600L735 494Z" fill="#fdfdfd" stroke="#fdfdfd"></path><path d="M787 503L900 487L768 411Z" fill="#f9f9f9" stroke="#f9f9f9"></path><path d="M801 600L900 487L787 503Z" fill="#fcfcfc" stroke="#fcfcfc"></path><path d="M62 303L0 315L75 411Z" fill="#fafafa" stroke="#fafafa"></path><path d="M0 179L127 229L119 124Z" fill="#fdfdfd" stroke="#fdfdfd"></path><path d="M0 109L0 179L119 124Z" fill="#fcfcfc" stroke="#fcfcfc"></path><path d="M900 91L900 0L810 81Z" fill="#f8f8f8" stroke="#f8f8f8"></path><path d="M77 0L0 109L119 124Z" fill="#f9f9f9" stroke="#f9f9f9"></path><path d="M75 488L122 600L166 600Z" fill="#fcfcfc" stroke="#fcfcfc"></path><path d="M0 520L122 600L75 488Z" fill="#fafafa" stroke="#fafafa"></path><path d="M0 315L0 424L75 411Z" fill="#fafafa" stroke="#fafafa"></path><path d="M77 0L0 0L0 109Z" fill="#fefefe" stroke="#fefefe"></path><path d="M801 600L900 600L900 487Z" fill="#fdfdfd" stroke="#fdfdfd"></path><path d="M0 424L0 520L75 488Z" fill="#ffffff" stroke="#ffffff"></path><path d="M0 520L0 600L122 600Z" fill="#fdfdfd" stroke="#fdfdfd"></path></g></svg>