<svg id="visual" viewBox="0 0 900 600" width="900" height="600" xmlns="http://www.w3.org/2000/svg" xmlns:xlink="http://www.w3.org/1999/xlink" version="1.1"><rect x="0" y="0" width="900" height="600" fill="#001220"></rect><defs><linearGradient id="grad1_0" x1="33.3%" y1="0%" x2="100%" y2="100%"><stop offset="20%" stop-color="#001220" stop-opacity="1"></stop><stop offset="80%" stop-color="#001220" stop-opacity="1"></stop></linearGradient></defs><defs><linearGradient id="grad2_0" x1="0%" y1="0%" x2="66.7%" y2="100%"><stop offset="20%" stop-color="#001220" stop-opacity="1"></stop><stop offset="80%" stop-color="#001220" stop-opacity="1"></stop></linearGradient></defs><g transform="translate(900, 0)"><path d="M0 432.7C-45.6 429.8 -91.1 427 -133.7 411.5C-176.3 396 -215.9 367.9 -240.4 330.9C-264.9 293.9 -274.1 247.9 -292.1 212.2C-310 176.5 -336.5 151.1 -361.4 117.4C-386.3 83.8 -409.5 41.9 -432.7 0L0 0Z" fill="#FBAE3C"></path></g><g transform="translate(0, 600)"><path d="M0 -432.7C32.3 -395.8 64.5 -359 115.3 -354.7C166 -350.5 235.3 -379 254.3 -350C273.3 -321.1 242.1 -234.8 267 -194C291.9 -153.2 372.9 -157.9 409.9 -133.2C446.9 -108.4 439.8 -54.2 432.7 0L0 0Z" fill="#FBAE3C"></path></g></svg>