<svg id="visual" viewBox="0 0 900 600" width="900" height="600" xmlns="http://www.w3.org/2000/svg" xmlns:xlink="http://www.w3.org/1999/xlink" version="1.1"><rect x="0" y="0" width="900" height="600" fill="#001220"></rect><path d="M0 424L21.5 417C43 410 86 396 128.8 391.2C171.7 386.3 214.3 390.7 257.2 386C300 381.3 343 367.7 385.8 368.5C428.7 369.3 471.3 384.7 514.2 400C557 415.3 600 430.7 642.8 424.5C685.7 418.3 728.3 390.7 771.2 379C814 367.3 857 371.7 878.5 373.8L900 376L900 601L878.5 601C857 601 814 601 771.2 601C728.3 601 685.7 601 642.8 601C600 601 557 601 514.2 601C471.3 601 428.7 601 385.8 601C343 601 300 601 257.2 601C214.3 601 171.7 601 128.8 601C86 601 43 601 21.5 601L0 601Z" fill="#fa7268"></path><path d="M0 416L21.5 421.7C43 427.3 86 438.7 128.8 435C171.7 431.3 214.3 412.7 257.2 413.3C300 414 343 434 385.8 446.7C428.7 459.3 471.3 464.7 514.2 461.3C557 458 600 446 642.8 439.5C685.7 433 728.3 432 771.2 434.8C814 437.7 857 444.3 878.5 447.7L900 451L900 601L878.5 601C857 601 814 601 771.2 601C728.3 601 685.7 601 642.8 601C600 601 557 601 514.2 601C471.3 601 428.7 601 385.8 601C343 601 300 601 257.2 601C214.3 601 171.7 601 128.8 601C86 601 43 601 21.5 601L0 601Z" fill="#ef5f67"></path><path d="M0 456L21.5 462.3C43 468.7 86 481.3 128.8 487.8C171.7 494.3 214.3 494.7 257.2 496.7C300 498.7 343 502.3 385.8 498.7C428.7 495 471.3 484 514.2 484.3C557 484.7 600 496.3 642.8 490.5C685.7 484.7 728.3 461.3 771.2 452.2C814 443 857 448 878.5 450.5L900 453L900 601L878.5 601C857 601 814 601 771.2 601C728.3 601 685.7 601 642.8 601C600 601 557 601 514.2 601C471.3 601 428.7 601 385.8 601C343 601 300 601 257.2 601C214.3 601 171.7 601 128.8 601C86 601 43 601 21.5 601L0 601Z" fill="#e34c67"></path><path d="M0 519L21.5 515C43 511 86 503 128.8 504.2C171.7 505.3 214.3 515.7 257.2 521.3C300 527 343 528 385.8 530.8C428.7 533.7 471.3 538.3 514.2 530.8C557 523.3 600 503.7 642.8 503.2C685.7 502.7 728.3 521.3 771.2 524C814 526.7 857 513.3 878.5 506.7L900 500L900 601L878.5 601C857 601 814 601 771.2 601C728.3 601 685.7 601 642.8 601C600 601 557 601 514.2 601C471.3 601 428.7 601 385.8 601C343 601 300 601 257.2 601C214.3 601 171.7 601 128.8 601C86 601 43 601 21.5 601L0 601Z" fill="#d53867"></path><path d="M0 546L21.5 543C43 540 86 534 128.8 530.7C171.7 527.3 214.3 526.7 257.2 530C300 533.3 343 540.7 385.8 546.5C428.7 552.3 471.3 556.7 514.2 555.2C557 553.7 600 546.3 642.8 544.2C685.7 542 728.3 545 771.2 549.5C814 554 857 560 878.5 563L900 566L900 601L878.5 601C857 601 814 601 771.2 601C728.3 601 685.7 601 642.8 601C600 601 557 601 514.2 601C471.3 601 428.7 601 385.8 601C343 601 300 601 257.2 601C214.3 601 171.7 601 128.8 601C86 601 43 601 21.5 601L0 601Z" fill="#c62368"></path></svg>