<svg id="visual" viewBox="0 0 900 600" width="900" height="600" xmlns="http://www.w3.org/2000/svg" xmlns:xlink="http://www.w3.org/1999/xlink" version="1.1"><g stroke-width="1" stroke-linejoin="bevel"><path d="M472 275.1L516 336.9L523 287.1Z" fill="#a4c2d2" stroke="#a4c2d2"></path><path d="M472 275.1L477 370.9L516 336.9Z" fill="#a7c2d0" stroke="#a7c2d0"></path><path d="M523 287.1L527 181.4L472 275.1Z" fill="#a1c3d4" stroke="#a1c3d4"></path><path d="M477 370.9L571 414.6L516 336.9Z" fill="#b5bec4" stroke="#b5bec4"></path><path d="M516 336.9L623 368.9L523 287.1Z" fill="#b8bec1" stroke="#b8bec1"></path><path d="M523 287.1L606 201.4L527 181.4Z" fill="#a4c2d2" stroke="#a4c2d2"></path><path d="M338 440.6L472 441.6L477 370.9Z" fill="#a1c3d4" stroke="#a1c3d4"></path><path d="M477 370.9L472 441.6L571 414.6Z" fill="#a7c2d0" stroke="#a7c2d0"></path><path d="M571 414.6L623 368.9L516 336.9Z" fill="#9dc4d6" stroke="#9dc4d6"></path><path d="M334 249.1L341 348.9L472 275.1Z" fill="#b8bec1" stroke="#b8bec1"></path><path d="M472 275.1L341 348.9L477 370.9Z" fill="#aac1cd" stroke="#aac1cd"></path><path d="M645 251.1L606 201.4L523 287.1Z" fill="#adc0cb" stroke="#adc0cb"></path><path d="M508 101.7L448 153.4L527 181.4Z" fill="#b8bec1" stroke="#b8bec1"></path><path d="M527 181.4L448 153.4L472 275.1Z" fill="#b5bec4" stroke="#b5bec4"></path><path d="M623 368.9L645 251.1L523 287.1Z" fill="#adc0cb" stroke="#adc0cb"></path><path d="M448 153.4L334 249.1L472 275.1Z" fill="#b5bec4" stroke="#b5bec4"></path><path d="M366 486.3L470 483.3L472 441.6Z" fill="#b8bec1" stroke="#b8bec1"></path><path d="M472 441.6L470 483.3L571 414.6Z" fill="#b8bec1" stroke="#b8bec1"></path><path d="M540 544.3L626 451.6L571 414.6Z" fill="#a7c2d0" stroke="#a7c2d0"></path><path d="M571 414.6L626 451.6L623 368.9Z" fill="#a4c2d2" stroke="#a4c2d2"></path><path d="M623 368.9L737 334.9L645 251.1Z" fill="#b3bfc6" stroke="#b3bfc6"></path><path d="M253 427.6L338 440.6L341 348.9Z" fill="#b3bfc6" stroke="#b3bfc6"></path><path d="M341 348.9L338 440.6L477 370.9Z" fill="#a7c2d0" stroke="#a7c2d0"></path><path d="M448 153.4L374 138.4L334 249.1Z" fill="#b5bec4" stroke="#b5bec4"></path><path d="M597 72.7L508 101.7L527 181.4Z" fill="#b0bfc9" stroke="#b0bfc9"></path><path d="M448 153.4L439 105.7L374 138.4Z" fill="#a4c2d2" stroke="#a4c2d2"></path><path d="M508 101.7L439 105.7L448 153.4Z" fill="#a4c2d2" stroke="#a4c2d2"></path><path d="M338 440.6L366 486.3L472 441.6Z" fill="#babdbf" stroke="#babdbf"></path><path d="M540 544.3L648 484.3L626 451.6Z" fill="#b5bec4" stroke="#b5bec4"></path><path d="M626 451.6L696 426.6L623 368.9Z" fill="#9dc4d6" stroke="#9dc4d6"></path><path d="M540 544.3L571 414.6L470 483.3Z" fill="#a1c3d4" stroke="#a1c3d4"></path><path d="M648 484.3L696 426.6L626 451.6Z" fill="#b0bfc9" stroke="#b0bfc9"></path><path d="M751 256.1L704 200.4L645 251.1Z" fill="#adc0cb" stroke="#adc0cb"></path><path d="M645 251.1L704 200.4L606 201.4Z" fill="#b5bec4" stroke="#b5bec4"></path><path d="M606 201.4L597 72.7L527 181.4Z" fill="#b5bec4" stroke="#b5bec4"></path><path d="M470 600L540 544.3L470 483.3Z" fill="#b8bec1" stroke="#b8bec1"></path><path d="M248 255.1L251 350.9L334 249.1Z" fill="#b0bfc9" stroke="#b0bfc9"></path><path d="M334 249.1L251 350.9L341 348.9Z" fill="#b8bec1" stroke="#b8bec1"></path><path d="M338 440.6L283 495.3L366 486.3Z" fill="#b0bfc9" stroke="#b0bfc9"></path><path d="M696 426.6L737 334.9L623 368.9Z" fill="#b8bec1" stroke="#b8bec1"></path><path d="M252 201.4L248 255.1L334 249.1Z" fill="#a4c2d2" stroke="#a4c2d2"></path><path d="M718 89.7L597 72.7L606 201.4Z" fill="#9dc4d6" stroke="#9dc4d6"></path><path d="M508 101.7L480 0L439 105.7Z" fill="#aac1cd" stroke="#aac1cd"></path><path d="M439 105.7L340 97.7L374 138.4Z" fill="#a7c2d0" stroke="#a7c2d0"></path><path d="M374 138.4L252 201.4L334 249.1Z" fill="#a4c2d2" stroke="#a4c2d2"></path><path d="M326 0L340 97.7L439 105.7Z" fill="#aac1cd" stroke="#aac1cd"></path><path d="M340 97.7L252 201.4L374 138.4Z" fill="#b5bec4" stroke="#b5bec4"></path><path d="M737 334.9L751 256.1L645 251.1Z" fill="#9dc4d6" stroke="#9dc4d6"></path><path d="M704 200.4L718 89.7L606 201.4Z" fill="#b0bfc9" stroke="#b0bfc9"></path><path d="M197 428.6L253 427.6L251 350.9Z" fill="#adc0cb" stroke="#adc0cb"></path><path d="M251 350.9L253 427.6L341 348.9Z" fill="#aac1cd" stroke="#aac1cd"></path><path d="M253 427.6L283 495.3L338 440.6Z" fill="#b5bec4" stroke="#b5bec4"></path><path d="M366 486.3L470 600L470 483.3Z" fill="#b8bec1" stroke="#b8bec1"></path><path d="M340 600L470 600L366 486.3Z" fill="#adc0cb" stroke="#adc0cb"></path><path d="M540 544.3L609 600L648 484.3Z" fill="#9dc4d6" stroke="#9dc4d6"></path><path d="M470 600L570 600L540 544.3Z" fill="#a4c2d2" stroke="#a4c2d2"></path><path d="M648 484.3L733 505.3L696 426.6Z" fill="#adc0cb" stroke="#adc0cb"></path><path d="M556 0L480 0L508 101.7Z" fill="#aac1cd" stroke="#aac1cd"></path><path d="M833 286.1L781 192.4L751 256.1Z" fill="#b0bfc9" stroke="#b0bfc9"></path><path d="M751 256.1L781 192.4L704 200.4Z" fill="#adc0cb" stroke="#adc0cb"></path><path d="M609 600L733 505.3L648 484.3Z" fill="#9dc4d6" stroke="#9dc4d6"></path><path d="M832 404.6L831 366.9L737 334.9Z" fill="#b0bfc9" stroke="#b0bfc9"></path><path d="M737 334.9L833 286.1L751 256.1Z" fill="#aac1cd" stroke="#aac1cd"></path><path d="M326 0L295 64.7L340 97.7Z" fill="#b3bfc6" stroke="#b3bfc6"></path><path d="M340 97.7L295 64.7L252 201.4Z" fill="#b3bfc6" stroke="#b3bfc6"></path><path d="M597 72.7L556 0L508 101.7Z" fill="#a1c3d4" stroke="#a1c3d4"></path><path d="M651 0L556 0L597 72.7Z" fill="#b8bec1" stroke="#b8bec1"></path><path d="M781 192.4L718 89.7L704 200.4Z" fill="#babdbf" stroke="#babdbf"></path><path d="M570 600L609 600L540 544.3Z" fill="#babdbf" stroke="#babdbf"></path><path d="M158 368.9L197 428.6L251 350.9Z" fill="#babdbf" stroke="#babdbf"></path><path d="M253 427.6L197 428.6L283 495.3Z" fill="#b5bec4" stroke="#b5bec4"></path><path d="M158 368.9L251 350.9L154 251.1Z" fill="#a4c2d2" stroke="#a4c2d2"></path><path d="M295 64.7L207 150.4L252 201.4Z" fill="#b8bec1" stroke="#b8bec1"></path><path d="M252 201.4L154 251.1L248 255.1Z" fill="#adc0cb" stroke="#adc0cb"></path><path d="M261 600L340 600L283 495.3Z" fill="#b5bec4" stroke="#b5bec4"></path><path d="M283 495.3L340 600L366 486.3Z" fill="#aac1cd" stroke="#aac1cd"></path><path d="M154 251.1L251 350.9L248 255.1Z" fill="#9dc4d6" stroke="#9dc4d6"></path><path d="M207 150.4L154 251.1L252 201.4Z" fill="#b0bfc9" stroke="#b0bfc9"></path><path d="M831 366.9L833 286.1L737 334.9Z" fill="#b3bfc6" stroke="#b3bfc6"></path><path d="M832 404.6L737 334.9L696 426.6Z" fill="#b3bfc6" stroke="#b3bfc6"></path><path d="M718 89.7L651 0L597 72.7Z" fill="#aac1cd" stroke="#aac1cd"></path><path d="M480 0L326 0L439 105.7Z" fill="#babdbf" stroke="#babdbf"></path><path d="M295 64.7L147 66.7L207 150.4Z" fill="#a7c2d0" stroke="#a7c2d0"></path><path d="M733 505.3L793 487.3L696 426.6Z" fill="#a1c3d4" stroke="#a1c3d4"></path><path d="M784 600L793 487.3L733 505.3Z" fill="#a4c2d2" stroke="#a4c2d2"></path><path d="M793 487.3L832 404.6L696 426.6Z" fill="#b0bfc9" stroke="#b0bfc9"></path><path d="M900 344.9L900 287.1L833 286.1Z" fill="#a1c3d4" stroke="#a1c3d4"></path><path d="M153 499.3L261 600L283 495.3Z" fill="#b5bec4" stroke="#b5bec4"></path><path d="M153 499.3L283 495.3L197 428.6Z" fill="#a7c2d0" stroke="#a7c2d0"></path><path d="M839 0L700 0L718 89.7Z" fill="#b5bec4" stroke="#b5bec4"></path><path d="M718 89.7L700 0L651 0Z" fill="#a1c3d4" stroke="#a1c3d4"></path><path d="M819 94.7L718 89.7L781 192.4Z" fill="#a1c3d4" stroke="#a1c3d4"></path><path d="M326 0L275 0L295 64.7Z" fill="#a7c2d0" stroke="#a7c2d0"></path><path d="M207 150.4L117 172.4L154 251.1Z" fill="#b5bec4" stroke="#b5bec4"></path><path d="M100 398.6L197 428.6L158 368.9Z" fill="#aac1cd" stroke="#aac1cd"></path><path d="M100 398.6L153 499.3L197 428.6Z" fill="#a4c2d2" stroke="#a4c2d2"></path><path d="M609 600L749 600L733 505.3Z" fill="#b3bfc6" stroke="#b3bfc6"></path><path d="M900 344.9L831 366.9L832 404.6Z" fill="#9dc4d6" stroke="#9dc4d6"></path><path d="M900 165.4L819 94.7L781 192.4Z" fill="#aac1cd" stroke="#aac1cd"></path><path d="M147 66.7L117 172.4L207 150.4Z" fill="#adc0cb" stroke="#adc0cb"></path><path d="M154 251.1L78 327.9L158 368.9Z" fill="#a7c2d0" stroke="#a7c2d0"></path><path d="M117 172.4L97 242.1L154 251.1Z" fill="#a7c2d0" stroke="#a7c2d0"></path><path d="M78 327.9L100 398.6L158 368.9Z" fill="#b3bfc6" stroke="#b3bfc6"></path><path d="M900 344.9L833 286.1L831 366.9Z" fill="#a7c2d0" stroke="#a7c2d0"></path><path d="M833 286.1L900 165.4L781 192.4Z" fill="#a4c2d2" stroke="#a4c2d2"></path><path d="M900 344.9L832 404.6L900 458.6Z" fill="#babdbf" stroke="#babdbf"></path><path d="M900 458.6L832 404.6L793 487.3Z" fill="#aac1cd" stroke="#aac1cd"></path><path d="M749 600L784 600L733 505.3Z" fill="#a4c2d2" stroke="#a4c2d2"></path><path d="M97 242.1L78 327.9L154 251.1Z" fill="#a7c2d0" stroke="#a7c2d0"></path><path d="M170 0L147 66.7L295 64.7Z" fill="#aac1cd" stroke="#aac1cd"></path><path d="M0 250.1L78 327.9L97 242.1Z" fill="#a1c3d4" stroke="#a1c3d4"></path><path d="M900 287.1L900 165.4L833 286.1Z" fill="#9dc4d6" stroke="#9dc4d6"></path><path d="M900 485.3L900 458.6L793 487.3Z" fill="#a4c2d2" stroke="#a4c2d2"></path><path d="M153 499.3L156 600L261 600Z" fill="#b8bec1" stroke="#b8bec1"></path><path d="M99 529.3L156 600L153 499.3Z" fill="#b8bec1" stroke="#b8bec1"></path><path d="M99 529.3L153 499.3L100 398.6Z" fill="#b5bec4" stroke="#b5bec4"></path><path d="M275 0L170 0L295 64.7Z" fill="#b0bfc9" stroke="#b0bfc9"></path><path d="M900 600L900 485.3L793 487.3Z" fill="#b5bec4" stroke="#b5bec4"></path><path d="M147 66.7L111 72.7L117 172.4Z" fill="#a7c2d0" stroke="#a7c2d0"></path><path d="M0 250.1L0 342.9L78 327.9Z" fill="#b0bfc9" stroke="#b0bfc9"></path><path d="M111 0L111 72.7L147 66.7Z" fill="#a4c2d2" stroke="#a4c2d2"></path><path d="M0 402.6L99 529.3L100 398.6Z" fill="#9dc4d6" stroke="#9dc4d6"></path><path d="M819 94.7L839 0L718 89.7Z" fill="#babdbf" stroke="#babdbf"></path><path d="M900 82.7L839 0L819 94.7Z" fill="#a7c2d0" stroke="#a7c2d0"></path><path d="M900 165.4L900 82.7L819 94.7Z" fill="#a1c3d4" stroke="#a1c3d4"></path><path d="M99 529.3L110 600L156 600Z" fill="#a7c2d0" stroke="#a7c2d0"></path><path d="M170 0L111 0L147 66.7Z" fill="#a4c2d2" stroke="#a4c2d2"></path><path d="M0 250.1L97 242.1L0 139.4Z" fill="#b0bfc9" stroke="#b0bfc9"></path><path d="M78 327.9L0 402.6L100 398.6Z" fill="#b8bec1" stroke="#b8bec1"></path><path d="M99 529.3L0 600L110 600Z" fill="#b8bec1" stroke="#b8bec1"></path><path d="M97 242.1L117 172.4L0 139.4Z" fill="#b5bec4" stroke="#b5bec4"></path><path d="M0 139.4L117 172.4L111 72.7Z" fill="#a7c2d0" stroke="#a7c2d0"></path><path d="M0 342.9L0 402.6L78 327.9Z" fill="#b5bec4" stroke="#b5bec4"></path><path d="M784 600L900 600L793 487.3Z" fill="#babdbf" stroke="#babdbf"></path><path d="M900 82.7L900 0L839 0Z" fill="#a4c2d2" stroke="#a4c2d2"></path><path d="M0 110.7L0 139.4L111 72.7Z" fill="#b3bfc6" stroke="#b3bfc6"></path><path d="M0 0L0 110.7L111 72.7Z" fill="#adc0cb" stroke="#adc0cb"></path><path d="M0 402.6L0 526.3L99 529.3Z" fill="#a1c3d4" stroke="#a1c3d4"></path><path d="M0 526.3L0 600L99 529.3Z" fill="#a7c2d0" stroke="#a7c2d0"></path><path d="M111 0L0 0L111 72.7Z" fill="#b5bec4" stroke="#b5bec4"></path></g></svg>