<svg id="visual" viewBox="0 0 900 600" width="900" height="600" xmlns="http://www.w3.org/2000/svg" xmlns:xlink="http://www.w3.org/1999/xlink" version="1.1"><g stroke-width="1" stroke-linejoin="bevel"><path d="M436.4 334.3L520.8 364.3L489.6 299.3Z" fill="#ededed" stroke="#ededed"></path><path d="M520.8 364.3L491.6 297.7L489.6 299.3Z" fill="#eaeaea" stroke="#eaeaea"></path><path d="M419.4 243.7L368.2 335.3L436.4 334.3Z" fill="#ededed" stroke="#ededed"></path><path d="M436.4 334.3L450.6 406L520.8 364.3Z" fill="#efefef" stroke="#efefef"></path><path d="M436.4 334.3L420.4 415L450.6 406Z" fill="#f2f2f2" stroke="#f2f2f2"></path><path d="M419.4 243.7L436.4 334.3L489.6 299.3Z" fill="#fcfcfc" stroke="#fcfcfc"></path><path d="M436.4 334.3L368.2 335.3L420.4 415Z" fill="#f7f7f7" stroke="#f7f7f7"></path><path d="M501.6 473.7L578.8 401L520.8 364.3Z" fill="#ffffff" stroke="#ffffff"></path><path d="M520.8 364.3L571.8 273.7L491.6 297.7Z" fill="#f5f5f5" stroke="#f5f5f5"></path><path d="M501.6 473.7L520.8 364.3L450.6 406Z" fill="#e8e8e8" stroke="#e8e8e8"></path><path d="M595.1 311.3L571.8 273.7L520.8 364.3Z" fill="#f7f7f7" stroke="#f7f7f7"></path><path d="M448.6 224L489.6 299.3L491.6 297.7Z" fill="#e5e5e5" stroke="#e5e5e5"></path><path d="M448.6 224L419.4 243.7L489.6 299.3Z" fill="#e5e5e5" stroke="#e5e5e5"></path><path d="M578.8 401L595.1 311.3L520.8 364.3Z" fill="#ededed" stroke="#ededed"></path><path d="M368.2 335.3L398.4 434.7L420.4 415Z" fill="#fcfcfc" stroke="#fcfcfc"></path><path d="M443.4 503.3L501.6 473.7L450.6 406Z" fill="#ededed" stroke="#ededed"></path><path d="M571.8 273.7L448.6 224L491.6 297.7Z" fill="#f7f7f7" stroke="#f7f7f7"></path><path d="M443.4 503.3L450.6 406L420.4 415Z" fill="#fcfcfc" stroke="#fcfcfc"></path><path d="M398.4 434.7L443.4 503.3L420.4 415Z" fill="#f2f2f2" stroke="#f2f2f2"></path><path d="M323.2 410L360.2 455.7L398.4 434.7Z" fill="#e8e8e8" stroke="#e8e8e8"></path><path d="M398.4 434.7L360.2 455.7L443.4 503.3Z" fill="#f5f5f5" stroke="#f5f5f5"></path><path d="M350.2 220L353.2 234.7L419.4 243.7Z" fill="#fafafa" stroke="#fafafa"></path><path d="M419.4 243.7L353.2 234.7L368.2 335.3Z" fill="#fafafa" stroke="#fafafa"></path><path d="M368.2 335.3L323.2 410L398.4 434.7Z" fill="#eaeaea" stroke="#eaeaea"></path><path d="M301.9 293.3L323.2 410L368.2 335.3Z" fill="#eaeaea" stroke="#eaeaea"></path><path d="M510.6 524.3L536.8 506.3L501.6 473.7Z" fill="#f2f2f2" stroke="#f2f2f2"></path><path d="M501.6 473.7L571.8 504.7L578.8 401Z" fill="#e5e5e5" stroke="#e5e5e5"></path><path d="M571.8 504.7L635.1 424L578.8 401Z" fill="#eaeaea" stroke="#eaeaea"></path><path d="M578.8 401L656.3 323.3L595.1 311.3Z" fill="#fafafa" stroke="#fafafa"></path><path d="M635.1 424L656.3 323.3L578.8 401Z" fill="#f7f7f7" stroke="#f7f7f7"></path><path d="M595.1 311.3L617.1 226.7L571.8 273.7Z" fill="#f7f7f7" stroke="#f7f7f7"></path><path d="M481.6 161.3L417.4 177L448.6 224Z" fill="#e8e8e8" stroke="#e8e8e8"></path><path d="M448.6 224L417.4 177L419.4 243.7Z" fill="#eaeaea" stroke="#eaeaea"></path><path d="M481.6 161.3L448.6 224L555.8 161Z" fill="#e5e5e5" stroke="#e5e5e5"></path><path d="M656.3 323.3L617.1 226.7L595.1 311.3Z" fill="#f5f5f5" stroke="#f5f5f5"></path><path d="M417.4 177L350.2 220L419.4 243.7Z" fill="#e5e5e5" stroke="#e5e5e5"></path><path d="M353.2 234.7L301.9 293.3L368.2 335.3Z" fill="#efefef" stroke="#efefef"></path><path d="M555.8 161L448.6 224L571.8 273.7Z" fill="#e5e5e5" stroke="#e5e5e5"></path><path d="M443.4 503.3L510.6 524.3L501.6 473.7Z" fill="#e8e8e8" stroke="#e8e8e8"></path><path d="M536.8 506.3L571.8 504.7L501.6 473.7Z" fill="#efefef" stroke="#efefef"></path><path d="M562.8 600L571.8 504.7L536.8 506.3Z" fill="#f7f7f7" stroke="#f7f7f7"></path><path d="M350.2 220L301.9 293.3L353.2 234.7Z" fill="#e8e8e8" stroke="#e8e8e8"></path><path d="M571.8 504.7L647.1 445.7L635.1 424Z" fill="#f7f7f7" stroke="#f7f7f7"></path><path d="M635.1 424L729.3 384L656.3 323.3Z" fill="#e8e8e8" stroke="#e8e8e8"></path><path d="M590.1 178L555.8 161L571.8 273.7Z" fill="#f2f2f2" stroke="#f2f2f2"></path><path d="M617.1 226.7L590.1 178L571.8 273.7Z" fill="#ededed" stroke="#ededed"></path><path d="M599.1 118.3L551.8 132.3L555.8 161Z" fill="#e8e8e8" stroke="#e8e8e8"></path><path d="M555.8 161L551.8 132.3L481.6 161.3Z" fill="#fafafa" stroke="#fafafa"></path><path d="M454.6 63.7L376.4 97.3L417.4 177Z" fill="#ffffff" stroke="#ffffff"></path><path d="M729.5 345.3L687.3 257.7L656.3 323.3Z" fill="#eaeaea" stroke="#eaeaea"></path><path d="M656.3 323.3L687.3 257.7L617.1 226.7Z" fill="#e5e5e5" stroke="#e5e5e5"></path><path d="M664.3 121.3L599.1 118.3L590.1 178Z" fill="#f2f2f2" stroke="#f2f2f2"></path><path d="M590.1 178L599.1 118.3L555.8 161Z" fill="#fafafa" stroke="#fafafa"></path><path d="M323.2 410L286.9 461.7L360.2 455.7Z" fill="#f2f2f2" stroke="#f2f2f2"></path><path d="M360.2 455.7L322.2 538.3L443.4 503.3Z" fill="#f7f7f7" stroke="#f7f7f7"></path><path d="M443.4 503.3L486.6 600L510.6 524.3Z" fill="#f5f5f5" stroke="#f5f5f5"></path><path d="M244.7 451.7L286.9 461.7L323.2 410Z" fill="#f5f5f5" stroke="#f5f5f5"></path><path d="M712.3 541.3L697.3 435.7L647.1 445.7Z" fill="#ffffff" stroke="#ffffff"></path><path d="M647.1 445.7L697.3 435.7L635.1 424Z" fill="#e8e8e8" stroke="#e8e8e8"></path><path d="M234.7 337.3L240.9 378L301.9 293.3Z" fill="#f2f2f2" stroke="#f2f2f2"></path><path d="M301.9 293.3L240.9 378L323.2 410Z" fill="#f7f7f7" stroke="#f7f7f7"></path><path d="M242.9 270.7L234.7 337.3L301.9 293.3Z" fill="#ffffff" stroke="#ffffff"></path><path d="M350.2 220L242.9 270.7L301.9 293.3Z" fill="#ffffff" stroke="#ffffff"></path><path d="M279.9 173L242.9 270.7L350.2 220Z" fill="#ffffff" stroke="#ffffff"></path><path d="M729.3 384L729.5 345.3L656.3 323.3Z" fill="#e5e5e5" stroke="#e5e5e5"></path><path d="M311.9 557.3L322.2 538.3L286.9 461.7Z" fill="#fafafa" stroke="#fafafa"></path><path d="M286.9 461.7L322.2 538.3L360.2 455.7Z" fill="#f5f5f5" stroke="#f5f5f5"></path><path d="M697.3 435.7L729.3 384L635.1 424Z" fill="#e8e8e8" stroke="#e8e8e8"></path><path d="M690.3 171L590.1 178L617.1 226.7Z" fill="#ffffff" stroke="#ffffff"></path><path d="M404.4 600L486.6 600L443.4 503.3Z" fill="#e5e5e5" stroke="#e5e5e5"></path><path d="M562.8 600L631.1 556.3L571.8 504.7Z" fill="#eaeaea" stroke="#eaeaea"></path><path d="M571.8 504.7L631.1 556.3L647.1 445.7Z" fill="#ededed" stroke="#ededed"></path><path d="M175.5 447.7L244.7 451.7L240.9 378Z" fill="#f2f2f2" stroke="#f2f2f2"></path><path d="M240.9 378L244.7 451.7L323.2 410Z" fill="#ffffff" stroke="#ffffff"></path><path d="M562.8 600L536.8 506.3L510.6 524.3Z" fill="#fcfcfc" stroke="#fcfcfc"></path><path d="M810.8 355.3L769.5 360L837.8 471.7Z" fill="#e8e8e8" stroke="#e8e8e8"></path><path d="M234.7 337.3L219.7 365L240.9 378Z" fill="#ffffff" stroke="#ffffff"></path><path d="M135.5 367L219.7 365L234.7 337.3Z" fill="#ffffff" stroke="#ffffff"></path><path d="M599.1 118.3L579.8 100.7L551.8 132.3Z" fill="#f2f2f2" stroke="#f2f2f2"></path><path d="M454.6 63.7L417.4 177L481.6 161.3Z" fill="#e8e8e8" stroke="#e8e8e8"></path><path d="M376.4 97.3L350.2 220L417.4 177Z" fill="#fafafa" stroke="#fafafa"></path><path d="M316.2 101.3L279.9 173L350.2 220Z" fill="#f7f7f7" stroke="#f7f7f7"></path><path d="M322.2 538.3L404.4 600L443.4 503.3Z" fill="#f7f7f7" stroke="#f7f7f7"></path><path d="M454.6 63.7L481.6 161.3L551.8 132.3Z" fill="#fafafa" stroke="#fafafa"></path><path d="M486.6 600L562.8 600L510.6 524.3Z" fill="#f5f5f5" stroke="#f5f5f5"></path><path d="M687.3 257.7L690.3 171L617.1 226.7Z" fill="#fcfcfc" stroke="#fcfcfc"></path><path d="M599.1 118.3L599.1 94.7L579.8 100.7Z" fill="#f7f7f7" stroke="#f7f7f7"></path><path d="M739.5 166L690.3 171L687.3 257.7Z" fill="#f7f7f7" stroke="#f7f7f7"></path><path d="M201.7 561.3L311.9 557.3L286.9 461.7Z" fill="#f2f2f2" stroke="#f2f2f2"></path><path d="M322.2 538.3L320.2 600L404.4 600Z" fill="#f5f5f5" stroke="#f5f5f5"></path><path d="M664.3 121.3L599.1 94.7L599.1 118.3Z" fill="#e5e5e5" stroke="#e5e5e5"></path><path d="M579.8 100.7L454.6 63.7L551.8 132.3Z" fill="#f7f7f7" stroke="#f7f7f7"></path><path d="M453.4 0L454.6 63.7L518.6 0Z" fill="#e5e5e5" stroke="#e5e5e5"></path><path d="M690.3 171L664.3 121.3L590.1 178Z" fill="#ffffff" stroke="#ffffff"></path><path d="M562.8 600L614.1 600L631.1 556.3Z" fill="#fafafa" stroke="#fafafa"></path><path d="M769.5 360L729.3 384L837.8 471.7Z" fill="#eaeaea" stroke="#eaeaea"></path><path d="M729.3 384L769.5 360L729.5 345.3Z" fill="#efefef" stroke="#efefef"></path><path d="M729.5 345.3L794.5 299.7L687.3 257.7Z" fill="#e5e5e5" stroke="#e5e5e5"></path><path d="M712.3 541.3L647.1 445.7L631.1 556.3Z" fill="#fcfcfc" stroke="#fcfcfc"></path><path d="M376.4 97.3L316.2 101.3L350.2 220Z" fill="#fafafa" stroke="#fafafa"></path><path d="M313.2 76.7L316.2 101.3L376.4 97.3Z" fill="#ffffff" stroke="#ffffff"></path><path d="M181.7 122.3L218.7 209L279.9 173Z" fill="#e5e5e5" stroke="#e5e5e5"></path><path d="M279.9 173L218.7 209L242.9 270.7Z" fill="#fcfcfc" stroke="#fcfcfc"></path><path d="M242.9 270.7L201.7 244.7L234.7 337.3Z" fill="#f7f7f7" stroke="#f7f7f7"></path><path d="M218.7 209L201.7 244.7L242.9 270.7Z" fill="#e5e5e5" stroke="#e5e5e5"></path><path d="M275.9 600L320.2 600L311.9 557.3Z" fill="#e5e5e5" stroke="#e5e5e5"></path><path d="M311.9 557.3L320.2 600L322.2 538.3Z" fill="#ffffff" stroke="#ffffff"></path><path d="M453.4 0L408.4 49.7L454.6 63.7Z" fill="#fcfcfc" stroke="#fcfcfc"></path><path d="M454.6 63.7L408.4 49.7L376.4 97.3Z" fill="#eaeaea" stroke="#eaeaea"></path><path d="M668.3 600L712.3 541.3L631.1 556.3Z" fill="#ededed" stroke="#ededed"></path><path d="M316.2 101.3L295.9 93.3L279.9 173Z" fill="#fcfcfc" stroke="#fcfcfc"></path><path d="M313.2 76.7L295.9 93.3L316.2 101.3Z" fill="#f7f7f7" stroke="#f7f7f7"></path><path d="M794.5 299.7L739.5 166L687.3 257.7Z" fill="#e8e8e8" stroke="#e8e8e8"></path><path d="M690.3 171L739.5 166L664.3 121.3Z" fill="#fcfcfc" stroke="#fcfcfc"></path><path d="M345.2 0L313.2 76.7L376.4 97.3Z" fill="#eaeaea" stroke="#eaeaea"></path><path d="M810.8 355.3L794.5 299.7L769.5 360Z" fill="#ededed" stroke="#ededed"></path><path d="M769.5 360L794.5 299.7L729.5 345.3Z" fill="#f2f2f2" stroke="#f2f2f2"></path><path d="M614.1 600L668.3 600L631.1 556.3Z" fill="#fafafa" stroke="#fafafa"></path><path d="M219.7 365L175.5 447.7L240.9 378Z" fill="#eaeaea" stroke="#eaeaea"></path><path d="M201.7 561.3L275.9 600L311.9 557.3Z" fill="#eaeaea" stroke="#eaeaea"></path><path d="M135.5 367L175.5 447.7L219.7 365Z" fill="#eaeaea" stroke="#eaeaea"></path><path d="M201.7 561.3L286.9 461.7L244.7 451.7Z" fill="#f2f2f2" stroke="#f2f2f2"></path><path d="M769.5 505.7L729.3 384L697.3 435.7Z" fill="#fafafa" stroke="#fafafa"></path><path d="M742.5 556.3L769.5 505.7L712.3 541.3Z" fill="#e8e8e8" stroke="#e8e8e8"></path><path d="M712.3 541.3L769.5 505.7L697.3 435.7Z" fill="#fafafa" stroke="#fafafa"></path><path d="M741.5 600L742.5 556.3L712.3 541.3Z" fill="#f7f7f7" stroke="#f7f7f7"></path><path d="M518.6 0L454.6 63.7L579.8 100.7Z" fill="#fafafa" stroke="#fafafa"></path><path d="M408.4 49.7L345.2 0L376.4 97.3Z" fill="#f2f2f2" stroke="#f2f2f2"></path><path d="M518.6 0L579.8 100.7L541.8 0Z" fill="#fcfcfc" stroke="#fcfcfc"></path><path d="M541.8 0L599.1 94.7L617.1 0Z" fill="#fafafa" stroke="#fafafa"></path><path d="M541.8 0L579.8 100.7L599.1 94.7Z" fill="#eaeaea" stroke="#eaeaea"></path><path d="M107.2 298.7L135.5 367L234.7 337.3Z" fill="#eaeaea" stroke="#eaeaea"></path><path d="M107.2 298.7L234.7 337.3L201.7 244.7Z" fill="#eaeaea" stroke="#eaeaea"></path><path d="M715.3 73.7L599.1 94.7L664.3 121.3Z" fill="#fcfcfc" stroke="#fcfcfc"></path><path d="M150.5 141.3L147.5 237.7L218.7 209Z" fill="#e5e5e5" stroke="#e5e5e5"></path><path d="M218.7 209L147.5 237.7L201.7 244.7Z" fill="#e8e8e8" stroke="#e8e8e8"></path><path d="M837.8 471.7L831.8 361L810.8 355.3Z" fill="#ffffff" stroke="#ffffff"></path><path d="M810.8 355.3L831.8 361L794.5 299.7Z" fill="#f7f7f7" stroke="#f7f7f7"></path><path d="M852.8 216L770.5 109.3L739.5 166Z" fill="#f2f2f2" stroke="#f2f2f2"></path><path d="M175.5 447.7L201.7 561.3L244.7 451.7Z" fill="#ffffff" stroke="#ffffff"></path><path d="M142.5 501.3L201.7 561.3L175.5 447.7Z" fill="#e8e8e8" stroke="#e8e8e8"></path><path d="M770.5 109.3L715.3 73.7L739.5 166Z" fill="#e5e5e5" stroke="#e5e5e5"></path><path d="M739.5 166L715.3 73.7L664.3 121.3Z" fill="#fcfcfc" stroke="#fcfcfc"></path><path d="M823.8 600L854.8 532.3L769.5 505.7Z" fill="#ededed" stroke="#ededed"></path><path d="M769.5 505.7L837.8 471.7L729.3 384Z" fill="#e8e8e8" stroke="#e8e8e8"></path><path d="M668.3 600L741.5 600L712.3 541.3Z" fill="#e8e8e8" stroke="#e8e8e8"></path><path d="M107.2 298.7L111.5 349.3L135.5 367Z" fill="#f5f5f5" stroke="#f5f5f5"></path><path d="M97.2 465.7L142.5 501.3L175.5 447.7Z" fill="#fafafa" stroke="#fafafa"></path><path d="M453.4 0L345.2 0L408.4 49.7Z" fill="#eaeaea" stroke="#eaeaea"></path><path d="M313.2 76.7L254.9 29.7L295.9 93.3Z" fill="#fafafa" stroke="#fafafa"></path><path d="M295.9 93.3L181.7 122.3L279.9 173Z" fill="#f2f2f2" stroke="#f2f2f2"></path><path d="M715.3 73.7L617.1 0L599.1 94.7Z" fill="#f7f7f7" stroke="#f7f7f7"></path><path d="M234.7 41.7L181.7 122.3L295.9 93.3Z" fill="#eaeaea" stroke="#eaeaea"></path><path d="M147.5 237.7L107.2 298.7L201.7 244.7Z" fill="#ededed" stroke="#ededed"></path><path d="M852.8 216L739.5 166L794.5 299.7Z" fill="#ededed" stroke="#ededed"></path><path d="M715.3 73.7L728.3 0L617.1 0Z" fill="#f7f7f7" stroke="#f7f7f7"></path><path d="M97.2 465.7L175.5 447.7L135.5 367Z" fill="#f2f2f2" stroke="#f2f2f2"></path><path d="M49.2 165L107.2 298.7L147.5 237.7Z" fill="#fafafa" stroke="#fafafa"></path><path d="M854.8 532.3L837.8 471.7L769.5 505.7Z" fill="#f5f5f5" stroke="#f5f5f5"></path><path d="M276.9 0L254.9 29.7L313.2 76.7Z" fill="#f7f7f7" stroke="#f7f7f7"></path><path d="M110.5 61.7L150.5 141.3L181.7 122.3Z" fill="#f5f5f5" stroke="#f5f5f5"></path><path d="M181.7 122.3L150.5 141.3L218.7 209Z" fill="#f2f2f2" stroke="#f2f2f2"></path><path d="M900 321.3L794.5 299.7L831.8 361Z" fill="#fcfcfc" stroke="#fcfcfc"></path><path d="M900 321.3L857.8 247.7L794.5 299.7Z" fill="#e8e8e8" stroke="#e8e8e8"></path><path d="M168.5 600L187.7 600L201.7 561.3Z" fill="#f2f2f2" stroke="#f2f2f2"></path><path d="M201.7 561.3L187.7 600L275.9 600Z" fill="#fcfcfc" stroke="#fcfcfc"></path><path d="M254.9 29.7L234.7 41.7L295.9 93.3Z" fill="#fcfcfc" stroke="#fcfcfc"></path><path d="M857.8 247.7L852.8 216L794.5 299.7Z" fill="#f7f7f7" stroke="#f7f7f7"></path><path d="M728.3 0L743.5 50.7L773.5 0Z" fill="#f5f5f5" stroke="#f5f5f5"></path><path d="M770.5 109.3L743.5 50.7L715.3 73.7Z" fill="#e5e5e5" stroke="#e5e5e5"></path><path d="M345.2 0L276.9 0L313.2 76.7Z" fill="#f5f5f5" stroke="#f5f5f5"></path><path d="M254.9 29.7L186.7 0L234.7 41.7Z" fill="#e5e5e5" stroke="#e5e5e5"></path><path d="M73.2 371.3L97.2 465.7L135.5 367Z" fill="#eaeaea" stroke="#eaeaea"></path><path d="M142.5 501.3L168.5 600L201.7 561.3Z" fill="#e8e8e8" stroke="#e8e8e8"></path><path d="M73.2 371.3L135.5 367L111.5 349.3Z" fill="#f5f5f5" stroke="#f5f5f5"></path><path d="M108.2 600L168.5 600L142.5 501.3Z" fill="#e5e5e5" stroke="#e5e5e5"></path><path d="M107.2 298.7L73.2 371.3L111.5 349.3Z" fill="#f5f5f5" stroke="#f5f5f5"></path><path d="M0 310.3L73.2 371.3L107.2 298.7Z" fill="#eaeaea" stroke="#eaeaea"></path><path d="M110.5 61.7L109.5 161L150.5 141.3Z" fill="#efefef" stroke="#efefef"></path><path d="M150.5 141.3L109.5 161L147.5 237.7Z" fill="#f5f5f5" stroke="#f5f5f5"></path><path d="M186.7 0L181.7 122.3L234.7 41.7Z" fill="#e5e5e5" stroke="#e5e5e5"></path><path d="M823.8 600L769.5 505.7L742.5 556.3Z" fill="#fafafa" stroke="#fafafa"></path><path d="M900 381L900 321.3L831.8 361Z" fill="#ededed" stroke="#ededed"></path><path d="M857.8 247.7L900 229.7L852.8 216Z" fill="#eaeaea" stroke="#eaeaea"></path><path d="M900 381L831.8 361L837.8 471.7Z" fill="#fcfcfc" stroke="#fcfcfc"></path><path d="M900 470.7L900 381L837.8 471.7Z" fill="#efefef" stroke="#efefef"></path><path d="M837.8 96.3L743.5 50.7L770.5 109.3Z" fill="#fafafa" stroke="#fafafa"></path><path d="M743.5 50.7L728.3 0L715.3 73.7Z" fill="#e5e5e5" stroke="#e5e5e5"></path><path d="M741.5 600L823.8 600L742.5 556.3Z" fill="#eaeaea" stroke="#eaeaea"></path><path d="M852.8 216L837.8 96.3L770.5 109.3Z" fill="#e8e8e8" stroke="#e8e8e8"></path><path d="M863.8 88.7L837.8 96.3L900 104.3Z" fill="#fafafa" stroke="#fafafa"></path><path d="M900 321.3L900 229.7L857.8 247.7Z" fill="#fafafa" stroke="#fafafa"></path><path d="M854.8 532.3L900 470.7L837.8 471.7Z" fill="#f5f5f5" stroke="#f5f5f5"></path><path d="M900 535.3L900 470.7L854.8 532.3Z" fill="#efefef" stroke="#efefef"></path><path d="M900 229.7L900 213L852.8 216Z" fill="#ededed" stroke="#ededed"></path><path d="M0 495.7L74.2 524.3L97.2 465.7Z" fill="#e5e5e5" stroke="#e5e5e5"></path><path d="M97.2 465.7L74.2 524.3L142.5 501.3Z" fill="#f5f5f5" stroke="#f5f5f5"></path><path d="M0 381L36.2 420L73.2 371.3Z" fill="#eaeaea" stroke="#eaeaea"></path><path d="M73.2 371.3L36.2 420L97.2 465.7Z" fill="#ffffff" stroke="#ffffff"></path><path d="M837.8 96.3L773.5 0L743.5 50.7Z" fill="#efefef" stroke="#efefef"></path><path d="M74.2 524.3L108.2 600L142.5 501.3Z" fill="#ffffff" stroke="#ffffff"></path><path d="M276.9 0L186.7 0L254.9 29.7Z" fill="#fafafa" stroke="#fafafa"></path><path d="M900 104.3L837.8 96.3L852.8 216Z" fill="#fcfcfc" stroke="#fcfcfc"></path><path d="M837.8 96.3L844.8 0L773.5 0Z" fill="#eaeaea" stroke="#eaeaea"></path><path d="M900 600L900 535.3L854.8 532.3Z" fill="#fcfcfc" stroke="#fcfcfc"></path><path d="M186.7 0L110.5 61.7L181.7 122.3Z" fill="#efefef" stroke="#efefef"></path><path d="M109.5 161L49.2 165L147.5 237.7Z" fill="#f5f5f5" stroke="#f5f5f5"></path><path d="M36.2 126.3L49.2 165L109.5 161Z" fill="#efefef" stroke="#efefef"></path><path d="M186.7 0L151.5 0L110.5 61.7Z" fill="#fcfcfc" stroke="#fcfcfc"></path><path d="M0 264.7L0 310.3L107.2 298.7Z" fill="#e5e5e5" stroke="#e5e5e5"></path><path d="M36.2 420L0 495.7L97.2 465.7Z" fill="#eaeaea" stroke="#eaeaea"></path><path d="M74.2 524.3L0 600L108.2 600Z" fill="#e5e5e5" stroke="#e5e5e5"></path><path d="M0 310.3L0 381L73.2 371.3Z" fill="#ffffff" stroke="#ffffff"></path><path d="M900 213L900 104.3L852.8 216Z" fill="#e5e5e5" stroke="#e5e5e5"></path><path d="M863.8 88.7L844.8 0L837.8 96.3Z" fill="#e8e8e8" stroke="#e8e8e8"></path><path d="M49.2 165L0 264.7L107.2 298.7Z" fill="#ededed" stroke="#ededed"></path><path d="M823.8 600L900 600L854.8 532.3Z" fill="#f2f2f2" stroke="#f2f2f2"></path><path d="M110.5 61.7L36.2 126.3L109.5 161Z" fill="#f2f2f2" stroke="#f2f2f2"></path><path d="M49.2 165L0 204L0 264.7Z" fill="#fcfcfc" stroke="#fcfcfc"></path><path d="M83.2 30.7L36.2 126.3L110.5 61.7Z" fill="#ededed" stroke="#ededed"></path><path d="M0 167.3L0 204L49.2 165Z" fill="#eaeaea" stroke="#eaeaea"></path><path d="M900 67.7L844.8 0L863.8 88.7Z" fill="#ffffff" stroke="#ffffff"></path><path d="M900 104.3L900 67.7L863.8 88.7Z" fill="#f2f2f2" stroke="#f2f2f2"></path><path d="M0 381L0 495.7L36.2 420Z" fill="#e5e5e5" stroke="#e5e5e5"></path><path d="M106.2 0L83.2 30.7L110.5 61.7Z" fill="#e5e5e5" stroke="#e5e5e5"></path><path d="M151.5 0L106.2 0L110.5 61.7Z" fill="#fafafa" stroke="#fafafa"></path><path d="M0 43.7L0 167.3L36.2 126.3Z" fill="#fafafa" stroke="#fafafa"></path><path d="M36.2 126.3L0 167.3L49.2 165Z" fill="#efefef" stroke="#efefef"></path><path d="M0 495.7L0 543.3L74.2 524.3Z" fill="#f5f5f5" stroke="#f5f5f5"></path><path d="M900 67.7L900 0L844.8 0Z" fill="#ffffff" stroke="#ffffff"></path><path d="M0 543.3L0 600L74.2 524.3Z" fill="#ededed" stroke="#ededed"></path><path d="M0 0L0 43.7L83.2 30.7Z" fill="#efefef" stroke="#efefef"></path><path d="M83.2 30.7L0 43.7L36.2 126.3Z" fill="#efefef" stroke="#efefef"></path><path d="M106.2 0L0 0L83.2 30.7Z" fill="#f7f7f7" stroke="#f7f7f7"></path></g></svg>