<svg id="visual" viewBox="0 0 900 600" width="900" height="600" xmlns="http://www.w3.org/2000/svg" xmlns:xlink="http://www.w3.org/1999/xlink" version="1.1"><rect x="0" y="0" width="900" height="600" fill="#ffffff"></rect><defs><linearGradient id="grad1_0" x1="33.3%" y1="100%" x2="100%" y2="0%"><stop offset="20%" stop-color="#a57de1" stop-opacity="1"></stop><stop offset="80%" stop-color="#a57de1" stop-opacity="1"></stop></linearGradient></defs><defs><linearGradient id="grad1_1" x1="33.3%" y1="100%" x2="100%" y2="0%"><stop offset="20%" stop-color="#a57de1" stop-opacity="1"></stop><stop offset="80%" stop-color="#b38fe6" stop-opacity="1"></stop></linearGradient></defs><defs><linearGradient id="grad1_2" x1="33.3%" y1="100%" x2="100%" y2="0%"><stop offset="20%" stop-color="#c0a1ea" stop-opacity="1"></stop><stop offset="80%" stop-color="#b38fe6" stop-opacity="1"></stop></linearGradient></defs><defs><linearGradient id="grad1_3" x1="33.3%" y1="100%" x2="100%" y2="0%"><stop offset="20%" stop-color="#c0a1ea" stop-opacity="1"></stop><stop offset="80%" stop-color="#cdb4ef" stop-opacity="1"></stop></linearGradient></defs><defs><linearGradient id="grad1_4" x1="33.3%" y1="100%" x2="100%" y2="0%"><stop offset="20%" stop-color="#dac6f3" stop-opacity="1"></stop><stop offset="80%" stop-color="#cdb4ef" stop-opacity="1"></stop></linearGradient></defs><defs><linearGradient id="grad1_5" x1="33.3%" y1="100%" x2="100%" y2="0%"><stop offset="20%" stop-color="#dac6f3" stop-opacity="1"></stop><stop offset="80%" stop-color="#e7d9f7" stop-opacity="1"></stop></linearGradient></defs><defs><linearGradient id="grad1_6" x1="33.3%" y1="100%" x2="100%" y2="0%"><stop offset="20%" stop-color="#f3ecfb" stop-opacity="1"></stop><stop offset="80%" stop-color="#e7d9f7" stop-opacity="1"></stop></linearGradient></defs><defs><linearGradient id="grad1_7" x1="33.3%" y1="100%" x2="100%" y2="0%"><stop offset="20%" stop-color="#f3ecfb" stop-opacity="1"></stop><stop offset="80%" stop-color="#ffffff" stop-opacity="1"></stop></linearGradient></defs><defs><linearGradient id="grad2_0" x1="0%" y1="100%" x2="66.7%" y2="0%"><stop offset="20%" stop-color="#a57de1" stop-opacity="1"></stop><stop offset="80%" stop-color="#a57de1" stop-opacity="1"></stop></linearGradient></defs><defs><linearGradient id="grad2_1" x1="0%" y1="100%" x2="66.7%" y2="0%"><stop offset="20%" stop-color="#b38fe6" stop-opacity="1"></stop><stop offset="80%" stop-color="#a57de1" stop-opacity="1"></stop></linearGradient></defs><defs><linearGradient id="grad2_2" x1="0%" y1="100%" x2="66.7%" y2="0%"><stop offset="20%" stop-color="#b38fe6" stop-opacity="1"></stop><stop offset="80%" stop-color="#c0a1ea" stop-opacity="1"></stop></linearGradient></defs><defs><linearGradient id="grad2_3" x1="0%" y1="100%" x2="66.7%" y2="0%"><stop offset="20%" stop-color="#cdb4ef" stop-opacity="1"></stop><stop offset="80%" stop-color="#c0a1ea" stop-opacity="1"></stop></linearGradient></defs><defs><linearGradient id="grad2_4" x1="0%" y1="100%" x2="66.7%" y2="0%"><stop offset="20%" stop-color="#cdb4ef" stop-opacity="1"></stop><stop offset="80%" stop-color="#dac6f3" stop-opacity="1"></stop></linearGradient></defs><defs><linearGradient id="grad2_5" x1="0%" y1="100%" x2="66.7%" y2="0%"><stop offset="20%" stop-color="#e7d9f7" stop-opacity="1"></stop><stop offset="80%" stop-color="#dac6f3" stop-opacity="1"></stop></linearGradient></defs><defs><linearGradient id="grad2_6" x1="0%" y1="100%" x2="66.7%" y2="0%"><stop offset="20%" stop-color="#e7d9f7" stop-opacity="1"></stop><stop offset="80%" stop-color="#f3ecfb" stop-opacity="1"></stop></linearGradient></defs><defs><linearGradient id="grad2_7" x1="0%" y1="100%" x2="66.7%" y2="0%"><stop offset="20%" stop-color="#ffffff" stop-opacity="1"></stop><stop offset="80%" stop-color="#f3ecfb" stop-opacity="1"></stop></linearGradient></defs><g transform="translate(900, 600)"><path d="M-432.7 0C-428.6 -88.2 -424.5 -176.3 -374.7 -216.3C-324.9 -256.4 -229.6 -248.2 -159.5 -276.3C-89.4 -304.3 -44.7 -368.5 0 -432.7L0 0Z" fill="#f9f5fd"></path><path d="M-378.6 0C-375 -77.1 -371.4 -154.3 -327.9 -189.3C-284.3 -224.3 -200.9 -217.2 -139.6 -241.7C-78.3 -266.3 -39.1 -322.4 0 -378.6L0 0Z" fill="#ede2f9"></path><path d="M-324.5 0C-321.4 -66.1 -318.3 -132.2 -281 -162.2C-243.7 -192.3 -172.2 -186.2 -119.6 -207.2C-67.1 -228.2 -33.5 -276.4 0 -324.5L0 0Z" fill="#e1d0f5"></path><path d="M-270.4 0C-267.8 -55.1 -265.3 -110.2 -234.2 -135.2C-203.1 -160.2 -143.5 -155.1 -99.7 -172.7C-55.9 -190.2 -28 -230.3 0 -270.4L0 0Z" fill="#d4bdf1"></path><path d="M-216.3 0C-214.3 -44.1 -212.2 -88.2 -187.3 -108.2C-162.5 -128.2 -114.8 -124.1 -79.8 -138.1C-44.7 -152.1 -22.4 -184.2 0 -216.3L0 0Z" fill="#c7aaec"></path><path d="M-162.2 0C-160.7 -33.1 -159.2 -66.1 -140.5 -81.1C-121.9 -96.1 -86.1 -93.1 -59.8 -103.6C-33.5 -114.1 -16.8 -138.2 0 -162.2L0 0Z" fill="#ba98e8"></path><path d="M-108.2 0C-107.1 -22 -106.1 -44.1 -93.7 -54.1C-81.2 -64.1 -57.4 -62.1 -39.9 -69.1C-22.4 -76.1 -11.2 -92.1 0 -108.2L0 0Z" fill="#ac86e3"></path><path d="M-54.1 0C-53.6 -11 -53.1 -22 -46.8 -27C-40.6 -32 -28.7 -31 -19.9 -34.5C-11.2 -38 -5.6 -46.1 0 -54.1L0 0Z" fill="#a57de1"></path></g><g transform="translate(0, 0)"><path d="M432.7 0C365.2 42.9 297.8 85.7 270.2 156C242.6 226.3 254.7 324 216.3 374.7C177.9 425.4 89 429 0 432.7L0 0Z" fill="#f9f5fd"></path><path d="M378.6 0C319.6 37.5 260.6 75 236.4 136.5C212.3 198 222.9 283.5 189.3 327.9C155.7 372.2 77.8 375.4 0 378.6L0 0Z" fill="#ede2f9"></path><path d="M324.5 0C273.9 32.1 223.4 64.3 202.6 117C181.9 169.7 191.1 243 162.2 281C133.4 319 66.7 321.8 0 324.5L0 0Z" fill="#e1d0f5"></path><path d="M270.4 0C228.3 26.8 186.1 53.6 168.9 97.5C151.6 141.4 159.2 202.5 135.2 234.2C111.2 265.9 55.6 268.1 0 270.4L0 0Z" fill="#d4bdf1"></path><path d="M216.3 0C182.6 21.4 148.9 42.9 135.1 78C121.3 113.1 127.4 162 108.2 187.3C89 212.7 44.5 214.5 0 216.3L0 0Z" fill="#c7aaec"></path><path d="M162.2 0C137 16.1 111.7 32.1 101.3 58.5C91 84.9 95.5 121.5 81.1 140.5C66.7 159.5 33.4 160.9 0 162.2L0 0Z" fill="#ba98e8"></path><path d="M108.2 0C91.3 10.7 74.5 21.4 67.5 39C60.6 56.6 63.7 81 54.1 93.7C44.5 106.3 22.2 107.3 0 108.2L0 0Z" fill="#ac86e3"></path><path d="M54.1 0C45.7 5.4 37.2 10.7 33.8 19.5C30.3 28.3 31.8 40.5 27 46.8C22.2 53.2 11.1 53.6 0 54.1L0 0Z" fill="#a57de1"></path></g></svg>