<svg id="visual" viewBox="0 0 900 600" width="900" height="600" xmlns="http://www.w3.org/2000/svg" xmlns:xlink="http://www.w3.org/1999/xlink" version="1.1"><rect x="0" y="0" width="900" height="600" fill="#001220"></rect><path d="M0 397L21.5 398.5C43 400 86 403 128.8 396.3C171.7 389.7 214.3 373.3 257.2 378.2C300 383 343 409 385.8 407.7C428.7 406.3 471.3 377.7 514.2 378.5C557 379.3 600 409.7 642.8 420C685.7 430.3 728.3 420.7 771.2 412.5C814 404.3 857 397.7 878.5 394.3L900 391L900 601L878.5 601C857 601 814 601 771.2 601C728.3 601 685.7 601 642.8 601C600 601 557 601 514.2 601C471.3 601 428.7 601 385.8 601C343 601 300 601 257.2 601C214.3 601 171.7 601 128.8 601C86 601 43 601 21.5 601L0 601Z" fill="#fa7268"></path><path d="M0 435L21.5 432.2C43 429.3 86 423.7 128.8 425.3C171.7 427 214.3 436 257.2 432C300 428 343 411 385.8 403.3C428.7 395.7 471.3 397.3 514.2 399.8C557 402.3 600 405.7 642.8 413.2C685.7 420.7 728.3 432.3 771.2 436.7C814 441 857 438 878.5 436.5L900 435L900 601L878.5 601C857 601 814 601 771.2 601C728.3 601 685.7 601 642.8 601C600 601 557 601 514.2 601C471.3 601 428.7 601 385.8 601C343 601 300 601 257.2 601C214.3 601 171.7 601 128.8 601C86 601 43 601 21.5 601L0 601Z" fill="#ef5f67"></path><path d="M0 474L21.5 478.5C43 483 86 492 128.8 488.2C171.7 484.3 214.3 467.7 257.2 463.2C300 458.7 343 466.3 385.8 468.2C428.7 470 471.3 466 514.2 471.5C557 477 600 492 642.8 490.2C685.7 488.3 728.3 469.7 771.2 468C814 466.3 857 481.7 878.5 489.3L900 497L900 601L878.5 601C857 601 814 601 771.2 601C728.3 601 685.7 601 642.8 601C600 601 557 601 514.2 601C471.3 601 428.7 601 385.8 601C343 601 300 601 257.2 601C214.3 601 171.7 601 128.8 601C86 601 43 601 21.5 601L0 601Z" fill="#e34c67"></path><path d="M0 491L21.5 498.8C43 506.7 86 522.3 128.8 525C171.7 527.7 214.3 517.3 257.2 515.5C300 513.7 343 520.3 385.8 523.7C428.7 527 471.3 527 514.2 525.8C557 524.7 600 522.3 642.8 515.5C685.7 508.7 728.3 497.3 771.2 498.3C814 499.3 857 512.7 878.5 519.3L900 526L900 601L878.5 601C857 601 814 601 771.2 601C728.3 601 685.7 601 642.8 601C600 601 557 601 514.2 601C471.3 601 428.7 601 385.8 601C343 601 300 601 257.2 601C214.3 601 171.7 601 128.8 601C86 601 43 601 21.5 601L0 601Z" fill="#d53867"></path><path d="M0 563L21.5 558.5C43 554 86 545 128.8 543.3C171.7 541.7 214.3 547.3 257.2 547.2C300 547 343 541 385.8 541.7C428.7 542.3 471.3 549.7 514.2 553.3C557 557 600 557 642.8 558C685.7 559 728.3 561 771.2 561C814 561 857 559 878.5 558L900 557L900 601L878.5 601C857 601 814 601 771.2 601C728.3 601 685.7 601 642.8 601C600 601 557 601 514.2 601C471.3 601 428.7 601 385.8 601C343 601 300 601 257.2 601C214.3 601 171.7 601 128.8 601C86 601 43 601 21.5 601L0 601Z" fill="#c62368"></path></svg>