<svg id="visual" viewBox="0 0 900 600" width="900" height="600" xmlns="http://www.w3.org/2000/svg" xmlns:xlink="http://www.w3.org/1999/xlink" version="1.1"><g stroke-width="1" stroke-linejoin="bevel"><path d="M466 324L455 359L530 391Z" fill="#ffffff" stroke="#ffffff"></path><path d="M530 391L543 286L466 324Z" fill="#fcfcfc" stroke="#fcfcfc"></path><path d="M530 391L611 399L543 286Z" fill="#fefefe" stroke="#fefefe"></path><path d="M612 191L548 240L543 286Z" fill="#f9f9f9" stroke="#f9f9f9"></path><path d="M543 286L548 240L466 324Z" fill="#fefefe" stroke="#fefefe"></path><path d="M548 240L377 280L466 324Z" fill="#f9f9f9" stroke="#f9f9f9"></path><path d="M466 324L377 280L455 359Z" fill="#f3f3f3" stroke="#f3f3f3"></path><path d="M332 424L468 518L455 359Z" fill="#f2f2f2" stroke="#f2f2f2"></path><path d="M455 359L468 518L530 391Z" fill="#f7f7f7" stroke="#f7f7f7"></path><path d="M530 391L640 545L611 399Z" fill="#f3f3f3" stroke="#f3f3f3"></path><path d="M377 280L332 424L455 359Z" fill="#ffffff" stroke="#ffffff"></path><path d="M413 144L325 282L377 280Z" fill="#f9f9f9" stroke="#f9f9f9"></path><path d="M377 280L325 282L332 424Z" fill="#f2f2f2" stroke="#f2f2f2"></path><path d="M740 252L612 191L543 286Z" fill="#ffffff" stroke="#ffffff"></path><path d="M548 240L413 144L377 280Z" fill="#f3f3f3" stroke="#f3f3f3"></path><path d="M332 424L378 523L468 518Z" fill="#f7f7f7" stroke="#f7f7f7"></path><path d="M640 545L663 509L611 399Z" fill="#fbfbfb" stroke="#fbfbfb"></path><path d="M611 399L740 252L543 286Z" fill="#fbfbfb" stroke="#fbfbfb"></path><path d="M640 545L530 391L468 518Z" fill="#f3f3f3" stroke="#f3f3f3"></path><path d="M514 74L413 144L548 240Z" fill="#f3f3f3" stroke="#f3f3f3"></path><path d="M601 600L640 545L468 518Z" fill="#ffffff" stroke="#ffffff"></path><path d="M663 509L739 351L611 399Z" fill="#fefefe" stroke="#fefefe"></path><path d="M432 600L470 600L468 518Z" fill="#fcfcfc" stroke="#fcfcfc"></path><path d="M378 523L432 600L468 518Z" fill="#f9f9f9" stroke="#f9f9f9"></path><path d="M739 351L740 252L611 399Z" fill="#fbfbfb" stroke="#fbfbfb"></path><path d="M470 600L601 600L468 518Z" fill="#fbfbfb" stroke="#fbfbfb"></path><path d="M165 450L293 526L332 424Z" fill="#ffffff" stroke="#ffffff"></path><path d="M332 424L293 526L378 523Z" fill="#f4f4f4" stroke="#f4f4f4"></path><path d="M378 523L300 600L432 600Z" fill="#ffffff" stroke="#ffffff"></path><path d="M711 146L601 100L612 191Z" fill="#fefefe" stroke="#fefefe"></path><path d="M612 191L514 74L548 240Z" fill="#f7f7f7" stroke="#f7f7f7"></path><path d="M601 100L514 74L612 191Z" fill="#ffffff" stroke="#ffffff"></path><path d="M740 252L711 146L612 191Z" fill="#fcfcfc" stroke="#fcfcfc"></path><path d="M740 252L719 150L711 146Z" fill="#fbfbfb" stroke="#fbfbfb"></path><path d="M514 74L404 65L413 144Z" fill="#f4f4f4" stroke="#f4f4f4"></path><path d="M413 144L243 168L325 282Z" fill="#f9f9f9" stroke="#f9f9f9"></path><path d="M293 526L300 600L378 523Z" fill="#fefefe" stroke="#fefefe"></path><path d="M291 97L243 168L413 144Z" fill="#f6f6f6" stroke="#f6f6f6"></path><path d="M325 282L165 450L332 424Z" fill="#fcfcfc" stroke="#fcfcfc"></path><path d="M293 526L194 600L300 600Z" fill="#fcfcfc" stroke="#fcfcfc"></path><path d="M243 168L207 232L325 282Z" fill="#f2f2f2" stroke="#f2f2f2"></path><path d="M640 545L709 600L663 509Z" fill="#f4f4f4" stroke="#f4f4f4"></path><path d="M839 500L839 352L739 351Z" fill="#f8f8f8" stroke="#f8f8f8"></path><path d="M601 600L709 600L640 545Z" fill="#f2f2f2" stroke="#f2f2f2"></path><path d="M813 267L807 251L740 252Z" fill="#f6f6f6" stroke="#f6f6f6"></path><path d="M740 252L807 251L719 150Z" fill="#f6f6f6" stroke="#f6f6f6"></path><path d="M813 267L740 252L739 351Z" fill="#f8f8f8" stroke="#f8f8f8"></path><path d="M839 352L813 267L739 351Z" fill="#fbfbfb" stroke="#fbfbfb"></path><path d="M404 65L291 97L413 144Z" fill="#f2f2f2" stroke="#f2f2f2"></path><path d="M839 500L739 351L663 509Z" fill="#ffffff" stroke="#ffffff"></path><path d="M179 253L207 232L95 195Z" fill="#fcfcfc" stroke="#fcfcfc"></path><path d="M146 261L179 253L95 195Z" fill="#f2f2f2" stroke="#f2f2f2"></path><path d="M207 232L179 253L325 282Z" fill="#f7f7f7" stroke="#f7f7f7"></path><path d="M179 253L165 450L325 282Z" fill="#f7f7f7" stroke="#f7f7f7"></path><path d="M622 0L484 0L514 74Z" fill="#fbfbfb" stroke="#fbfbfb"></path><path d="M514 74L484 0L404 65Z" fill="#f6f6f6" stroke="#f6f6f6"></path><path d="M404 65L269 0L291 97Z" fill="#f4f4f4" stroke="#f4f4f4"></path><path d="M622 0L514 74L601 100Z" fill="#f6f6f6" stroke="#f6f6f6"></path><path d="M622 0L601 100L661 0Z" fill="#f8f8f8" stroke="#f8f8f8"></path><path d="M165 450L170 508L293 526Z" fill="#fcfcfc" stroke="#fcfcfc"></path><path d="M95 195L207 232L243 168Z" fill="#f9f9f9" stroke="#f9f9f9"></path><path d="M179 253L146 261L165 450Z" fill="#fefefe" stroke="#fefefe"></path><path d="M165 450L143 526L170 508Z" fill="#f3f3f3" stroke="#f3f3f3"></path><path d="M484 0L404 0L404 65Z" fill="#fefefe" stroke="#fefefe"></path><path d="M709 600L839 500L663 509Z" fill="#f4f4f4" stroke="#f4f4f4"></path><path d="M661 0L601 100L711 146Z" fill="#f8f8f8" stroke="#f8f8f8"></path><path d="M661 0L711 146L770 0Z" fill="#fcfcfc" stroke="#fcfcfc"></path><path d="M823 98L711 146L719 150Z" fill="#f7f7f7" stroke="#f7f7f7"></path><path d="M269 0L252 56L291 97Z" fill="#f4f4f4" stroke="#f4f4f4"></path><path d="M291 97L252 56L243 168Z" fill="#f8f8f8" stroke="#f8f8f8"></path><path d="M170 508L194 600L293 526Z" fill="#f9f9f9" stroke="#f9f9f9"></path><path d="M47 378L143 526L165 450Z" fill="#f3f3f3" stroke="#f3f3f3"></path><path d="M170 508L143 526L194 600Z" fill="#f9f9f9" stroke="#f9f9f9"></path><path d="M900 386L900 332L839 352Z" fill="#ffffff" stroke="#ffffff"></path><path d="M839 352L900 332L813 267Z" fill="#f2f2f2" stroke="#f2f2f2"></path><path d="M813 267L900 143L807 251Z" fill="#f7f7f7" stroke="#f7f7f7"></path><path d="M807 251L823 98L719 150Z" fill="#f9f9f9" stroke="#f9f9f9"></path><path d="M839 500L900 386L839 352Z" fill="#f2f2f2" stroke="#f2f2f2"></path><path d="M900 143L823 98L807 251Z" fill="#f9f9f9" stroke="#f9f9f9"></path><path d="M900 600L900 476L839 500Z" fill="#ffffff" stroke="#ffffff"></path><path d="M839 500L900 476L900 386Z" fill="#f9f9f9" stroke="#f9f9f9"></path><path d="M709 600L844 600L839 500Z" fill="#f8f8f8" stroke="#f8f8f8"></path><path d="M404 0L269 0L404 65Z" fill="#f2f2f2" stroke="#f2f2f2"></path><path d="M148 79L95 195L243 168Z" fill="#f9f9f9" stroke="#f9f9f9"></path><path d="M148 79L243 168L252 56Z" fill="#f4f4f4" stroke="#f4f4f4"></path><path d="M146 261L47 378L165 450Z" fill="#fcfcfc" stroke="#fcfcfc"></path><path d="M823 98L770 0L711 146Z" fill="#fefefe" stroke="#fefefe"></path><path d="M269 0L229 0L252 56Z" fill="#ffffff" stroke="#ffffff"></path><path d="M229 0L148 79L252 56Z" fill="#ffffff" stroke="#ffffff"></path><path d="M900 332L900 143L813 267Z" fill="#f7f7f7" stroke="#f7f7f7"></path><path d="M823 98L900 0L770 0Z" fill="#f7f7f7" stroke="#f7f7f7"></path><path d="M0 314L47 378L146 261Z" fill="#fefefe" stroke="#fefefe"></path><path d="M900 143L900 114L823 98Z" fill="#f9f9f9" stroke="#f9f9f9"></path><path d="M844 600L900 600L839 500Z" fill="#fcfcfc" stroke="#fcfcfc"></path><path d="M0 537L70 600L143 526Z" fill="#fefefe" stroke="#fefefe"></path><path d="M143 526L70 600L194 600Z" fill="#f6f6f6" stroke="#f6f6f6"></path><path d="M229 0L152 0L148 79Z" fill="#f9f9f9" stroke="#f9f9f9"></path><path d="M0 147L0 186L95 195Z" fill="#f6f6f6" stroke="#f6f6f6"></path><path d="M0 314L0 389L47 378Z" fill="#fefefe" stroke="#fefefe"></path><path d="M47 378L0 537L143 526Z" fill="#f6f6f6" stroke="#f6f6f6"></path><path d="M0 314L146 261L95 195Z" fill="#fefefe" stroke="#fefefe"></path><path d="M0 186L0 314L95 195Z" fill="#fefefe" stroke="#fefefe"></path><path d="M0 147L95 195L148 79Z" fill="#f7f7f7" stroke="#f7f7f7"></path><path d="M900 114L900 0L823 98Z" fill="#f9f9f9" stroke="#f9f9f9"></path><path d="M0 389L0 537L47 378Z" fill="#f4f4f4" stroke="#f4f4f4"></path><path d="M0 0L0 147L148 79Z" fill="#f6f6f6" stroke="#f6f6f6"></path><path d="M0 537L0 600L70 600Z" fill="#f3f3f3" stroke="#f3f3f3"></path><path d="M152 0L0 0L148 79Z" fill="#f6f6f6" stroke="#f6f6f6"></path></g></svg>