<svg id="visual" viewBox="0 0 900 600" width="900" height="600" xmlns="http://www.w3.org/2000/svg" xmlns:xlink="http://www.w3.org/1999/xlink" version="1.1"><path d="M0 121L25 119C50 117 100 113 150 110C200 107 250 105 300 101C350 97 400 91 450 93C500 95 550 105 600 103C650 101 700 87 750 81C800 75 850 77 875 78L900 79L900 0L875 0C850 0 800 0 750 0C700 0 650 0 600 0C550 0 500 0 450 0C400 0 350 0 300 0C250 0 200 0 150 0C100 0 50 0 25 0L0 0Z" fill="#764272"></path><path d="M0 157L25 156C50 155 100 153 150 152C200 151 250 151 300 156C350 161 400 171 450 181C500 191 550 201 600 199C650 197 700 183 750 169C800 155 850 141 875 134L900 127L900 77L875 76C850 75 800 73 750 79C700 85 650 99 600 101C550 103 500 93 450 91C400 89 350 95 300 99C250 103 200 105 150 108C100 111 50 115 25 117L0 119Z" fill="#60315c"></path><path d="M0 229L25 228C50 227 100 225 150 233C200 241 250 259 300 277C350 295 400 313 450 310C500 307 550 283 600 278C650 273 700 287 750 280C800 273 850 245 875 231L900 217L900 125L875 132C850 139 800 153 750 167C700 181 650 195 600 197C550 199 500 189 450 179C400 169 350 159 300 154C250 149 200 149 150 150C100 151 50 153 25 154L0 155Z" fill="#4b2147"></path><path d="M0 427L25 422C50 417 100 407 150 414C200 421 250 445 300 459C350 473 400 477 450 480C500 483 550 485 600 483C650 481 700 475 750 466C800 457 850 445 875 439L900 433L900 215L875 229C850 243 800 271 750 278C700 285 650 271 600 276C550 281 500 305 450 308C400 311 350 293 300 275C250 257 200 239 150 231C100 223 50 225 25 226L0 227Z" fill="#361133"></path><path d="M0 601L25 601C50 601 100 601 150 601C200 601 250 601 300 601C350 601 400 601 450 601C500 601 550 601 600 601C650 601 700 601 750 601C800 601 850 601 875 601L900 601L900 431L875 437C850 443 800 455 750 464C700 473 650 479 600 481C550 483 500 481 450 478C400 475 350 471 300 457C250 443 200 419 150 412C100 405 50 415 25 420L0 425Z" fill="#240020"></path></svg>