<svg id="visual" viewBox="0 0 900 600" width="900" height="600" xmlns="http://www.w3.org/2000/svg" xmlns:xlink="http://www.w3.org/1999/xlink" version="1.1"><rect x="0" y="0" width="900" height="600" fill="#002233"></rect><path d="M0 295L21.5 284.5C43 274 86 253 128.8 262.5C171.7 272 214.3 312 257.2 335C300 358 343 364 385.8 346.7C428.7 329.3 471.3 288.7 514.2 292.2C557 295.7 600 343.3 642.8 358.7C685.7 374 728.3 357 771.2 320.7C814 284.3 857 228.7 878.5 200.8L900 173L900 601L878.5 601C857 601 814 601 771.2 601C728.3 601 685.7 601 642.8 601C600 601 557 601 514.2 601C471.3 601 428.7 601 385.8 601C343 601 300 601 257.2 601C214.3 601 171.7 601 128.8 601C86 601 43 601 21.5 601L0 601Z" fill="#06b48f" stroke-linecap="round" stroke-linejoin="miter"></path></svg>