<svg id="visual" viewBox="0 0 900 600" width="900" height="600" xmlns="http://www.w3.org/2000/svg" xmlns:xlink="http://www.w3.org/1999/xlink" version="1.1"><rect x="0" y="0" width="900" height="600" fill="#001220"></rect><defs><linearGradient id="grad1_0" x1="33.3%" y1="0%" x2="100%" y2="100%"><stop offset="20%" stop-color="#001220" stop-opacity="1"></stop><stop offset="80%" stop-color="#001220" stop-opacity="1"></stop></linearGradient></defs><defs><linearGradient id="grad2_0" x1="0%" y1="0%" x2="66.7%" y2="100%"><stop offset="20%" stop-color="#001220" stop-opacity="1"></stop><stop offset="80%" stop-color="#001220" stop-opacity="1"></stop></linearGradient></defs><g transform="translate(900, 0)"><path d="M0 432.7C-26.1 435.9 -52.1 439.1 -75.1 426.1C-98.1 413.1 -118.1 383.8 -128.6 353.3C-139.1 322.8 -140.3 291.1 -170.5 295.3C-200.7 299.5 -260.1 339.6 -271.3 323.3C-282.4 307 -245.5 234.3 -239 200.5C-232.5 166.8 -256.5 171.8 -295.3 170.5C-334.1 169.2 -387.8 161.5 -383.4 139.5C-379 117.5 -316.6 81.2 -315.1 55.6C-313.7 29.9 -373.2 15 -432.7 0L0 0Z" fill="#009473"></path></g><g transform="translate(0, 600)"><path d="M0 -432.7C16.5 -372.4 33.1 -312.2 52.4 -297.4C71.8 -282.7 94.1 -313.4 122.1 -335.5C150.1 -357.5 183.9 -370.8 214.5 -371.5C245.1 -372.3 272.5 -360.6 278.1 -331.4C283.7 -302.3 267.5 -255.8 277.3 -232.7C287.1 -209.5 322.9 -209.7 334.3 -193C345.7 -176.3 332.7 -142.6 322.3 -117.3C311.9 -92 304.2 -75.1 323 -57C341.8 -38.8 387.3 -19.4 432.7 0L0 0Z" fill="#009473"></path></g></svg>