<svg id="visual" viewBox="0 0 900 600" width="900" height="600" xmlns="http://www.w3.org/2000/svg" xmlns:xlink="http://www.w3.org/1999/xlink" version="1.1"><rect x="0" y="0" width="900" height="600" fill="#140021"></rect><path d="M0 268L129 268L129 309L257 309L257 283L386 283L386 273L514 273L514 350L643 350L643 300L771 300L771 286L900 286L900 327L900 601L900 601L771 601L771 601L643 601L643 601L514 601L514 601L386 601L386 601L257 601L257 601L129 601L129 601L0 601Z" fill="#9900ff"></path><path d="M0 359L129 359L129 420L257 420L257 413L386 413L386 432L514 432L514 355L643 355L643 392L771 392L771 380L900 380L900 355L900 601L900 601L771 601L771 601L643 601L643 601L514 601L514 601L386 601L386 601L257 601L257 601L129 601L129 601L0 601Z" fill="#7700c6"></path><path d="M0 535L129 535L129 461L257 461L257 464L386 464L386 465L514 465L514 523L643 523L643 503L771 503L771 489L900 489L900 520L900 601L900 601L771 601L771 601L643 601L643 601L514 601L514 601L386 601L386 601L257 601L257 601L129 601L129 601L0 601Z" fill="#560090"></path></svg>