<svg id="visual" viewBox="0 0 900 600" width="900" height="600" xmlns="http://www.w3.org/2000/svg" xmlns:xlink="http://www.w3.org/1999/xlink" version="1.1"><g stroke-width="1" stroke-linejoin="bevel"><path d="M456 301.7L471 302.9L474 277.9Z" fill="#000b0e" stroke="#000b0e"></path><path d="M471 302.9L487 283.9L474 277.9Z" fill="#000d10" stroke="#000d10"></path><path d="M474 277.9L427 270.4L456 301.7Z" fill="#000f11" stroke="#000f11"></path><path d="M463 220.6L446 248L474 277.9Z" fill="#00070b" stroke="#00070b"></path><path d="M474 277.9L446 248L427 270.4Z" fill="#000f11" stroke="#000f11"></path><path d="M427 270.4L413 317.1L456 301.7Z" fill="#011013" stroke="#011013"></path><path d="M456 301.7L461 385.4L471 302.9Z" fill="#011114" stroke="#011114"></path><path d="M523 236.4L463 220.6L474 277.9Z" fill="#00070b" stroke="#00070b"></path><path d="M388 262L387 268.3L427 270.4Z" fill="#021315" stroke="#021315"></path><path d="M487 283.9L523 236.4L474 277.9Z" fill="#000f11" stroke="#000f11"></path><path d="M388 262L427 270.4L446 248Z" fill="#011013" stroke="#011013"></path><path d="M427 270.4L387 268.3L413 317.1Z" fill="#021416" stroke="#021416"></path><path d="M391 188.6L388 262L446 248Z" fill="#011114" stroke="#011114"></path><path d="M554 331.6L547 271.3L487 283.9Z" fill="#000508" stroke="#000508"></path><path d="M487 283.9L547 271.3L523 236.4Z" fill="#011013" stroke="#011013"></path><path d="M352 331.7L401 349.6L413 317.1Z" fill="#011114" stroke="#011114"></path><path d="M413 317.1L461 385.4L456 301.7Z" fill="#011013" stroke="#011013"></path><path d="M471 302.9L554 331.6L487 283.9Z" fill="#021315" stroke="#021315"></path><path d="M523 236.4L467 200.6L463 220.6Z" fill="#000f11" stroke="#000f11"></path><path d="M463 220.6L425 179.7L446 248Z" fill="#000d10" stroke="#000d10"></path><path d="M547 271.3L546 247.1L523 236.4Z" fill="#000000" stroke="#000000"></path><path d="M458 175.1L461 191.4L467 200.6Z" fill="#011114" stroke="#011114"></path><path d="M401 349.6L461 385.4L413 317.1Z" fill="#011013" stroke="#011013"></path><path d="M536 207.6L467 200.6L523 236.4Z" fill="#021315" stroke="#021315"></path><path d="M467 200.6L461 191.4L463 220.6Z" fill="#000f11" stroke="#000f11"></path><path d="M525 377L554 331.6L471 302.9Z" fill="#000508" stroke="#000508"></path><path d="M601 237.3L579 223.3L546 247.1Z" fill="#000b0e" stroke="#000b0e"></path><path d="M461 385.4L508 382.4L471 302.9Z" fill="#000508" stroke="#000508"></path><path d="M391 188.6L365 253.1L388 262Z" fill="#021416" stroke="#021416"></path><path d="M388 262L365 253.1L387 268.3Z" fill="#021315" stroke="#021315"></path><path d="M387 268.3L352 331.7L413 317.1Z" fill="#021416" stroke="#021416"></path><path d="M508 382.4L525 377L471 302.9Z" fill="#011013" stroke="#011013"></path><path d="M546 247.1L536 207.6L523 236.4Z" fill="#000508" stroke="#000508"></path><path d="M401 349.6L434 394.6L461 385.4Z" fill="#00090d" stroke="#00090d"></path><path d="M461 385.4L475 405.9L508 382.4Z" fill="#000000" stroke="#000000"></path><path d="M365 253.1L355 264.3L387 268.3Z" fill="#00070b" stroke="#00070b"></path><path d="M536 207.6L458 175.1L467 200.6Z" fill="#021416" stroke="#021416"></path><path d="M461 191.4L425 179.7L463 220.6Z" fill="#000b0e" stroke="#000b0e"></path><path d="M511 446.7L541 377L525 377Z" fill="#000f11" stroke="#000f11"></path><path d="M525 377L541 377L554 331.6Z" fill="#000b0e" stroke="#000b0e"></path><path d="M458 175.1L425 179.7L461 191.4Z" fill="#00090d" stroke="#00090d"></path><path d="M365 253.1L328 211.3L355 264.3Z" fill="#021416" stroke="#021416"></path><path d="M434 394.6L475 405.9L461 385.4Z" fill="#011013" stroke="#011013"></path><path d="M508 382.4L511 446.7L525 377Z" fill="#000d10" stroke="#000d10"></path><path d="M355 264.3L352 331.7L387 268.3Z" fill="#021315" stroke="#021315"></path><path d="M401 349.6L381 418.7L434 394.6Z" fill="#000d10" stroke="#000d10"></path><path d="M425 179.7L391 188.6L446 248Z" fill="#000508" stroke="#000508"></path><path d="M425 179.7L406 179.1L391 188.6Z" fill="#021416" stroke="#021416"></path><path d="M395 136.4L406 179.1L425 179.7Z" fill="#021416" stroke="#021416"></path><path d="M352 331.7L363 367.6L401 349.6Z" fill="#011013" stroke="#011013"></path><path d="M601 237.3L546 247.1L547 271.3Z" fill="#021315" stroke="#021315"></path><path d="M546 247.1L579 223.3L536 207.6Z" fill="#021416" stroke="#021416"></path><path d="M443 108.6L425 179.7L458 175.1Z" fill="#00090d" stroke="#00090d"></path><path d="M598 345.9L600 312.9L554 331.6Z" fill="#000b0e" stroke="#000b0e"></path><path d="M554 331.6L600 312.9L547 271.3Z" fill="#000b0e" stroke="#000b0e"></path><path d="M337 370L360 380.7L363 367.6Z" fill="#021416" stroke="#021416"></path><path d="M363 367.6L360 380.7L401 349.6Z" fill="#021315" stroke="#021315"></path><path d="M434 394.6L436 441.3L475 405.9Z" fill="#021416" stroke="#021416"></path><path d="M588 381.9L598 345.9L554 331.6Z" fill="#011013" stroke="#011013"></path><path d="M316 301L352 331.7L355 264.3Z" fill="#000b0e" stroke="#000b0e"></path><path d="M316 301L321 315.9L352 331.7Z" fill="#021416" stroke="#021416"></path><path d="M352 331.7L337 370L363 367.6Z" fill="#000b0e" stroke="#000b0e"></path><path d="M600 312.9L601 237.3L547 271.3Z" fill="#000b0e" stroke="#000b0e"></path><path d="M321 315.9L322 330.6L352 331.7Z" fill="#000f11" stroke="#000f11"></path><path d="M301 279.1L316 301L355 264.3Z" fill="#021315" stroke="#021315"></path><path d="M321 315.9L260 287.9L322 330.6Z" fill="#000000" stroke="#000000"></path><path d="M322 330.6L337 370L352 331.7Z" fill="#021315" stroke="#021315"></path><path d="M541 468.4L581 386.4L541 377Z" fill="#011114" stroke="#011114"></path><path d="M541 377L581 386.4L554 331.6Z" fill="#021315" stroke="#021315"></path><path d="M337 370L359 399.6L360 380.7Z" fill="#00090d" stroke="#00090d"></path><path d="M360 380.7L381 418.7L401 349.6Z" fill="#000b0e" stroke="#000b0e"></path><path d="M359 399.6L381 418.7L360 380.7Z" fill="#000d10" stroke="#000d10"></path><path d="M581 386.4L588 381.9L554 331.6Z" fill="#011114" stroke="#011114"></path><path d="M381 418.7L436 441.3L434 394.6Z" fill="#00070b" stroke="#00070b"></path><path d="M475 405.9L511 446.7L508 382.4Z" fill="#000d10" stroke="#000d10"></path><path d="M348 180.1L328 211.3L391 188.6Z" fill="#000d10" stroke="#000d10"></path><path d="M391 188.6L328 211.3L365 253.1Z" fill="#021416" stroke="#021416"></path><path d="M395 136.4L391 188.6L406 179.1Z" fill="#00090d" stroke="#00090d"></path><path d="M395 136.4L348 180.1L391 188.6Z" fill="#021416" stroke="#021416"></path><path d="M436 441.3L496 448.3L475 405.9Z" fill="#00070b" stroke="#00070b"></path><path d="M617 462.1L656 416.6L588 381.9Z" fill="#000000" stroke="#000000"></path><path d="M328 211.3L301 279.1L355 264.3Z" fill="#000b0e" stroke="#000b0e"></path><path d="M316 301L260 287.9L321 315.9Z" fill="#000d10" stroke="#000d10"></path><path d="M280 427.4L359 399.6L337 370Z" fill="#00070b" stroke="#00070b"></path><path d="M496 448.3L511 446.7L475 405.9Z" fill="#000000" stroke="#000000"></path><path d="M525 126.6L458 175.1L536 207.6Z" fill="#00090d" stroke="#00090d"></path><path d="M443 108.6L395 136.4L425 179.7Z" fill="#000f11" stroke="#000f11"></path><path d="M601 237.3L609 198.4L579 223.3Z" fill="#00070b" stroke="#00070b"></path><path d="M579 223.3L581 163.1L536 207.6Z" fill="#00070b" stroke="#00070b"></path><path d="M640 255.9L609 198.4L601 237.3Z" fill="#000508" stroke="#000508"></path><path d="M640 255.9L601 237.3L600 312.9Z" fill="#00070b" stroke="#00070b"></path><path d="M609 198.4L581 163.1L579 223.3Z" fill="#00090d" stroke="#00090d"></path><path d="M588 381.9L624 356.7L598 345.9Z" fill="#000d10" stroke="#000d10"></path><path d="M598 345.9L624 356.7L600 312.9Z" fill="#00090d" stroke="#00090d"></path><path d="M656 416.6L624 356.7L588 381.9Z" fill="#000b0e" stroke="#000b0e"></path><path d="M581 163.1L525 126.6L536 207.6Z" fill="#000508" stroke="#000508"></path><path d="M648 300.3L640 255.9L600 312.9Z" fill="#011114" stroke="#011114"></path><path d="M525 126.6L443 108.6L458 175.1Z" fill="#011013" stroke="#011013"></path><path d="M647 329.7L648 300.3L600 312.9Z" fill="#000b0e" stroke="#000b0e"></path><path d="M359 399.6L361 442.3L381 418.7Z" fill="#00090d" stroke="#00090d"></path><path d="M381 418.7L371 449.7L436 441.3Z" fill="#00090d" stroke="#00090d"></path><path d="M436 441.3L504 476.6L496 448.3Z" fill="#021315" stroke="#021315"></path><path d="M280 427.4L361 442.3L359 399.6Z" fill="#000b0e" stroke="#000b0e"></path><path d="M280 427.4L337 370L260 409.4Z" fill="#021416" stroke="#021416"></path><path d="M361 442.3L371 449.7L381 418.7Z" fill="#00090d" stroke="#00090d"></path><path d="M624 356.7L647 329.7L600 312.9Z" fill="#000000" stroke="#000000"></path><path d="M647 329.7L653 320.1L648 300.3Z" fill="#000508" stroke="#000508"></path><path d="M648 300.3L664 272L640 255.9Z" fill="#000b0e" stroke="#000b0e"></path><path d="M496 448.3L504 476.6L511 446.7Z" fill="#000f11" stroke="#000f11"></path><path d="M511 446.7L541 468.4L541 377Z" fill="#000508" stroke="#000508"></path><path d="M514 506.3L504 476.6L380 498.1Z" fill="#021416" stroke="#021416"></path><path d="M328 211.3L275 249.1L301 279.1Z" fill="#011114" stroke="#011114"></path><path d="M301 279.1L260 287.9L316 301Z" fill="#021416" stroke="#021416"></path><path d="M261 238L275 249.1L328 211.3Z" fill="#021315" stroke="#021315"></path><path d="M504 476.6L541 468.4L511 446.7Z" fill="#021416" stroke="#021416"></path><path d="M656 416.6L666 319L647 329.7Z" fill="#000f11" stroke="#000f11"></path><path d="M549 106.7L532 104.9L525 126.6Z" fill="#021315" stroke="#021315"></path><path d="M525 126.6L464 79.4L443 108.6Z" fill="#000b0e" stroke="#000b0e"></path><path d="M395 136.4L326 149.3L348 180.1Z" fill="#021416" stroke="#021416"></path><path d="M348 180.1L326 149.3L328 211.3Z" fill="#00090d" stroke="#00090d"></path><path d="M325 139.9L326 149.3L395 136.4Z" fill="#011114" stroke="#011114"></path><path d="M681 288.1L664 272L648 300.3Z" fill="#011114" stroke="#011114"></path><path d="M670 191.6L620 143.7L609 198.4Z" fill="#00070b" stroke="#00070b"></path><path d="M581 163.1L549 106.7L525 126.6Z" fill="#011013" stroke="#011013"></path><path d="M575 100.9L549 106.7L581 163.1Z" fill="#011013" stroke="#011013"></path><path d="M604 135.3L581 163.1L620 143.7Z" fill="#011114" stroke="#011114"></path><path d="M647 329.7L666 319L653 320.1Z" fill="#000508" stroke="#000508"></path><path d="M653 320.1L666 319L648 300.3Z" fill="#000508" stroke="#000508"></path><path d="M656 416.6L647 329.7L624 356.7Z" fill="#011013" stroke="#011013"></path><path d="M275 249.1L260 287.9L301 279.1Z" fill="#000f11" stroke="#000f11"></path><path d="M359 99.9L325 139.9L395 136.4Z" fill="#011013" stroke="#011013"></path><path d="M243 153.4L261 238L328 211.3Z" fill="#00090d" stroke="#00090d"></path><path d="M523 495.3L551 477.3L541 468.4Z" fill="#00090d" stroke="#00090d"></path><path d="M541 468.4L617 462.1L581 386.4Z" fill="#000d10" stroke="#000d10"></path><path d="M361 442.3L374 475.4L371 449.7Z" fill="#000d10" stroke="#000d10"></path><path d="M371 449.7L374 475.4L436 441.3Z" fill="#00090d" stroke="#00090d"></path><path d="M504 476.6L523 495.3L541 468.4Z" fill="#021416" stroke="#021416"></path><path d="M380 498.1L374 475.4L312 507.1Z" fill="#000508" stroke="#000508"></path><path d="M620 143.7L581 163.1L609 198.4Z" fill="#00090d" stroke="#00090d"></path><path d="M275 249.1L261 238L260 287.9Z" fill="#000d10" stroke="#000d10"></path><path d="M222 234.1L261 238L223 212.3Z" fill="#021416" stroke="#021416"></path><path d="M532 104.9L464 79.4L525 126.6Z" fill="#021315" stroke="#021315"></path><path d="M443 108.6L409 83.7L395 136.4Z" fill="#021315" stroke="#021315"></path><path d="M461 71.7L464 79.4L543 48.9Z" fill="#000d10" stroke="#000d10"></path><path d="M461 71.7L409 83.7L443 108.6Z" fill="#000f11" stroke="#000f11"></path><path d="M670 191.6L609 198.4L640 255.9Z" fill="#00070b" stroke="#00070b"></path><path d="M514 506.3L523 495.3L504 476.6Z" fill="#011013" stroke="#011013"></path><path d="M666 319L681 288.1L648 300.3Z" fill="#021416" stroke="#021416"></path><path d="M664 272L686 243L640 255.9Z" fill="#000508" stroke="#000508"></path><path d="M409 83.7L359 99.9L395 136.4Z" fill="#00070b" stroke="#00070b"></path><path d="M543 48.9L464 79.4L532 104.9Z" fill="#000508" stroke="#000508"></path><path d="M464 79.4L461 71.7L443 108.6Z" fill="#000000" stroke="#000000"></path><path d="M603 102.9L575 100.9L604 135.3Z" fill="#000b0e" stroke="#000b0e"></path><path d="M604 135.3L575 100.9L581 163.1Z" fill="#000000" stroke="#000000"></path><path d="M549 106.7L543 48.9L532 104.9Z" fill="#021416" stroke="#021416"></path><path d="M380 498.1L504 476.6L436 441.3Z" fill="#000000" stroke="#000000"></path><path d="M523 495.3L573 485.3L551 477.3Z" fill="#00090d" stroke="#00090d"></path><path d="M548 543.4L573 485.3L523 495.3Z" fill="#021315" stroke="#021315"></path><path d="M551 477.3L617 462.1L541 468.4Z" fill="#000b0e" stroke="#000b0e"></path><path d="M304 489.1L374 475.4L361 442.3Z" fill="#011114" stroke="#011114"></path><path d="M374 475.4L380 498.1L436 441.3Z" fill="#00090d" stroke="#00090d"></path><path d="M698 275.1L686 243L664 272Z" fill="#00070b" stroke="#00070b"></path><path d="M686 243L670 191.6L640 255.9Z" fill="#00070b" stroke="#00070b"></path><path d="M617 462.1L588 381.9L581 386.4Z" fill="#000508" stroke="#000508"></path><path d="M712 322L698 275.1L681 288.1Z" fill="#021416" stroke="#021416"></path><path d="M260 409.4L337 370L243 388.9Z" fill="#011114" stroke="#011114"></path><path d="M573 485.3L617 462.1L551 477.3Z" fill="#021315" stroke="#021315"></path><path d="M626 116.4L604 135.3L620 143.7Z" fill="#000d10" stroke="#000d10"></path><path d="M626 116.4L603 102.9L604 135.3Z" fill="#000000" stroke="#000000"></path><path d="M575 100.9L575 71.4L549 106.7Z" fill="#00090d" stroke="#00090d"></path><path d="M681 288.1L698 275.1L664 272Z" fill="#000d10" stroke="#000d10"></path><path d="M686 243L693 226.6L670 191.6Z" fill="#000508" stroke="#000508"></path><path d="M712 322L681 288.1L666 319Z" fill="#000b0e" stroke="#000b0e"></path><path d="M487 600L519 518.1L427 600.1Z" fill="#021315" stroke="#021315"></path><path d="M514 506.3L519 518.1L523 495.3Z" fill="#000b0e" stroke="#000b0e"></path><path d="M573 485.3L606 535.1L617 462.1Z" fill="#000f11" stroke="#000f11"></path><path d="M654 104.6L626 116.4L681 133.7Z" fill="#011013" stroke="#011013"></path><path d="M720 270.9L693 226.6L686 243Z" fill="#021315" stroke="#021315"></path><path d="M681 133.7L626 116.4L620 143.7Z" fill="#021416" stroke="#021416"></path><path d="M243 388.9L337 370L322 330.6Z" fill="#011013" stroke="#011013"></path><path d="M260 287.9L243 388.9L322 330.6Z" fill="#021315" stroke="#021315"></path><path d="M201 348L243 388.9L260 287.9Z" fill="#000f11" stroke="#000f11"></path><path d="M637 76.4L575 71.4L603 102.9Z" fill="#000000" stroke="#000000"></path><path d="M603 102.9L575 71.4L575 100.9Z" fill="#011013" stroke="#011013"></path><path d="M243 153.4L328 211.3L326 149.3Z" fill="#000d10" stroke="#000d10"></path><path d="M261 238L222 234.1L260 287.9Z" fill="#000b0e" stroke="#000b0e"></path><path d="M270 129.4L326 149.3L325 139.9Z" fill="#000508" stroke="#000508"></path><path d="M656 416.6L712 322L666 319Z" fill="#011114" stroke="#011114"></path><path d="M698 275.1L720 270.9L686 243Z" fill="#011013" stroke="#011013"></path><path d="M292 83.9L270 129.4L325 139.9Z" fill="#000b0e" stroke="#000b0e"></path><path d="M575 71.4L543 48.9L549 106.7Z" fill="#000508" stroke="#000508"></path><path d="M309 65.6L359 99.9L316 26.7Z" fill="#021416" stroke="#021416"></path><path d="M243 153.4L223 212.3L261 238Z" fill="#00090d" stroke="#00090d"></path><path d="M712 322L720 270.9L698 275.1Z" fill="#000508" stroke="#000508"></path><path d="M681 133.7L620 143.7L670 191.6Z" fill="#021315" stroke="#021315"></path><path d="M224 419.9L280 427.4L260 409.4Z" fill="#000f11" stroke="#000f11"></path><path d="M224 419.9L304 489.1L280 427.4Z" fill="#000508" stroke="#000508"></path><path d="M280 427.4L304 489.1L361 442.3Z" fill="#00070b" stroke="#00070b"></path><path d="M488 600L548 543.4L519 518.1Z" fill="#021416" stroke="#021416"></path><path d="M270 129.4L243 153.4L326 149.3Z" fill="#011013" stroke="#011013"></path><path d="M626 116.4L637 76.4L603 102.9Z" fill="#000b0e" stroke="#000b0e"></path><path d="M575 71.4L594 0L543 48.9Z" fill="#011013" stroke="#011013"></path><path d="M681 133.7L670 191.6L762 208.3Z" fill="#021416" stroke="#021416"></path><path d="M314 531.4L312 507.1L290 529.1Z" fill="#011114" stroke="#011114"></path><path d="M304 489.1L312 507.1L374 475.4Z" fill="#000f11" stroke="#000f11"></path><path d="M762 208.3L670 191.6L693 226.6Z" fill="#000d10" stroke="#000d10"></path><path d="M519 518.1L514 506.3L427 600.1Z" fill="#021315" stroke="#021315"></path><path d="M519 518.1L548 543.4L523 495.3Z" fill="#011114" stroke="#011114"></path><path d="M699 475.1L708 421.7L656 416.6Z" fill="#000f11" stroke="#000f11"></path><path d="M359 99.9L292 83.9L325 139.9Z" fill="#011114" stroke="#011114"></path><path d="M270 129.4L240 112.9L243 153.4Z" fill="#021416" stroke="#021416"></path><path d="M309 65.6L292 83.9L359 99.9Z" fill="#000f11" stroke="#000f11"></path><path d="M359 99.9L409 83.7L316 26.7Z" fill="#021315" stroke="#021315"></path><path d="M188 303.3L260 287.9L186 255Z" fill="#00090d" stroke="#00090d"></path><path d="M188 303.3L201 348L260 287.9Z" fill="#00070b" stroke="#00070b"></path><path d="M243 388.9L224 419.9L260 409.4Z" fill="#000000" stroke="#000000"></path><path d="M436 0L409 83.7L461 71.7Z" fill="#000000" stroke="#000000"></path><path d="M192 393.7L224 419.9L243 388.9Z" fill="#011114" stroke="#011114"></path><path d="M675 76.9L637 76.4L654 104.6Z" fill="#021416" stroke="#021416"></path><path d="M654 104.6L637 76.4L626 116.4Z" fill="#000f11" stroke="#000f11"></path><path d="M186 255L260 287.9L222 234.1Z" fill="#011013" stroke="#011013"></path><path d="M186 255L222 234.1L182 229.1Z" fill="#00070b" stroke="#00070b"></path><path d="M723 433.6L708 421.7L724 446.7Z" fill="#011013" stroke="#011013"></path><path d="M656 416.6L708 421.7L712 322Z" fill="#011013" stroke="#011013"></path><path d="M779 299.3L762 208.3L720 270.9Z" fill="#021315" stroke="#021315"></path><path d="M240 112.9L250 110.4L210 66.7Z" fill="#011114" stroke="#011114"></path><path d="M292 83.9L250 110.4L270 129.4Z" fill="#000000" stroke="#000000"></path><path d="M182 229.1L222 234.1L223 212.3Z" fill="#021416" stroke="#021416"></path><path d="M182 229.1L223 212.3L175 206.3Z" fill="#021315" stroke="#021315"></path><path d="M312 507.1L353 547.4L380 498.1Z" fill="#021416" stroke="#021416"></path><path d="M548 543.4L606 535.1L573 485.3Z" fill="#000d10" stroke="#000d10"></path><path d="M314 537.4L314 531.4L290 529.1Z" fill="#00090d" stroke="#00090d"></path><path d="M312 507.1L314 531.4L353 547.4Z" fill="#00070b" stroke="#00070b"></path><path d="M210 66.7L250 110.4L292 83.9Z" fill="#000d10" stroke="#000d10"></path><path d="M250 110.4L240 112.9L270 129.4Z" fill="#000508" stroke="#000508"></path><path d="M180 162.6L223 212.3L243 153.4Z" fill="#000d10" stroke="#000d10"></path><path d="M186 255L172 253.3L188 303.3Z" fill="#021416" stroke="#021416"></path><path d="M514 0L461 71.7L543 48.9Z" fill="#011114" stroke="#011114"></path><path d="M481 -5.1L459 0L461 71.7Z" fill="#00070b" stroke="#00070b"></path><path d="M290 529.1L312 507.1L304 489.1Z" fill="#00090d" stroke="#00090d"></path><path d="M314 531.4L314 537.4L353 547.4Z" fill="#021315" stroke="#021315"></path><path d="M459 0L436 0L461 71.7Z" fill="#00070b" stroke="#00070b"></path><path d="M201 348L192 393.7L243 388.9Z" fill="#000b0e" stroke="#000b0e"></path><path d="M257 537.4L290 529.1L304 489.1Z" fill="#00070b" stroke="#00070b"></path><path d="M182 398.7L192 393.7L201 348Z" fill="#00090d" stroke="#00090d"></path><path d="M182 398.7L201 348L127 383.9Z" fill="#000d10" stroke="#000d10"></path><path d="M240 112.9L215 136.6L243 153.4Z" fill="#011114" stroke="#011114"></path><path d="M594 0L514 0L543 48.9Z" fill="#000b0e" stroke="#000b0e"></path><path d="M158 237.4L172 253.3L182 229.1Z" fill="#011114" stroke="#011114"></path><path d="M182 229.1L172 253.3L186 255Z" fill="#000b0e" stroke="#000b0e"></path><path d="M514 0L481 -5.1L461 71.7Z" fill="#000f11" stroke="#000f11"></path><path d="M459 0L481 -5.1L436 0Z" fill="#021315" stroke="#021315"></path><path d="M699 475.1L656 416.6L617 462.1Z" fill="#021416" stroke="#021416"></path><path d="M708 421.7L759 415.6L712 322Z" fill="#000d10" stroke="#000d10"></path><path d="M257 537.4L304 489.1L224 419.9Z" fill="#021416" stroke="#021416"></path><path d="M723 433.6L727 428.6L708 421.7Z" fill="#000f11" stroke="#000f11"></path><path d="M681 133.7L675 76.9L654 104.6Z" fill="#00090d" stroke="#00090d"></path><path d="M637 76.4L594 0L575 71.4Z" fill="#021416" stroke="#021416"></path><path d="M745 84.7L675 76.9L681 133.7Z" fill="#000f11" stroke="#000f11"></path><path d="M652 532.3L699 475.1L617 462.1Z" fill="#000b0e" stroke="#000b0e"></path><path d="M723 433.6L724 446.7L727 428.6Z" fill="#021315" stroke="#021315"></path><path d="M180 162.6L175 206.3L223 212.3Z" fill="#000d10" stroke="#000d10"></path><path d="M329 0L316 26.7L409 83.7Z" fill="#000f11" stroke="#000f11"></path><path d="M309 65.6L230 28.7L292 83.9Z" fill="#011013" stroke="#011013"></path><path d="M172 157.1L180 162.6L215 136.6Z" fill="#000000" stroke="#000000"></path><path d="M141 317.7L201 348L188 303.3Z" fill="#021416" stroke="#021416"></path><path d="M192 393.7L179 421.6L224 419.9Z" fill="#00070b" stroke="#00070b"></path><path d="M699 475.1L724 446.7L708 421.7Z" fill="#000b0e" stroke="#000b0e"></path><path d="M180 162.6L172 205.4L175 206.3Z" fill="#011114" stroke="#011114"></path><path d="M175 206.3L172 205.4L182 229.1Z" fill="#000b0e" stroke="#000b0e"></path><path d="M671 566.3L652 532.3L606 535.1Z" fill="#000000" stroke="#000000"></path><path d="M606 535.1L652 532.3L617 462.1Z" fill="#000d10" stroke="#000d10"></path><path d="M750 469.7L744 423.6L724 446.7Z" fill="#011114" stroke="#011114"></path><path d="M779 299.3L720 270.9L712 322Z" fill="#011013" stroke="#011013"></path><path d="M720 270.9L762 208.3L693 226.6Z" fill="#011114" stroke="#011114"></path><path d="M724 446.7L744 423.6L727 428.6Z" fill="#021416" stroke="#021416"></path><path d="M727 428.6L744 423.6L708 421.7Z" fill="#000b0e" stroke="#000b0e"></path><path d="M759 415.6L744 423.6L786 442.4Z" fill="#000b0e" stroke="#000b0e"></path><path d="M172 205.4L158 237.4L182 229.1Z" fill="#000000" stroke="#000000"></path><path d="M172 253.3L141 317.7L188 303.3Z" fill="#00070b" stroke="#00070b"></path><path d="M427 600.1L380 498.1L417 600Z" fill="#000f11" stroke="#000f11"></path><path d="M427 600.1L514 506.3L380 498.1Z" fill="#000b0e" stroke="#000b0e"></path><path d="M548 543.4L587 600L606 535.1Z" fill="#011013" stroke="#011013"></path><path d="M380 498.1L416 600L417 600Z" fill="#021315" stroke="#021315"></path><path d="M215 136.6L180 162.6L243 153.4Z" fill="#011013" stroke="#011013"></path><path d="M172 205.4L129 250.3L158 237.4Z" fill="#000b0e" stroke="#000b0e"></path><path d="M172 157.1L215 136.6L160 107.6Z" fill="#000508" stroke="#000508"></path><path d="M487 600L488 600L519 518.1Z" fill="#021416" stroke="#021416"></path><path d="M380 498.1L353 547.4L416 600Z" fill="#00070b" stroke="#00070b"></path><path d="M486 627.1L525 620.1L488 600Z" fill="#011013" stroke="#011013"></path><path d="M416 600L353 547.4L341 600Z" fill="#011013" stroke="#011013"></path><path d="M341 600L353 547.4L314 537.4Z" fill="#000f11" stroke="#000f11"></path><path d="M486 627.1L487 600L427 600.1Z" fill="#00090d" stroke="#00090d"></path><path d="M177 428.7L179 421.6L142 421.9Z" fill="#000f11" stroke="#000f11"></path><path d="M182 398.7L179 421.6L192 393.7Z" fill="#000000" stroke="#000000"></path><path d="M807 345.6L779 299.3L712 322Z" fill="#000b0e" stroke="#000b0e"></path><path d="M626 0L594 0L637 76.4Z" fill="#011114" stroke="#011114"></path><path d="M514 0L594 0L481 -5.1Z" fill="#000f11" stroke="#000f11"></path><path d="M525 620.1L538 600L488 600Z" fill="#00090d" stroke="#00090d"></path><path d="M488 600L538 600L548 543.4Z" fill="#000d10" stroke="#000d10"></path><path d="M142 421.9L179 421.6L182 398.7Z" fill="#011114" stroke="#011114"></path><path d="M179 421.6L177 428.7L224 419.9Z" fill="#021416" stroke="#021416"></path><path d="M481 -5.1L329 0L436 0Z" fill="#021416" stroke="#021416"></path><path d="M436 0L329 0L409 83.7Z" fill="#00070b" stroke="#00070b"></path><path d="M316 26.7L230 28.7L309 65.6Z" fill="#00070b" stroke="#00070b"></path><path d="M750 469.7L724 446.7L699 475.1Z" fill="#000b0e" stroke="#000b0e"></path><path d="M744 423.6L759 415.6L708 421.7Z" fill="#011013" stroke="#011013"></path><path d="M200 68.9L215 136.6L240 112.9Z" fill="#011114" stroke="#011114"></path><path d="M180 162.6L172 157.1L172 205.4Z" fill="#000b0e" stroke="#000b0e"></path><path d="M178 443.3L257 537.4L224 419.9Z" fill="#000f11" stroke="#000f11"></path><path d="M290 529.1L286 596.3L314 537.4Z" fill="#000508" stroke="#000508"></path><path d="M129 250.3L172 253.3L158 237.4Z" fill="#000508" stroke="#000508"></path><path d="M129 250.3L141 317.7L172 253.3Z" fill="#021416" stroke="#021416"></path><path d="M142 421.9L178 443.3L177 428.7Z" fill="#021315" stroke="#021315"></path><path d="M177 428.7L178 443.3L224 419.9Z" fill="#021416" stroke="#021416"></path><path d="M626 0L637 76.4L651 0Z" fill="#000f11" stroke="#000f11"></path><path d="M635 -5.3L626 0L651 0Z" fill="#000000" stroke="#000000"></path><path d="M594 0L745 -44.1L481 -5.1Z" fill="#00070b" stroke="#00070b"></path><path d="M216 -7.3L301 0L173 -24.1Z" fill="#011013" stroke="#011013"></path><path d="M329 0L301 0L316 26.7Z" fill="#00090d" stroke="#00090d"></path><path d="M525 620.1L587 600L538 600Z" fill="#000d10" stroke="#000d10"></path><path d="M538 600L587 600L548 543.4Z" fill="#000f11" stroke="#000f11"></path><path d="M286 596.3L341 600L314 537.4Z" fill="#000000" stroke="#000000"></path><path d="M486 627.1L427 600.1L417 600Z" fill="#000b0e" stroke="#000b0e"></path><path d="M486 627.1L488 600L487 600Z" fill="#021315" stroke="#021315"></path><path d="M486 627.1L417 600L416 600Z" fill="#000b0e" stroke="#000b0e"></path><path d="M738 503.3L750 469.7L699 475.1Z" fill="#000000" stroke="#000000"></path><path d="M808 364.9L807 345.6L712 322Z" fill="#00070b" stroke="#00070b"></path><path d="M738 503.3L699 475.1L719 551.4Z" fill="#000f11" stroke="#000f11"></path><path d="M91 245L129 250.3L89 150.7Z" fill="#000508" stroke="#000508"></path><path d="M230 28.7L210 66.7L292 83.9Z" fill="#000000" stroke="#000000"></path><path d="M89 150.7L129 250.3L172 205.4Z" fill="#011114" stroke="#011114"></path><path d="M347 610.1L486 627.1L416 600Z" fill="#011114" stroke="#011114"></path><path d="M651 0L637 76.4L655 0Z" fill="#000b0e" stroke="#000b0e"></path><path d="M626 0L635 -5.3L594 0Z" fill="#021315" stroke="#021315"></path><path d="M286 596.3L347 610.1L341 600Z" fill="#00090d" stroke="#00090d"></path><path d="M341 600L347 610.1L416 600Z" fill="#000b0e" stroke="#000b0e"></path><path d="M525 620.1L607 600L587 600Z" fill="#000f11" stroke="#000f11"></path><path d="M587 600L607 600L606 535.1Z" fill="#000d10" stroke="#000d10"></path><path d="M655 0L637 76.4L675 76.9Z" fill="#021315" stroke="#021315"></path><path d="M230 28.7L200 68.9L210 66.7Z" fill="#021416" stroke="#021416"></path><path d="M210 66.7L200 68.9L240 112.9Z" fill="#000f11" stroke="#000f11"></path><path d="M607 600L671 566.3L606 535.1Z" fill="#000000" stroke="#000000"></path><path d="M716 0L655 0L675 76.9Z" fill="#000000" stroke="#000000"></path><path d="M651 0L655 0L635 -5.3Z" fill="#011013" stroke="#011013"></path><path d="M808 364.9L712 322L759 415.6Z" fill="#00070b" stroke="#00070b"></path><path d="M799 175.7L785 151.4L762 208.3Z" fill="#000d10" stroke="#000d10"></path><path d="M719 551.4L699 475.1L652 532.3Z" fill="#00070b" stroke="#00070b"></path><path d="M786 442.4L798 398L759 415.6Z" fill="#00070b" stroke="#00070b"></path><path d="M785 151.4L681 133.7L762 208.3Z" fill="#00070b" stroke="#00070b"></path><path d="M785 151.4L745 84.7L681 133.7Z" fill="#011013" stroke="#011013"></path><path d="M127 383.9L142 421.9L182 398.7Z" fill="#000000" stroke="#000000"></path><path d="M200 557.1L254 590.3L257 537.4Z" fill="#000f11" stroke="#000f11"></path><path d="M127 383.9L201 348L141 317.7Z" fill="#000b0e" stroke="#000b0e"></path><path d="M799 175.7L762 208.3L813 210.3Z" fill="#000000" stroke="#000000"></path><path d="M116 340.6L127 383.9L141 317.7Z" fill="#021416" stroke="#021416"></path><path d="M301 0L230 28.7L316 26.7Z" fill="#021416" stroke="#021416"></path><path d="M786 442.4L744 423.6L750 469.7Z" fill="#000f11" stroke="#000f11"></path><path d="M798 398L808 364.9L759 415.6Z" fill="#000508" stroke="#000508"></path><path d="M66 298.1L116 340.6L141 317.7Z" fill="#021315" stroke="#021315"></path><path d="M813 210.3L762 208.3L779 299.3Z" fill="#000000" stroke="#000000"></path><path d="M813 210.3L779 299.3L838 264.1Z" fill="#000f11" stroke="#000f11"></path><path d="M145 91.6L160 107.6L200 68.9Z" fill="#000000" stroke="#000000"></path><path d="M200 68.9L160 107.6L215 136.6Z" fill="#000508" stroke="#000508"></path><path d="M278 600L286 596.3L254 590.3Z" fill="#021315" stroke="#021315"></path><path d="M257 537.4L286 596.3L290 529.1Z" fill="#00070b" stroke="#00070b"></path><path d="M815 462.4L786 442.4L750 469.7Z" fill="#021315" stroke="#021315"></path><path d="M880 380.6L817 356.1L808 364.9Z" fill="#000000" stroke="#000000"></path><path d="M826 301L779 299.3L807 345.6Z" fill="#000508" stroke="#000508"></path><path d="M880 380.6L808 364.9L798 398Z" fill="#011013" stroke="#011013"></path><path d="M808 364.9L817 356.1L807 345.6Z" fill="#011013" stroke="#011013"></path><path d="M841 314.7L826 301L807 345.6Z" fill="#000b0e" stroke="#000b0e"></path><path d="M254 590.3L286 596.3L257 537.4Z" fill="#00090d" stroke="#00090d"></path><path d="M286 596.3L278 600L347 610.1Z" fill="#000000" stroke="#000000"></path><path d="M838 264.1L818 205.6L813 210.3Z" fill="#000d10" stroke="#000d10"></path><path d="M813 210.3L818 205.6L799 175.7Z" fill="#011114" stroke="#011114"></path><path d="M826 103.6L745 84.7L785 151.4Z" fill="#011114" stroke="#011114"></path><path d="M723 0L716 0L745 84.7Z" fill="#011114" stroke="#011114"></path><path d="M730 600L719 551.4L671 566.3Z" fill="#000d10" stroke="#000d10"></path><path d="M671 566.3L719 551.4L652 532.3Z" fill="#00090d" stroke="#00090d"></path><path d="M805 544.3L815 462.4L750 469.7Z" fill="#000d10" stroke="#000d10"></path><path d="M155 495.6L257 537.4L178 443.3Z" fill="#000b0e" stroke="#000b0e"></path><path d="M127 383.9L111 400.9L142 421.9Z" fill="#00070b" stroke="#00070b"></path><path d="M109 464.7L155 495.6L178 443.3Z" fill="#00090d" stroke="#00090d"></path><path d="M63 366.9L111 400.9L127 383.9Z" fill="#011013" stroke="#011013"></path><path d="M109 464.7L178 443.3L142 421.9Z" fill="#000b0e" stroke="#000b0e"></path><path d="M301 0L228 0L230 28.7Z" fill="#000508" stroke="#000508"></path><path d="M230 28.7L199 0L200 68.9Z" fill="#011114" stroke="#011114"></path><path d="M216 -7.3L228 0L301 0Z" fill="#000d10" stroke="#000d10"></path><path d="M826 301L838 264.1L779 299.3Z" fill="#000d10" stroke="#000d10"></path><path d="M843 296.9L838 264.1L826 301Z" fill="#000000" stroke="#000000"></path><path d="M132 35.9L145 91.6L200 68.9Z" fill="#00090d" stroke="#00090d"></path><path d="M160 107.6L100 142.7L172 157.1Z" fill="#021315" stroke="#021315"></path><path d="M129 250.3L66 298.1L141 317.7Z" fill="#000b0e" stroke="#000b0e"></path><path d="M100 142.7L172 205.4L172 157.1Z" fill="#011013" stroke="#011013"></path><path d="M116 340.6L63 366.9L127 383.9Z" fill="#000508" stroke="#000508"></path><path d="M168 537.1L200 557.1L257 537.4Z" fill="#000f11" stroke="#000f11"></path><path d="M871 320L841 314.7L817 356.1Z" fill="#000508" stroke="#000508"></path><path d="M817 356.1L841 314.7L807 345.6Z" fill="#011013" stroke="#011013"></path><path d="M841 314.7L843 296.9L826 301Z" fill="#000508" stroke="#000508"></path><path d="M200 557.1L241 600L254 590.3Z" fill="#000508" stroke="#000508"></path><path d="M254 590.3L241 600L278 600Z" fill="#021416" stroke="#021416"></path><path d="M278 600L241 600L347 610.1Z" fill="#000b0e" stroke="#000b0e"></path><path d="M347 610.1L0 620.1L486 627.1Z" fill="#011114" stroke="#011114"></path><path d="M745 84.7L716 0L675 76.9Z" fill="#021315" stroke="#021315"></path><path d="M655 0L745 -44.1L635 -5.3Z" fill="#000b0e" stroke="#000b0e"></path><path d="M723 0L790 0L779 -9.3Z" fill="#00090d" stroke="#00090d"></path><path d="M155 495.6L168 537.1L257 537.4Z" fill="#011114" stroke="#011114"></path><path d="M200 557.1L217 600L241 600Z" fill="#00070b" stroke="#00070b"></path><path d="M113 495.4L168 537.1L155 495.6Z" fill="#00070b" stroke="#00070b"></path><path d="M173 -24.1L301 0L329 0Z" fill="#00090d" stroke="#00090d"></path><path d="M228 0L199 0L230 28.7Z" fill="#021416" stroke="#021416"></path><path d="M173 -24.1L329 0L481 -5.1Z" fill="#021315" stroke="#021315"></path><path d="M716 0L714 -11.1L655 0Z" fill="#000508" stroke="#000508"></path><path d="M830 124.3L785 151.4L799 175.7Z" fill="#00070b" stroke="#00070b"></path><path d="M723 0L714 -11.1L716 0Z" fill="#00070b" stroke="#00070b"></path><path d="M635 -5.3L745 -44.1L594 0Z" fill="#011114" stroke="#011114"></path><path d="M846 477.3L815 462.4L805 544.3Z" fill="#000b0e" stroke="#000b0e"></path><path d="M786 442.4L815 462.4L798 398Z" fill="#011114" stroke="#011114"></path><path d="M216 -7.3L199 0L228 0Z" fill="#000d10" stroke="#000d10"></path><path d="M89 150.7L100 142.7L65 110.4Z" fill="#021416" stroke="#021416"></path><path d="M105 108.4L100 142.7L160 107.6Z" fill="#021416" stroke="#021416"></path><path d="M92 464.1L109 464.7L86 452.7Z" fill="#021416" stroke="#021416"></path><path d="M111 400.9L109 464.7L142 421.9Z" fill="#011013" stroke="#011013"></path><path d="M179 568.3L200 557.1L168 537.1Z" fill="#000b0e" stroke="#000b0e"></path><path d="M185 600L217 600L200 557.1Z" fill="#011013" stroke="#011013"></path><path d="M241 600L217 600L347 610.1Z" fill="#021416" stroke="#021416"></path><path d="M63 237L66 298.1L91 245Z" fill="#00070b" stroke="#00070b"></path><path d="M91 245L66 298.1L129 250.3Z" fill="#000d10" stroke="#000d10"></path><path d="M111 600L179 568.3L168 537.1Z" fill="#00070b" stroke="#00070b"></path><path d="M105 108.4L160 107.6L145 91.6Z" fill="#000f11" stroke="#000f11"></path><path d="M100 142.7L89 150.7L172 205.4Z" fill="#000b0e" stroke="#000b0e"></path><path d="M845 111.4L830 124.3L881 157.6Z" fill="#000508" stroke="#000508"></path><path d="M881 157.6L830 124.3L799 175.7Z" fill="#000508" stroke="#000508"></path><path d="M723 0L745 -44.1L714 -11.1Z" fill="#000000" stroke="#000000"></path><path d="M799 175.7L818 205.6L881 157.6Z" fill="#021315" stroke="#021315"></path><path d="M94 86.9L105 108.4L145 91.6Z" fill="#021416" stroke="#021416"></path><path d="M60 176.6L63 237L91 245Z" fill="#00090d" stroke="#00090d"></path><path d="M173 -24.1L180 0L199 0Z" fill="#000b0e" stroke="#000b0e"></path><path d="M199 0L180 0L200 68.9Z" fill="#011114" stroke="#011114"></path><path d="M830 124.3L826 103.6L785 151.4Z" fill="#000f11" stroke="#000f11"></path><path d="M87 476.4L113 495.4L109 464.7Z" fill="#011013" stroke="#011013"></path><path d="M109 464.7L113 495.4L155 495.6Z" fill="#000d10" stroke="#000d10"></path><path d="M841 314.7L871 320L843 296.9Z" fill="#011013" stroke="#011013"></path><path d="M843 296.9L900 270.9L838 264.1Z" fill="#000f11" stroke="#000f11"></path><path d="M845 111.4L824 83.4L826 103.6Z" fill="#011013" stroke="#011013"></path><path d="M880 380.6L871 320L817 356.1Z" fill="#000b0e" stroke="#000b0e"></path><path d="M607 600L730 600L671 566.3Z" fill="#011013" stroke="#011013"></path><path d="M719 551.4L805 544.3L738 503.3Z" fill="#00090d" stroke="#00090d"></path><path d="M525 620.1L730 600L607 600Z" fill="#000d10" stroke="#000d10"></path><path d="M800 604.1L730 600L525 620.1Z" fill="#00070b" stroke="#00070b"></path><path d="M10 293L63 366.9L66 298.1Z" fill="#011013" stroke="#011013"></path><path d="M66 298.1L63 366.9L116 340.6Z" fill="#000f11" stroke="#000f11"></path><path d="M86 452.7L109 464.7L111 400.9Z" fill="#000000" stroke="#000000"></path><path d="M58 434.3L86 452.7L111 400.9Z" fill="#000d10" stroke="#000d10"></path><path d="M845 111.4L826 103.6L830 124.3Z" fill="#000000" stroke="#000000"></path><path d="M826 103.6L824 83.4L745 84.7Z" fill="#021416" stroke="#021416"></path><path d="M111 600L185 600L179 568.3Z" fill="#021416" stroke="#021416"></path><path d="M179 568.3L185 600L200 557.1Z" fill="#000f11" stroke="#000f11"></path><path d="M217 600L0 620.1L347 610.1Z" fill="#021315" stroke="#021315"></path><path d="M65 110.4L60 176.6L89 150.7Z" fill="#000508" stroke="#000508"></path><path d="M180 0L132 35.9L200 68.9Z" fill="#000f11" stroke="#000f11"></path><path d="M89 150.7L60 176.6L91 245Z" fill="#000508" stroke="#000508"></path><path d="M0 398L58 434.3L63 366.9Z" fill="#000000" stroke="#000000"></path><path d="M65 110.4L100 142.7L105 108.4Z" fill="#011114" stroke="#011114"></path><path d="M900 185.1L818 205.6L838 264.1Z" fill="#00070b" stroke="#00070b"></path><path d="M92 464.1L87 476.4L109 464.7Z" fill="#00090d" stroke="#00090d"></path><path d="M113 495.4L98 518.1L168 537.1Z" fill="#021315" stroke="#021315"></path><path d="M86 452.7L87 476.4L92 464.1Z" fill="#000b0e" stroke="#000b0e"></path><path d="M58 434.3L87 476.4L86 452.7Z" fill="#000f11" stroke="#000f11"></path><path d="M132 35.9L94 86.9L145 91.6Z" fill="#000f11" stroke="#000f11"></path><path d="M800 604.1L755 597.3L730 600Z" fill="#021416" stroke="#021416"></path><path d="M730 600L755 597.3L719 551.4Z" fill="#021416" stroke="#021416"></path><path d="M805 544.3L750 469.7L738 503.3Z" fill="#011114" stroke="#011114"></path><path d="M870 434.4L880 380.6L798 398Z" fill="#000d10" stroke="#000d10"></path><path d="M755 597.3L805 544.3L719 551.4Z" fill="#021416" stroke="#021416"></path><path d="M870 434.4L798 398L815 462.4Z" fill="#021315" stroke="#021315"></path><path d="M871 320L900 288.3L843 296.9Z" fill="#000b0e" stroke="#000b0e"></path><path d="M216 -7.3L173 -24.1L199 0Z" fill="#000000" stroke="#000000"></path><path d="M180 0L137 0L132 35.9Z" fill="#000b0e" stroke="#000b0e"></path><path d="M132 35.9L84 57.9L94 86.9Z" fill="#021315" stroke="#021315"></path><path d="M745 -44.1L173 -24.1L481 -5.1Z" fill="#00090d" stroke="#00090d"></path><path d="M846 477.3L870 434.4L815 462.4Z" fill="#00090d" stroke="#00090d"></path><path d="M63 366.9L58 434.3L111 400.9Z" fill="#000f11" stroke="#000f11"></path><path d="M10 293L66 298.1L63 237Z" fill="#000d10" stroke="#000d10"></path><path d="M15 508.6L98 518.1L87 476.4Z" fill="#011114" stroke="#011114"></path><path d="M87 476.4L98 518.1L113 495.4Z" fill="#021416" stroke="#021416"></path><path d="M790 0L723 0L745 84.7Z" fill="#00070b" stroke="#00070b"></path><path d="M790 0L745 84.7L824 83.4Z" fill="#000d10" stroke="#000d10"></path><path d="M900 360.7L871 320L880 380.6Z" fill="#011114" stroke="#011114"></path><path d="M924 338.7L900 288.3L871 320Z" fill="#000508" stroke="#000508"></path><path d="M862 0L790 0L824 83.4Z" fill="#000d10" stroke="#000d10"></path><path d="M865 -10.3L745 -44.1L779 -9.3Z" fill="#000508" stroke="#000508"></path><path d="M779 -9.3L745 -44.1L723 0Z" fill="#000f11" stroke="#000f11"></path><path d="M714 -11.1L745 -44.1L655 0Z" fill="#021315" stroke="#021315"></path><path d="M900 288.3L900 270.9L843 296.9Z" fill="#00070b" stroke="#00070b"></path><path d="M900 185.1L881 157.6L818 205.6Z" fill="#011114" stroke="#011114"></path><path d="M845 111.4L879 54.9L824 83.4Z" fill="#021416" stroke="#021416"></path><path d="M173 -24.1L137 0L180 0Z" fill="#000508" stroke="#000508"></path><path d="M84 57.9L65 110.4L94 86.9Z" fill="#000000" stroke="#000000"></path><path d="M94 86.9L65 110.4L105 108.4Z" fill="#021315" stroke="#021315"></path><path d="M900 390L900 360.7L880 380.6Z" fill="#000d10" stroke="#000d10"></path><path d="M65 110.4L37 173.6L60 176.6Z" fill="#000b0e" stroke="#000b0e"></path><path d="M60 176.6L37 173.6L63 237Z" fill="#011013" stroke="#011013"></path><path d="M114 0L84 57.9L132 35.9Z" fill="#00090d" stroke="#00090d"></path><path d="M0 163.1L0 192.6L37 173.6Z" fill="#00090d" stroke="#00090d"></path><path d="M900 402.6L900 390L880 380.6Z" fill="#00070b" stroke="#00070b"></path><path d="M900 402.6L880 380.6L870 434.4Z" fill="#000508" stroke="#000508"></path><path d="M900 402.6L870 434.4L900 444.3Z" fill="#000d10" stroke="#000d10"></path><path d="M900 270.9L900 185.1L838 264.1Z" fill="#000b0e" stroke="#000b0e"></path><path d="M881 157.6L900 124.6L845 111.4Z" fill="#011013" stroke="#011013"></path><path d="M900 444.3L870 434.4L900 459.4Z" fill="#021416" stroke="#021416"></path><path d="M0 276.9L10 293L63 237Z" fill="#000000" stroke="#000000"></path><path d="M173 -24.1L114 0L137 0Z" fill="#000d10" stroke="#000d10"></path><path d="M137 0L114 0L132 35.9Z" fill="#000000" stroke="#000000"></path><path d="M486 627.1L800 604.1L525 620.1Z" fill="#00070b" stroke="#00070b"></path><path d="M755 597.3L800 604.1L805 544.3Z" fill="#000508" stroke="#000508"></path><path d="M900 475.1L900 459.4L846 477.3Z" fill="#00070b" stroke="#00070b"></path><path d="M900 402.6L924 338.7L900 390Z" fill="#011013" stroke="#011013"></path><path d="M900 390L924 338.7L900 360.7Z" fill="#00090d" stroke="#00090d"></path><path d="M900 360.7L924 338.7L871 320Z" fill="#00070b" stroke="#00070b"></path><path d="M900 288.3L924 338.7L900 270.9Z" fill="#000b0e" stroke="#000b0e"></path><path d="M900 270.9L924 338.7L900 185.1Z" fill="#011013" stroke="#011013"></path><path d="M900 459.4L870 434.4L846 477.3Z" fill="#000d10" stroke="#000d10"></path><path d="M900 402.6L900 444.3L924 338.7Z" fill="#011013" stroke="#011013"></path><path d="M0 192.6L0 276.9L63 237Z" fill="#000d10" stroke="#000d10"></path><path d="M10 293L0 375.4L63 366.9Z" fill="#021315" stroke="#021315"></path><path d="M924 338.7L900 124.6L900 185.1Z" fill="#00070b" stroke="#00070b"></path><path d="M900 185.1L900 124.6L881 157.6Z" fill="#021315" stroke="#021315"></path><path d="M848 563.1L846 477.3L805 544.3Z" fill="#021416" stroke="#021416"></path><path d="M900 444.3L900 459.4L924 338.7Z" fill="#00070b" stroke="#00070b"></path><path d="M98 518.1L111 600L168 537.1Z" fill="#000d10" stroke="#000d10"></path><path d="M185 600L0 620.1L217 600Z" fill="#00090d" stroke="#00090d"></path><path d="M94 600L111 600L98 518.1Z" fill="#00090d" stroke="#00090d"></path><path d="M8 488.4L87 476.4L58 434.3Z" fill="#000f11" stroke="#000f11"></path><path d="M800 604.1L848 563.1L805 544.3Z" fill="#00090d" stroke="#00090d"></path><path d="M0 276.9L0 375.4L10 293Z" fill="#000b0e" stroke="#000b0e"></path><path d="M900 549.1L900 475.1L846 477.3Z" fill="#000b0e" stroke="#000b0e"></path><path d="M900 459.4L900 475.1L924 338.7Z" fill="#011013" stroke="#011013"></path><path d="M37 173.6L0 192.6L63 237Z" fill="#000508" stroke="#000508"></path><path d="M0 163.1L37 173.6L0 121.3Z" fill="#021315" stroke="#021315"></path><path d="M0 163.1L0 121.3L-8 157.3Z" fill="#011013" stroke="#011013"></path><path d="M900 95.4L879 54.9L845 111.4Z" fill="#021416" stroke="#021416"></path><path d="M790 0L865 -10.3L779 -9.3Z" fill="#011114" stroke="#011114"></path><path d="M924 338.7L900 95.4L900 124.6Z" fill="#000508" stroke="#000508"></path><path d="M900 124.6L900 95.4L845 111.4Z" fill="#021315" stroke="#021315"></path><path d="M0 375.4L0 398L63 366.9Z" fill="#021416" stroke="#021416"></path><path d="M900 70.7L880 53.7L879 54.9Z" fill="#021416" stroke="#021416"></path><path d="M879 54.9L862 0L824 83.4Z" fill="#000f11" stroke="#000f11"></path><path d="M0 398L0 409.7L58 434.3Z" fill="#000b0e" stroke="#000b0e"></path><path d="M37 173.6L65 110.4L0 121.3Z" fill="#00090d" stroke="#00090d"></path><path d="M0 409.7L0 422.6L58 434.3Z" fill="#000508" stroke="#000508"></path><path d="M45 584.3L94 600L98 518.1Z" fill="#021416" stroke="#021416"></path><path d="M111 600L0 620.1L185 600Z" fill="#011013" stroke="#011013"></path><path d="M924 338.7L900 70.7L900 95.4Z" fill="#00090d" stroke="#00090d"></path><path d="M900 95.4L900 70.7L879 54.9Z" fill="#000508" stroke="#000508"></path><path d="M800 604.1L841 600L848 563.1Z" fill="#00090d" stroke="#00090d"></path><path d="M848 563.1L900 549.1L846 477.3Z" fill="#011114" stroke="#011114"></path><path d="M0 121.3L65 110.4L0 120.7Z" fill="#00090d" stroke="#00090d"></path><path d="M0 163.1L-8 157.3L0 192.6Z" fill="#00090d" stroke="#00090d"></path><path d="M0 192.6L-41 198.1L0 276.9Z" fill="#000508" stroke="#000508"></path><path d="M-41 198.1L-20 454.6L0 375.4Z" fill="#011114" stroke="#011114"></path><path d="M0 375.4L-20 454.6L0 398Z" fill="#011013" stroke="#011013"></path><path d="M0 398L-20 454.6L0 409.7Z" fill="#021416" stroke="#021416"></path><path d="M0 409.7L-20 454.6L0 422.6Z" fill="#000508" stroke="#000508"></path><path d="M865 -10.3L862 0L891 -2.1Z" fill="#00090d" stroke="#00090d"></path><path d="M880 53.7L862 0L879 54.9Z" fill="#000f11" stroke="#000f11"></path><path d="M0 120.7L65 110.4L0 107.4Z" fill="#000b0e" stroke="#000b0e"></path><path d="M0 107.4L65 110.4L84 57.9Z" fill="#00070b" stroke="#00070b"></path><path d="M0 121.3L0 120.7L-8 157.3Z" fill="#021416" stroke="#021416"></path><path d="M0 422.6L8 488.4L58 434.3Z" fill="#011114" stroke="#011114"></path><path d="M-17 31.7L0 107.4L84 57.9Z" fill="#000d10" stroke="#000d10"></path><path d="M0 120.7L-41 198.1L-8 157.3Z" fill="#000508" stroke="#000508"></path><path d="M8 488.4L15 508.6L87 476.4Z" fill="#000d10" stroke="#000d10"></path><path d="M900 17.9L862 0L880 53.7Z" fill="#011114" stroke="#011114"></path><path d="M862 0L865 -10.3L790 0Z" fill="#000000" stroke="#000000"></path><path d="M878 600L900 549.1L848 563.1Z" fill="#000b0e" stroke="#000b0e"></path><path d="M900 475.1L900 549.1L924 338.7Z" fill="#00090d" stroke="#00090d"></path><path d="M114 0L46 0L84 57.9Z" fill="#021315" stroke="#021315"></path><path d="M173 -24.1L46 0L114 0Z" fill="#011013" stroke="#011013"></path><path d="M-20 454.6L0 503.3L8 488.4Z" fill="#021315" stroke="#021315"></path><path d="M8 488.4L0 503.3L15 508.6Z" fill="#000000" stroke="#000000"></path><path d="M15 508.6L45 584.3L98 518.1Z" fill="#021416" stroke="#021416"></path><path d="M-20 454.6L8 488.4L0 422.6Z" fill="#000d10" stroke="#000d10"></path><path d="M-41 198.1L0 375.4L0 276.9Z" fill="#000d10" stroke="#000d10"></path><path d="M0 600L45 584.3L15 508.6Z" fill="#021416" stroke="#021416"></path><path d="M924 338.7L900 17.9L900 70.7Z" fill="#000508" stroke="#000508"></path><path d="M900 70.7L900 17.9L880 53.7Z" fill="#011013" stroke="#011013"></path><path d="M0 107.4L-41 198.1L0 120.7Z" fill="#00070b" stroke="#00070b"></path><path d="M-8 157.3L-41 198.1L0 192.6Z" fill="#00070b" stroke="#00070b"></path><path d="M-17 31.7L-41 198.1L0 107.4Z" fill="#000000" stroke="#000000"></path><path d="M841 600L875 600L848 563.1Z" fill="#011114" stroke="#011114"></path><path d="M800 604.1L875 600L841 600Z" fill="#00090d" stroke="#00090d"></path><path d="M878 600L875 600L800 604.1Z" fill="#011114" stroke="#011114"></path><path d="M900 17.9L891 -2.1L862 0Z" fill="#021315" stroke="#021315"></path><path d="M900 600L878 600L800 604.1Z" fill="#00070b" stroke="#00070b"></path><path d="M875 600L878 600L848 563.1Z" fill="#000f11" stroke="#000f11"></path><path d="M924 338.7L900 0L900 17.9Z" fill="#021416" stroke="#021416"></path><path d="M900 17.9L900 0L891 -2.1Z" fill="#021416" stroke="#021416"></path><path d="M891 -2.1L900 0L865 -10.3Z" fill="#000f11" stroke="#000f11"></path><path d="M0 600L42 600L45 584.3Z" fill="#011013" stroke="#011013"></path><path d="M45 584.3L42 600L94 600Z" fill="#00070b" stroke="#00070b"></path><path d="M94 600L0 620.1L111 600Z" fill="#00090d" stroke="#00090d"></path><path d="M486 627.1L900 600L800 604.1Z" fill="#011114" stroke="#011114"></path><path d="M878 600L900 600L900 549.1Z" fill="#000b0e" stroke="#000b0e"></path><path d="M900 549.1L900 600L924 338.7Z" fill="#021416" stroke="#021416"></path><path d="M46 0L-17 31.7L84 57.9Z" fill="#021416" stroke="#021416"></path><path d="M0 -15.1L0 0L46 0Z" fill="#000000" stroke="#000000"></path><path d="M46 0L0 0L-17 31.7Z" fill="#000000" stroke="#000000"></path><path d="M173 -24.1L0 -15.1L46 0Z" fill="#00070b" stroke="#00070b"></path><path d="M0 0L0 -15.1L-17 31.7Z" fill="#000b0e" stroke="#000b0e"></path><path d="M-20 454.6L0 600L0 503.3Z" fill="#021315" stroke="#021315"></path><path d="M0 503.3L0 600L15 508.6Z" fill="#000508" stroke="#000508"></path><path d="M42 600L0 620.1L94 600Z" fill="#000b0e" stroke="#000b0e"></path><path d="M-20 454.6L0 620.1L0 600Z" fill="#000d10" stroke="#000d10"></path><path d="M0 600L0 620.1L42 600Z" fill="#021416" stroke="#021416"></path></g></svg>