<svg id="visual" viewBox="0 0 900 600" width="900" height="600" xmlns="http://www.w3.org/2000/svg" xmlns:xlink="http://www.w3.org/1999/xlink" version="1.1"><g stroke-width="1" stroke-linejoin="bevel"><path d="M417 275L384 199L334 296Z" fill="#e4e4e4" stroke="#e4e4e4"></path><path d="M384 199L296 195L334 296Z" fill="#d2d2d2" stroke="#d2d2d2"></path><path d="M334 296L401 369L417 275Z" fill="#d0d0d0" stroke="#d0d0d0"></path><path d="M401 369L491 328L417 275Z" fill="#d9d9d9" stroke="#d9d9d9"></path><path d="M417 275L513 176L384 199Z" fill="#d0d0d0" stroke="#d0d0d0"></path><path d="M188 272L279 384L334 296Z" fill="#d9d9d9" stroke="#d9d9d9"></path><path d="M334 296L279 384L401 369Z" fill="#e4e4e4" stroke="#e4e4e4"></path><path d="M292 107L223 181L296 195Z" fill="#dddddd" stroke="#dddddd"></path><path d="M296 195L188 272L334 296Z" fill="#dbdbdb" stroke="#dbdbdb"></path><path d="M384 199L292 107L296 195Z" fill="#e4e4e4" stroke="#e4e4e4"></path><path d="M564 232L513 176L417 275Z" fill="#e2e2e2" stroke="#e2e2e2"></path><path d="M384 199L429 67L292 107Z" fill="#dbdbdb" stroke="#dbdbdb"></path><path d="M223 181L188 272L296 195Z" fill="#d7d7d7" stroke="#d7d7d7"></path><path d="M401 369L527 361L491 328Z" fill="#e6e6e6" stroke="#e6e6e6"></path><path d="M491 328L564 232L417 275Z" fill="#e2e2e2" stroke="#e2e2e2"></path><path d="M485 497L527 361L401 369Z" fill="#d0d0d0" stroke="#d0d0d0"></path><path d="M513 176L429 67L384 199Z" fill="#e6e6e6" stroke="#e6e6e6"></path><path d="M527 361L564 232L491 328Z" fill="#e6e6e6" stroke="#e6e6e6"></path><path d="M513 176L518 72L429 67Z" fill="#d0d0d0" stroke="#d0d0d0"></path><path d="M188 272L226 429L279 384Z" fill="#d4d4d4" stroke="#d4d4d4"></path><path d="M279 384L375 522L401 369Z" fill="#d7d7d7" stroke="#d7d7d7"></path><path d="M628 108L518 72L513 176Z" fill="#d7d7d7" stroke="#d7d7d7"></path><path d="M299 0L204 75L292 107Z" fill="#dddddd" stroke="#dddddd"></path><path d="M292 107L204 75L223 181Z" fill="#d2d2d2" stroke="#d2d2d2"></path><path d="M223 181L112 236L188 272Z" fill="#d7d7d7" stroke="#d7d7d7"></path><path d="M495 0L393 0L429 67Z" fill="#d7d7d7" stroke="#d7d7d7"></path><path d="M429 67L393 0L292 107Z" fill="#d9d9d9" stroke="#d9d9d9"></path><path d="M93 71L112 236L223 181Z" fill="#dfdfdf" stroke="#dfdfdf"></path><path d="M87 389L192 460L226 429Z" fill="#d2d2d2" stroke="#d2d2d2"></path><path d="M393 0L299 0L292 107Z" fill="#dfdfdf" stroke="#dfdfdf"></path><path d="M192 460L261 492L226 429Z" fill="#d0d0d0" stroke="#d0d0d0"></path><path d="M226 429L261 492L279 384Z" fill="#dbdbdb" stroke="#dbdbdb"></path><path d="M527 361L635 260L564 232Z" fill="#e6e6e6" stroke="#e6e6e6"></path><path d="M564 232L628 108L513 176Z" fill="#e4e4e4" stroke="#e4e4e4"></path><path d="M261 492L375 522L279 384Z" fill="#dfdfdf" stroke="#dfdfdf"></path><path d="M527 361L632 431L635 260Z" fill="#dfdfdf" stroke="#dfdfdf"></path><path d="M98 311L226 429L188 272Z" fill="#d7d7d7" stroke="#d7d7d7"></path><path d="M375 522L485 497L401 369Z" fill="#e4e4e4" stroke="#e4e4e4"></path><path d="M112 236L98 311L188 272Z" fill="#d4d4d4" stroke="#d4d4d4"></path><path d="M603 0L495 0L518 72Z" fill="#dddddd" stroke="#dddddd"></path><path d="M518 72L495 0L429 67Z" fill="#e4e4e4" stroke="#e4e4e4"></path><path d="M635 260L628 108L564 232Z" fill="#e6e6e6" stroke="#e6e6e6"></path><path d="M299 0L191 0L204 75Z" fill="#dbdbdb" stroke="#dbdbdb"></path><path d="M204 75L93 71L223 181Z" fill="#d0d0d0" stroke="#d0d0d0"></path><path d="M98 311L87 389L226 429Z" fill="#d4d4d4" stroke="#d4d4d4"></path><path d="M629 461L632 431L527 361Z" fill="#dfdfdf" stroke="#dfdfdf"></path><path d="M139 0L93 71L204 75Z" fill="#d2d2d2" stroke="#d2d2d2"></path><path d="M112 236L0 296L98 311Z" fill="#d4d4d4" stroke="#d4d4d4"></path><path d="M98 311L0 362L87 389Z" fill="#dbdbdb" stroke="#dbdbdb"></path><path d="M485 497L629 461L527 361Z" fill="#d9d9d9" stroke="#d9d9d9"></path><path d="M708 331L700 199L635 260Z" fill="#d2d2d2" stroke="#d2d2d2"></path><path d="M635 260L700 199L628 108Z" fill="#d4d4d4" stroke="#d4d4d4"></path><path d="M708 331L635 260L632 431Z" fill="#e6e6e6" stroke="#e6e6e6"></path><path d="M191 0L139 0L204 75Z" fill="#d9d9d9" stroke="#d9d9d9"></path><path d="M87 389L130 501L192 460Z" fill="#dddddd" stroke="#dddddd"></path><path d="M192 460L224 600L261 492Z" fill="#d7d7d7" stroke="#d7d7d7"></path><path d="M261 492L325 600L375 522Z" fill="#e6e6e6" stroke="#e6e6e6"></path><path d="M683 0L603 0L628 108Z" fill="#d7d7d7" stroke="#d7d7d7"></path><path d="M628 108L603 0L518 72Z" fill="#dfdfdf" stroke="#dfdfdf"></path><path d="M737 437L708 331L632 431Z" fill="#d0d0d0" stroke="#d0d0d0"></path><path d="M375 522L431 600L485 497Z" fill="#d7d7d7" stroke="#d7d7d7"></path><path d="M485 497L568 600L629 461Z" fill="#dbdbdb" stroke="#dbdbdb"></path><path d="M224 600L325 600L261 492Z" fill="#dbdbdb" stroke="#dbdbdb"></path><path d="M325 600L431 600L375 522Z" fill="#e4e4e4" stroke="#e4e4e4"></path><path d="M431 600L464 600L485 497Z" fill="#e6e6e6" stroke="#e6e6e6"></path><path d="M0 186L0 296L112 236Z" fill="#e2e2e2" stroke="#e2e2e2"></path><path d="M87 389L0 502L130 501Z" fill="#d9d9d9" stroke="#d9d9d9"></path><path d="M0 138L112 236L93 71Z" fill="#dddddd" stroke="#dddddd"></path><path d="M0 138L0 186L112 236Z" fill="#d0d0d0" stroke="#d0d0d0"></path><path d="M130 501L224 600L192 460Z" fill="#dfdfdf" stroke="#dfdfdf"></path><path d="M700 199L726 120L628 108Z" fill="#d9d9d9" stroke="#d9d9d9"></path><path d="M770 193L726 120L700 199Z" fill="#e2e2e2" stroke="#e2e2e2"></path><path d="M0 296L0 362L98 311Z" fill="#e4e4e4" stroke="#e4e4e4"></path><path d="M0 0L0 138L93 71Z" fill="#dbdbdb" stroke="#dbdbdb"></path><path d="M464 600L568 600L485 497Z" fill="#e6e6e6" stroke="#e6e6e6"></path><path d="M629 461L737 437L632 431Z" fill="#dddddd" stroke="#dddddd"></path><path d="M726 120L683 0L628 108Z" fill="#e4e4e4" stroke="#e4e4e4"></path><path d="M781 324L770 193L700 199Z" fill="#e6e6e6" stroke="#e6e6e6"></path><path d="M726 120L772 69L683 0Z" fill="#d9d9d9" stroke="#d9d9d9"></path><path d="M673 533L737 437L629 461Z" fill="#d7d7d7" stroke="#d7d7d7"></path><path d="M708 331L781 324L700 199Z" fill="#dddddd" stroke="#dddddd"></path><path d="M568 600L673 533L629 461Z" fill="#e4e4e4" stroke="#e4e4e4"></path><path d="M0 600L133 600L130 501Z" fill="#dbdbdb" stroke="#dbdbdb"></path><path d="M130 501L133 600L224 600Z" fill="#d7d7d7" stroke="#d7d7d7"></path><path d="M737 437L781 324L708 331Z" fill="#dbdbdb" stroke="#dbdbdb"></path><path d="M0 362L0 502L87 389Z" fill="#d0d0d0" stroke="#d0d0d0"></path><path d="M805 0L772 69L900 65Z" fill="#d2d2d2" stroke="#d2d2d2"></path><path d="M770 193L772 69L726 120Z" fill="#dbdbdb" stroke="#dbdbdb"></path><path d="M139 0L0 0L93 71Z" fill="#dfdfdf" stroke="#dfdfdf"></path><path d="M673 533L801 529L737 437Z" fill="#d4d4d4" stroke="#d4d4d4"></path><path d="M737 437L835 396L781 324Z" fill="#d9d9d9" stroke="#d9d9d9"></path><path d="M568 600L703 600L673 533Z" fill="#d0d0d0" stroke="#d0d0d0"></path><path d="M801 529L835 396L737 437Z" fill="#dbdbdb" stroke="#dbdbdb"></path><path d="M781 324L900 208L770 193Z" fill="#d9d9d9" stroke="#d9d9d9"></path><path d="M900 65L772 69L770 193Z" fill="#d2d2d2" stroke="#d2d2d2"></path><path d="M772 69L805 0L683 0Z" fill="#dbdbdb" stroke="#dbdbdb"></path><path d="M0 502L0 600L130 501Z" fill="#d4d4d4" stroke="#d4d4d4"></path><path d="M703 600L801 529L673 533Z" fill="#d9d9d9" stroke="#d9d9d9"></path><path d="M900 317L781 324L835 396Z" fill="#d2d2d2" stroke="#d2d2d2"></path><path d="M900 317L900 208L781 324Z" fill="#d7d7d7" stroke="#d7d7d7"></path><path d="M900 401L900 317L835 396Z" fill="#d7d7d7" stroke="#d7d7d7"></path><path d="M900 507L900 401L835 396Z" fill="#d9d9d9" stroke="#d9d9d9"></path><path d="M900 208L900 65L770 193Z" fill="#d0d0d0" stroke="#d0d0d0"></path><path d="M703 600L814 600L801 529Z" fill="#e6e6e6" stroke="#e6e6e6"></path><path d="M801 529L900 507L835 396Z" fill="#d0d0d0" stroke="#d0d0d0"></path><path d="M900 65L900 0L805 0Z" fill="#d2d2d2" stroke="#d2d2d2"></path><path d="M900 600L900 507L801 529Z" fill="#dddddd" stroke="#dddddd"></path><path d="M814 600L900 600L801 529Z" fill="#dddddd" stroke="#dddddd"></path></g></svg>