<svg id="visual" viewBox="0 0 900 600" width="900" height="600" xmlns="http://www.w3.org/2000/svg" xmlns:xlink="http://www.w3.org/1999/xlink" version="1.1"><path d="M773 600L746 450L773 300L818 150L773 0L900 0L900 150L900 300L900 450L900 600Z" fill="#290438"></path><path d="M656 600L620 450L665 300L719 150L683 0L774 0L819 150L774 300L747 450L774 600Z" fill="#280433"></path><path d="M449 600L431 450L530 300L557 150L494 0L684 0L720 150L666 300L621 450L657 600Z" fill="#26042e"></path><path d="M386 600L386 450L485 300L485 150L449 0L495 0L558 150L531 300L432 450L450 600Z" fill="#240429"></path><path d="M341 600L332 450L413 300L404 150L386 0L450 0L486 150L486 300L387 450L387 600Z" fill="#220424"></path><path d="M278 600L296 450L350 300L350 150L323 0L387 0L405 150L414 300L333 450L342 600Z" fill="#20031f"></path><path d="M215 600L215 450L260 300L287 150L269 0L324 0L351 150L351 300L297 450L279 600Z" fill="#1e031b"></path><path d="M35 600L53 450L35 300L35 150L62 0L270 0L288 150L261 300L216 450L216 600Z" fill="#1b0217"></path><path d="M0 600L0 450L0 300L0 150L0 0L63 0L36 150L36 300L54 450L36 600Z" fill="#170213"></path></svg>