<svg id="visual" viewBox="0 0 900 600" width="900" height="600" xmlns="http://www.w3.org/2000/svg" xmlns:xlink="http://www.w3.org/1999/xlink" version="1.1"><rect x="0" y="0" width="900" height="600" fill="#484a4b"></rect><defs><linearGradient id="grad1_0" x1="33.3%" y1="100%" x2="100%" y2="0%"><stop offset="20%" stop-color="#484a4b" stop-opacity="1"></stop><stop offset="80%" stop-color="#484a4b" stop-opacity="1"></stop></linearGradient></defs><defs><linearGradient id="grad2_0" x1="0%" y1="100%" x2="66.7%" y2="0%"><stop offset="20%" stop-color="#484a4b" stop-opacity="1"></stop><stop offset="80%" stop-color="#484a4b" stop-opacity="1"></stop></linearGradient></defs><g transform="translate(900, 600)"><path d="M-432.7 0C-395.3 -60.2 -357.9 -120.4 -326.5 -188.5C-295.1 -256.6 -269.7 -332.7 -216.3 -374.7C-162.9 -416.7 -81.5 -424.7 0 -432.7L0 0Z" fill="#1f020d"></path></g><g transform="translate(0, 0)"><path d="M432.7 0C422.8 78.1 412.9 156.2 374.7 216.3C336.5 276.4 270.2 318.6 203 351.6C135.8 384.7 67.9 408.7 0 432.7L0 0Z" fill="#1f020d"></path></g></svg>