<svg id="visual" viewBox="0 0 900 600" width="900" height="600" xmlns="http://www.w3.org/2000/svg" xmlns:xlink="http://www.w3.org/1999/xlink" version="1.1"><rect x="0" y="0" width="900" height="600" fill="#001122"></rect><defs><linearGradient id="grad1_0" x1="33.3%" y1="0%" x2="100%" y2="100%"><stop offset="20%" stop-color="#001122" stop-opacity="1"></stop><stop offset="80%" stop-color="#001122" stop-opacity="1"></stop></linearGradient></defs><defs><linearGradient id="grad2_0" x1="0%" y1="0%" x2="66.7%" y2="100%"><stop offset="20%" stop-color="#001122" stop-opacity="1"></stop><stop offset="80%" stop-color="#001122" stop-opacity="1"></stop></linearGradient></defs><g transform="translate(900, 0)"><path d="M0 324.5C-35.1 302 -70.3 279.5 -110.6 267C-150.9 254.5 -196.5 252 -229.5 229.5C-262.4 206.9 -282.8 164.4 -296.6 122.8C-310.3 81.3 -317.4 40.6 -324.5 0L0 0Z" fill="#FF0066"></path></g><g transform="translate(0, 600)"><path d="M0 -324.5C33 -297.4 66 -270.4 107.2 -258.7C148.3 -247 197.5 -250.7 229.5 -229.5C261.4 -208.3 276.2 -162.2 289.2 -119.8C302.1 -77.4 313.3 -38.7 324.5 0L0 0Z" fill="#FF0066"></path></g></svg>