<svg id="visual" viewBox="0 0 900 600" width="900" height="600" xmlns="http://www.w3.org/2000/svg" xmlns:xlink="http://www.w3.org/1999/xlink" version="1.1"><g stroke-width="1" stroke-linejoin="bevel"><path d="M500 280L481 366L575 294Z" fill="#19262d" stroke="#19262d"></path><path d="M481 366L576 409L575 294Z" fill="#273136" stroke="#273136"></path><path d="M383 305L413 398L481 366Z" fill="#3c4245" stroke="#3c4245"></path><path d="M481 366L539 474L576 409Z" fill="#273136" stroke="#273136"></path><path d="M439 489L539 474L481 366Z" fill="#19262d" stroke="#19262d"></path><path d="M500 280L383 305L481 366Z" fill="#273136" stroke="#273136"></path><path d="M695 378L671 280L575 294Z" fill="#19262d" stroke="#19262d"></path><path d="M575 294L590 183L500 280Z" fill="#43484b" stroke="#43484b"></path><path d="M695 378L575 294L576 409Z" fill="#19262d" stroke="#19262d"></path><path d="M671 280L590 183L575 294Z" fill="#353c40" stroke="#353c40"></path><path d="M500 280L407 202L383 305Z" fill="#43484b" stroke="#43484b"></path><path d="M736 511L695 378L576 409Z" fill="#2e373b" stroke="#2e373b"></path><path d="M590 183L506 160L500 280Z" fill="#202b31" stroke="#202b31"></path><path d="M506 160L407 202L500 280Z" fill="#2e373b" stroke="#2e373b"></path><path d="M474 600L566 509L539 474Z" fill="#273136" stroke="#273136"></path><path d="M539 474L566 509L576 409Z" fill="#43484b" stroke="#43484b"></path><path d="M291 469L439 489L413 398Z" fill="#4a4e50" stroke="#4a4e50"></path><path d="M413 398L439 489L481 366Z" fill="#19262d" stroke="#19262d"></path><path d="M590 183L536 126L506 160Z" fill="#353c40" stroke="#353c40"></path><path d="M506 160L405 80L407 202Z" fill="#2e373b" stroke="#2e373b"></path><path d="M828 279L721 173L671 280Z" fill="#43484b" stroke="#43484b"></path><path d="M671 280L721 173L590 183Z" fill="#202b31" stroke="#202b31"></path><path d="M590 183L572 75L536 126Z" fill="#202b31" stroke="#202b31"></path><path d="M729 128L572 75L590 183Z" fill="#202b31" stroke="#202b31"></path><path d="M536 126L405 80L506 160Z" fill="#202b31" stroke="#202b31"></path><path d="M262 315L285 434L383 305Z" fill="#353c40" stroke="#353c40"></path><path d="M383 305L285 434L413 398Z" fill="#202b31" stroke="#202b31"></path><path d="M282 187L262 315L383 305Z" fill="#273136" stroke="#273136"></path><path d="M474 600L573 600L566 509Z" fill="#273136" stroke="#273136"></path><path d="M566 509L736 511L576 409Z" fill="#4a4e50" stroke="#4a4e50"></path><path d="M474 600L539 474L439 489Z" fill="#122028" stroke="#122028"></path><path d="M728 600L736 511L566 509Z" fill="#122028" stroke="#122028"></path><path d="M695 378L828 279L671 280Z" fill="#202b31" stroke="#202b31"></path><path d="M437 600L474 600L439 489Z" fill="#273136" stroke="#273136"></path><path d="M191 533L291 469L285 434Z" fill="#0b1b23" stroke="#0b1b23"></path><path d="M285 434L291 469L413 398Z" fill="#4a4e50" stroke="#4a4e50"></path><path d="M467 0L405 80L536 126Z" fill="#02161f" stroke="#02161f"></path><path d="M407 202L282 187L383 305Z" fill="#3c4245" stroke="#3c4245"></path><path d="M736 511L770 480L695 378Z" fill="#2e373b" stroke="#2e373b"></path><path d="M337 600L437 600L439 489Z" fill="#273136" stroke="#273136"></path><path d="M772 113L729 128L721 173Z" fill="#0b1b23" stroke="#0b1b23"></path><path d="M721 173L729 128L590 183Z" fill="#3c4245" stroke="#3c4245"></path><path d="M311 89L282 187L407 202Z" fill="#3c4245" stroke="#3c4245"></path><path d="M770 480L804 431L695 378Z" fill="#0b1b23" stroke="#0b1b23"></path><path d="M804 431L828 279L695 378Z" fill="#02161f" stroke="#02161f"></path><path d="M262 315L213 385L285 434Z" fill="#3c4245" stroke="#3c4245"></path><path d="M200 320L213 385L262 315Z" fill="#202b31" stroke="#202b31"></path><path d="M405 80L311 89L407 202Z" fill="#122028" stroke="#122028"></path><path d="M220 182L200 320L262 315Z" fill="#19262d" stroke="#19262d"></path><path d="M829 182L772 113L721 173Z" fill="#273136" stroke="#273136"></path><path d="M729 128L637 0L572 75Z" fill="#3c4245" stroke="#3c4245"></path><path d="M220 182L262 315L282 187Z" fill="#3c4245" stroke="#3c4245"></path><path d="M291 469L337 600L439 489Z" fill="#43484b" stroke="#43484b"></path><path d="M208 600L337 600L291 469Z" fill="#0b1b23" stroke="#0b1b23"></path><path d="M900 526L900 431L804 431Z" fill="#0b1b23" stroke="#0b1b23"></path><path d="M736 511L781 600L770 480Z" fill="#0b1b23" stroke="#0b1b23"></path><path d="M573 600L728 600L566 509Z" fill="#353c40" stroke="#353c40"></path><path d="M828 279L829 182L721 173Z" fill="#19262d" stroke="#19262d"></path><path d="M405 80L321 0L311 89Z" fill="#4a4e50" stroke="#4a4e50"></path><path d="M572 75L467 0L536 126Z" fill="#122028" stroke="#122028"></path><path d="M637 0L467 0L572 75Z" fill="#0b1b23" stroke="#0b1b23"></path><path d="M194 136L220 182L282 187Z" fill="#19262d" stroke="#19262d"></path><path d="M677 0L637 0L729 128Z" fill="#43484b" stroke="#43484b"></path><path d="M467 0L397 0L405 80Z" fill="#3c4245" stroke="#3c4245"></path><path d="M311 89L194 136L282 187Z" fill="#02161f" stroke="#02161f"></path><path d="M772 113L677 0L729 128Z" fill="#02161f" stroke="#02161f"></path><path d="M728 600L781 600L736 511Z" fill="#02161f" stroke="#02161f"></path><path d="M804 431L900 303L828 279Z" fill="#3c4245" stroke="#3c4245"></path><path d="M900 431L900 303L804 431Z" fill="#122028" stroke="#122028"></path><path d="M828 279L900 237L829 182Z" fill="#43484b" stroke="#43484b"></path><path d="M900 303L900 237L828 279Z" fill="#4a4e50" stroke="#4a4e50"></path><path d="M900 67L798 0L772 113Z" fill="#353c40" stroke="#353c40"></path><path d="M772 113L798 0L677 0Z" fill="#122028" stroke="#122028"></path><path d="M900 526L804 431L770 480Z" fill="#43484b" stroke="#43484b"></path><path d="M198 0L194 136L311 89Z" fill="#0b1b23" stroke="#0b1b23"></path><path d="M69 266L122 369L200 320Z" fill="#273136" stroke="#273136"></path><path d="M397 0L321 0L405 80Z" fill="#353c40" stroke="#353c40"></path><path d="M122 369L191 533L213 385Z" fill="#43484b" stroke="#43484b"></path><path d="M213 385L191 533L285 434Z" fill="#122028" stroke="#122028"></path><path d="M122 369L213 385L200 320Z" fill="#0b1b23" stroke="#0b1b23"></path><path d="M69 266L200 320L220 182Z" fill="#19262d" stroke="#19262d"></path><path d="M191 533L208 600L291 469Z" fill="#122028" stroke="#122028"></path><path d="M119 600L208 600L191 533Z" fill="#0b1b23" stroke="#0b1b23"></path><path d="M781 600L900 526L770 480Z" fill="#43484b" stroke="#43484b"></path><path d="M900 67L772 113L829 182Z" fill="#2e373b" stroke="#2e373b"></path><path d="M900 237L900 67L829 182Z" fill="#2e373b" stroke="#2e373b"></path><path d="M781 600L900 600L900 526Z" fill="#122028" stroke="#122028"></path><path d="M61 94L99 162L194 136Z" fill="#202b31" stroke="#202b31"></path><path d="M194 136L99 162L220 182Z" fill="#3c4245" stroke="#3c4245"></path><path d="M99 162L69 266L220 182Z" fill="#273136" stroke="#273136"></path><path d="M62 521L119 600L191 533Z" fill="#3c4245" stroke="#3c4245"></path><path d="M321 0L198 0L311 89Z" fill="#3c4245" stroke="#3c4245"></path><path d="M62 521L191 533L122 369Z" fill="#0b1b23" stroke="#0b1b23"></path><path d="M900 67L900 0L798 0Z" fill="#19262d" stroke="#19262d"></path><path d="M0 375L62 521L122 369Z" fill="#19262d" stroke="#19262d"></path><path d="M99 162L0 195L69 266Z" fill="#19262d" stroke="#19262d"></path><path d="M69 266L0 306L122 369Z" fill="#353c40" stroke="#353c40"></path><path d="M198 0L61 94L194 136Z" fill="#202b31" stroke="#202b31"></path><path d="M0 195L0 306L69 266Z" fill="#122028" stroke="#122028"></path><path d="M0 306L0 375L122 369Z" fill="#02161f" stroke="#02161f"></path><path d="M61 94L0 195L99 162Z" fill="#4a4e50" stroke="#4a4e50"></path><path d="M0 375L0 523L62 521Z" fill="#0b1b23" stroke="#0b1b23"></path><path d="M62 521L0 600L119 600Z" fill="#202b31" stroke="#202b31"></path><path d="M198 0L68 0L61 94Z" fill="#122028" stroke="#122028"></path><path d="M61 94L0 64L0 195Z" fill="#273136" stroke="#273136"></path><path d="M68 0L0 64L61 94Z" fill="#43484b" stroke="#43484b"></path><path d="M0 523L0 600L62 521Z" fill="#273136" stroke="#273136"></path><path d="M68 0L0 0L0 64Z" fill="#273136" stroke="#273136"></path></g></svg>