<svg id="visual" viewBox="0 0 900 600" width="900" height="600" xmlns="http://www.w3.org/2000/svg" xmlns:xlink="http://www.w3.org/1999/xlink" version="1.1"><path d="M0 187L82 187L82 151L164 151L164 199L245 199L245 157L327 157L327 145L409 145L409 127L491 127L491 241L573 241L573 271L655 271L655 109L736 109L736 229L818 229L818 217L900 217L900 151L900 0L900 0L818 0L818 0L736 0L736 0L655 0L655 0L573 0L573 0L491 0L491 0L409 0L409 0L327 0L327 0L245 0L245 0L164 0L164 0L82 0L82 0L0 0Z" fill="#161853"></path><path d="M0 277L82 277L82 199L164 199L164 271L245 271L245 247L327 247L327 229L409 229L409 163L491 163L491 289L573 289L573 325L655 325L655 145L736 145L736 277L818 277L818 253L900 253L900 235L900 149L900 215L818 215L818 227L736 227L736 107L655 107L655 269L573 269L573 239L491 239L491 125L409 125L409 143L327 143L327 155L245 155L245 197L164 197L164 149L82 149L82 185L0 185Z" fill="#35134e"></path><path d="M0 427L82 427L82 433L164 433L164 367L245 367L245 421L327 421L327 385L409 385L409 373L491 373L491 379L573 379L573 433L655 433L655 403L736 403L736 373L818 373L818 457L900 457L900 409L900 233L900 251L818 251L818 275L736 275L736 143L655 143L655 323L573 323L573 287L491 287L491 161L409 161L409 227L327 227L327 245L245 245L245 269L164 269L164 197L82 197L82 275L0 275Z" fill="#490e46"></path><path d="M0 523L82 523L82 523L164 523L164 517L245 517L245 493L327 493L327 511L409 511L409 523L491 523L491 535L573 535L573 553L655 553L655 553L736 553L736 475L818 475L818 559L900 559L900 499L900 407L900 455L818 455L818 371L736 371L736 401L655 401L655 431L573 431L573 377L491 377L491 371L409 371L409 383L327 383L327 419L245 419L245 365L164 365L164 431L82 431L82 425L0 425Z" fill="#570c3d"></path><path d="M0 601L82 601L82 601L164 601L164 601L245 601L245 601L327 601L327 601L409 601L409 601L491 601L491 601L573 601L573 601L655 601L655 601L736 601L736 601L818 601L818 601L900 601L900 601L900 497L900 557L818 557L818 473L736 473L736 551L655 551L655 551L573 551L573 533L491 533L491 521L409 521L409 509L327 509L327 491L245 491L245 515L164 515L164 521L82 521L82 521L0 521Z" fill="#611033"></path></svg>