<svg id="visual" viewBox="0 0 900 600" width="900" height="600" xmlns="http://www.w3.org/2000/svg" xmlns:xlink="http://www.w3.org/1999/xlink" version="1.1"><g stroke-width="1" stroke-linejoin="bevel"><path d="M460 297L465 238L394 272Z" fill="#262b30" stroke="#262b30"></path><path d="M465 238L383 238L394 272Z" fill="#2e363e" stroke="#2e363e"></path><path d="M326 380L405 392L394 272Z" fill="#2b323a" stroke="#2b323a"></path><path d="M394 272L405 392L460 297Z" fill="#292e35" stroke="#292e35"></path><path d="M306 132L312 193L383 238Z" fill="#23272c" stroke="#23272c"></path><path d="M383 238L291 263L394 272Z" fill="#292e35" stroke="#292e35"></path><path d="M312 193L291 263L383 238Z" fill="#37424d" stroke="#37424d"></path><path d="M405 392L501 404L460 297Z" fill="#262b30" stroke="#262b30"></path><path d="M460 297L574 334L465 238Z" fill="#292e35" stroke="#292e35"></path><path d="M501 404L574 334L460 297Z" fill="#292e35" stroke="#292e35"></path><path d="M291 263L326 380L394 272Z" fill="#3a4652" stroke="#3a4652"></path><path d="M583 167L527 127L465 238Z" fill="#3a4652" stroke="#3a4652"></path><path d="M465 238L385 67L383 238Z" fill="#343e48" stroke="#343e48"></path><path d="M574 334L583 167L465 238Z" fill="#3a4652" stroke="#3a4652"></path><path d="M385 67L306 132L383 238Z" fill="#3d4a57" stroke="#3d4a57"></path><path d="M312 193L194 238L291 263Z" fill="#3a4652" stroke="#3a4652"></path><path d="M501 404L571 393L574 334Z" fill="#404e5c" stroke="#404e5c"></path><path d="M726 169L618 134L583 167Z" fill="#3d4a57" stroke="#3d4a57"></path><path d="M527 127L385 67L465 238Z" fill="#37424d" stroke="#37424d"></path><path d="M583 167L618 134L527 127Z" fill="#292e35" stroke="#292e35"></path><path d="M494 0L397 0L385 67Z" fill="#37424d" stroke="#37424d"></path><path d="M688 339L583 167L574 334Z" fill="#3d4a57" stroke="#3d4a57"></path><path d="M405 392L467 497L501 404Z" fill="#3a4652" stroke="#3a4652"></path><path d="M501 404L572 526L571 393Z" fill="#23272c" stroke="#23272c"></path><path d="M421 528L467 497L405 392Z" fill="#292e35" stroke="#292e35"></path><path d="M211 105L194 238L312 193Z" fill="#3a4652" stroke="#3a4652"></path><path d="M291 263L168 326L326 380Z" fill="#37424d" stroke="#37424d"></path><path d="M202 432L325 497L326 380Z" fill="#292e35" stroke="#292e35"></path><path d="M326 380L325 497L405 392Z" fill="#313a43" stroke="#313a43"></path><path d="M325 497L421 528L405 392Z" fill="#404e5c" stroke="#404e5c"></path><path d="M705 379L688 339L571 393Z" fill="#2b323a" stroke="#2b323a"></path><path d="M571 393L688 339L574 334Z" fill="#3d4a57" stroke="#3d4a57"></path><path d="M280 0L211 105L306 132Z" fill="#404e5c" stroke="#404e5c"></path><path d="M306 132L211 105L312 193Z" fill="#23272c" stroke="#23272c"></path><path d="M494 0L385 67L527 127Z" fill="#37424d" stroke="#37424d"></path><path d="M578 0L494 0L527 127Z" fill="#3d4a57" stroke="#3d4a57"></path><path d="M194 238L168 326L291 263Z" fill="#313a43" stroke="#313a43"></path><path d="M280 0L306 132L385 67Z" fill="#2e363e" stroke="#2e363e"></path><path d="M194 238L75 325L168 326Z" fill="#2e363e" stroke="#2e363e"></path><path d="M168 326L202 432L326 380Z" fill="#313a43" stroke="#313a43"></path><path d="M724 518L705 379L571 393Z" fill="#3a4652" stroke="#3a4652"></path><path d="M688 339L726 169L583 167Z" fill="#3d4a57" stroke="#3d4a57"></path><path d="M572 526L501 404L467 497Z" fill="#2e363e" stroke="#2e363e"></path><path d="M476 600L572 526L467 497Z" fill="#23272c" stroke="#23272c"></path><path d="M701 0L578 0L618 134Z" fill="#404e5c" stroke="#404e5c"></path><path d="M618 134L578 0L527 127Z" fill="#2e363e" stroke="#2e363e"></path><path d="M397 0L280 0L385 67Z" fill="#292e35" stroke="#292e35"></path><path d="M790 167L726 169L832 303Z" fill="#343e48" stroke="#343e48"></path><path d="M726 169L720 99L618 134Z" fill="#2b323a" stroke="#2b323a"></path><path d="M368 600L476 600L421 528Z" fill="#343e48" stroke="#343e48"></path><path d="M421 528L476 600L467 497Z" fill="#3a4652" stroke="#3a4652"></path><path d="M368 600L421 528L325 497Z" fill="#262b30" stroke="#262b30"></path><path d="M326 600L368 600L325 497Z" fill="#262b30" stroke="#262b30"></path><path d="M202 432L215 529L325 497Z" fill="#262b30" stroke="#262b30"></path><path d="M77 523L215 529L202 432Z" fill="#2e363e" stroke="#2e363e"></path><path d="M215 529L326 600L325 497Z" fill="#292e35" stroke="#292e35"></path><path d="M476 600L574 600L572 526Z" fill="#404e5c" stroke="#404e5c"></path><path d="M724 518L765 435L705 379Z" fill="#262b30" stroke="#262b30"></path><path d="M68 190L75 325L194 238Z" fill="#404e5c" stroke="#404e5c"></path><path d="M168 326L67 371L202 432Z" fill="#2b323a" stroke="#2b323a"></path><path d="M832 303L726 169L688 339Z" fill="#37424d" stroke="#37424d"></path><path d="M726 169L790 167L720 99Z" fill="#3a4652" stroke="#3a4652"></path><path d="M724 518L571 393L572 526Z" fill="#23272c" stroke="#23272c"></path><path d="M705 379L832 303L688 339Z" fill="#3a4652" stroke="#3a4652"></path><path d="M171 0L117 68L211 105Z" fill="#37424d" stroke="#37424d"></path><path d="M211 105L68 190L194 238Z" fill="#313a43" stroke="#313a43"></path><path d="M280 0L171 0L211 105Z" fill="#404e5c" stroke="#404e5c"></path><path d="M117 68L68 190L211 105Z" fill="#313a43" stroke="#313a43"></path><path d="M837 0L701 0L720 99Z" fill="#404e5c" stroke="#404e5c"></path><path d="M720 99L701 0L618 134Z" fill="#404e5c" stroke="#404e5c"></path><path d="M0 336L67 371L75 325Z" fill="#313a43" stroke="#313a43"></path><path d="M75 325L67 371L168 326Z" fill="#404e5c" stroke="#404e5c"></path><path d="M703 600L724 518L572 526Z" fill="#37424d" stroke="#37424d"></path><path d="M790 167L802 111L720 99Z" fill="#3a4652" stroke="#3a4652"></path><path d="M900 105L802 111L790 167Z" fill="#23272c" stroke="#23272c"></path><path d="M900 393L832 303L765 435Z" fill="#23272c" stroke="#23272c"></path><path d="M765 435L832 303L705 379Z" fill="#3d4a57" stroke="#3d4a57"></path><path d="M171 0L120 0L117 68Z" fill="#3d4a57" stroke="#3d4a57"></path><path d="M0 93L0 165L68 190Z" fill="#313a43" stroke="#313a43"></path><path d="M77 523L173 600L215 529Z" fill="#2e363e" stroke="#2e363e"></path><path d="M215 529L173 600L326 600Z" fill="#2e363e" stroke="#2e363e"></path><path d="M574 600L703 600L572 526Z" fill="#3a4652" stroke="#3a4652"></path><path d="M724 518L826 487L765 435Z" fill="#37424d" stroke="#37424d"></path><path d="M68 190L0 336L75 325Z" fill="#37424d" stroke="#37424d"></path><path d="M67 371L77 523L202 432Z" fill="#2b323a" stroke="#2b323a"></path><path d="M0 165L0 336L68 190Z" fill="#313a43" stroke="#313a43"></path><path d="M0 491L77 523L67 371Z" fill="#37424d" stroke="#37424d"></path><path d="M0 93L68 190L117 68Z" fill="#292e35" stroke="#292e35"></path><path d="M793 600L826 487L724 518Z" fill="#37424d" stroke="#37424d"></path><path d="M0 336L0 391L67 371Z" fill="#343e48" stroke="#343e48"></path><path d="M77 523L114 600L173 600Z" fill="#3a4652" stroke="#3a4652"></path><path d="M0 600L114 600L77 523Z" fill="#343e48" stroke="#343e48"></path><path d="M900 393L900 285L832 303Z" fill="#343e48" stroke="#343e48"></path><path d="M832 303L900 234L790 167Z" fill="#404e5c" stroke="#404e5c"></path><path d="M900 285L900 234L832 303Z" fill="#37424d" stroke="#37424d"></path><path d="M0 0L0 93L117 68Z" fill="#3a4652" stroke="#3a4652"></path><path d="M900 105L837 0L802 111Z" fill="#2b323a" stroke="#2b323a"></path><path d="M802 111L837 0L720 99Z" fill="#2b323a" stroke="#2b323a"></path><path d="M826 487L900 393L765 435Z" fill="#2e363e" stroke="#2e363e"></path><path d="M0 391L0 491L67 371Z" fill="#292e35" stroke="#292e35"></path><path d="M703 600L793 600L724 518Z" fill="#2b323a" stroke="#2b323a"></path><path d="M826 487L900 507L900 393Z" fill="#292e35" stroke="#292e35"></path><path d="M900 234L900 105L790 167Z" fill="#313a43" stroke="#313a43"></path><path d="M120 0L0 0L117 68Z" fill="#343e48" stroke="#343e48"></path><path d="M900 600L900 507L826 487Z" fill="#37424d" stroke="#37424d"></path><path d="M900 105L900 0L837 0Z" fill="#404e5c" stroke="#404e5c"></path><path d="M0 491L0 600L77 523Z" fill="#37424d" stroke="#37424d"></path><path d="M793 600L900 600L826 487Z" fill="#2b323a" stroke="#2b323a"></path></g></svg>