<svg id="visual" viewBox="0 0 900 600" width="900" height="600" xmlns="http://www.w3.org/2000/svg" xmlns:xlink="http://www.w3.org/1999/xlink" version="1.1"><g stroke-width="1" stroke-linejoin="bevel"><path d="M499 260L471 220L426 232Z" fill="#00081c" stroke="#00081c"></path><path d="M426 232L370 334L499 260Z" fill="#00041a" stroke="#00041a"></path><path d="M370 334L432 403L499 260Z" fill="#000c1e" stroke="#000c1e"></path><path d="M370 138L309 260L426 232Z" fill="#00041a" stroke="#00041a"></path><path d="M426 232L309 260L370 334Z" fill="#00061b" stroke="#00061b"></path><path d="M471 220L370 138L426 232Z" fill="#001021" stroke="#001021"></path><path d="M499 260L521 124L471 220Z" fill="#00041a" stroke="#00041a"></path><path d="M471 220L521 124L370 138Z" fill="#001122" stroke="#001122"></path><path d="M602 400L613 305L499 260Z" fill="#00061b" stroke="#00061b"></path><path d="M639 171L562 113L521 124Z" fill="#000d1f" stroke="#000d1f"></path><path d="M432 403L494 435L499 260Z" fill="#001021" stroke="#001021"></path><path d="M639 171L521 124L499 260Z" fill="#000e20" stroke="#000e20"></path><path d="M394 0L303 70L370 138Z" fill="#000000" stroke="#000000"></path><path d="M370 138L260 234L309 260Z" fill="#001021" stroke="#001021"></path><path d="M309 260L318 417L370 334Z" fill="#00041a" stroke="#00041a"></path><path d="M370 334L318 417L432 403Z" fill="#000219" stroke="#000219"></path><path d="M494 435L602 400L499 260Z" fill="#000e20" stroke="#000e20"></path><path d="M613 305L639 171L499 260Z" fill="#001021" stroke="#001021"></path><path d="M682 190L639 171L613 305Z" fill="#000e20" stroke="#000e20"></path><path d="M225 429L318 417L309 260Z" fill="#001021" stroke="#001021"></path><path d="M432 403L437 470L494 435Z" fill="#001021" stroke="#001021"></path><path d="M318 417L437 470L432 403Z" fill="#000c1e" stroke="#000c1e"></path><path d="M494 435L615 503L602 400Z" fill="#00061b" stroke="#00061b"></path><path d="M703 299L682 190L613 305Z" fill="#000a1d" stroke="#000a1d"></path><path d="M606 0L501 0L562 113Z" fill="#001021" stroke="#001021"></path><path d="M602 400L668 366L613 305Z" fill="#000e20" stroke="#000e20"></path><path d="M394 0L370 138L521 124Z" fill="#00081c" stroke="#00081c"></path><path d="M370 138L303 70L260 234Z" fill="#00081c" stroke="#00081c"></path><path d="M668 366L703 299L613 305Z" fill="#00061b" stroke="#00061b"></path><path d="M370 600L464 520L437 470Z" fill="#00041a" stroke="#00041a"></path><path d="M437 470L464 520L494 435Z" fill="#000219" stroke="#000219"></path><path d="M602 400L727 462L668 366Z" fill="#001021" stroke="#001021"></path><path d="M690 105L562 113L639 171Z" fill="#00081c" stroke="#00081c"></path><path d="M562 113L501 0L521 124Z" fill="#000a1d" stroke="#000a1d"></path><path d="M225 429L292 466L318 417Z" fill="#000000" stroke="#000000"></path><path d="M318 417L292 466L437 470Z" fill="#000000" stroke="#000000"></path><path d="M501 0L394 0L521 124Z" fill="#000e20" stroke="#000e20"></path><path d="M782 128L690 105L682 190Z" fill="#000a1d" stroke="#000a1d"></path><path d="M682 190L690 105L639 171Z" fill="#000a1d" stroke="#000a1d"></path><path d="M303 70L190 176L260 234Z" fill="#000a1d" stroke="#000a1d"></path><path d="M168 277L225 429L309 260Z" fill="#000219" stroke="#000219"></path><path d="M168 277L309 260L260 234Z" fill="#00061b" stroke="#00061b"></path><path d="M190 176L168 277L260 234Z" fill="#00081c" stroke="#00081c"></path><path d="M464 520L615 503L494 435Z" fill="#001122" stroke="#001122"></path><path d="M668 366L827 388L703 299Z" fill="#001021" stroke="#001021"></path><path d="M394 0L312 0L303 70Z" fill="#00041a" stroke="#00041a"></path><path d="M303 70L209 75L190 176Z" fill="#000219" stroke="#000219"></path><path d="M690 105L606 0L562 113Z" fill="#000c1e" stroke="#000c1e"></path><path d="M312 0L209 75L303 70Z" fill="#000000" stroke="#000000"></path><path d="M190 176L122 173L168 277Z" fill="#000e20" stroke="#000e20"></path><path d="M615 503L727 462L602 400Z" fill="#00081c" stroke="#00081c"></path><path d="M831 238L782 128L682 190Z" fill="#000219" stroke="#000219"></path><path d="M209 75L122 173L190 176Z" fill="#001021" stroke="#001021"></path><path d="M65 469L213 518L225 429Z" fill="#001122" stroke="#001122"></path><path d="M370 600L535 600L464 520Z" fill="#00061b" stroke="#00061b"></path><path d="M464 520L535 600L615 503Z" fill="#000219" stroke="#000219"></path><path d="M615 503L707 600L727 462Z" fill="#000e20" stroke="#000e20"></path><path d="M831 238L682 190L703 299Z" fill="#000d1f" stroke="#000d1f"></path><path d="M690 105L720 0L606 0Z" fill="#00041a" stroke="#00041a"></path><path d="M306 600L370 600L292 466Z" fill="#000c1e" stroke="#000c1e"></path><path d="M292 466L370 600L437 470Z" fill="#00041a" stroke="#00041a"></path><path d="M225 429L213 518L292 466Z" fill="#000000" stroke="#000000"></path><path d="M113 366L225 429L168 277Z" fill="#00061b" stroke="#00061b"></path><path d="M85 315L113 366L168 277Z" fill="#000e20" stroke="#000e20"></path><path d="M535 600L597 600L615 503Z" fill="#000d1f" stroke="#000d1f"></path><path d="M782 128L720 0L690 105Z" fill="#00041a" stroke="#00041a"></path><path d="M213 518L306 600L292 466Z" fill="#001122" stroke="#001122"></path><path d="M827 388L831 260L703 299Z" fill="#00041a" stroke="#00041a"></path><path d="M831 260L831 238L703 299Z" fill="#000c1e" stroke="#000c1e"></path><path d="M122 173L85 315L168 277Z" fill="#000219" stroke="#000219"></path><path d="M312 0L184 0L209 75Z" fill="#000e20" stroke="#000e20"></path><path d="M209 75L114 67L122 173Z" fill="#00081c" stroke="#00081c"></path><path d="M818 491L827 388L727 462Z" fill="#001021" stroke="#001021"></path><path d="M727 462L827 388L668 366Z" fill="#000000" stroke="#000000"></path><path d="M184 0L114 67L209 75Z" fill="#001021" stroke="#001021"></path><path d="M0 180L0 290L85 315Z" fill="#00081c" stroke="#00081c"></path><path d="M597 600L707 600L615 503Z" fill="#000219" stroke="#000219"></path><path d="M786 600L818 491L727 462Z" fill="#000c1e" stroke="#000c1e"></path><path d="M900 94L803 0L782 128Z" fill="#000a1d" stroke="#000a1d"></path><path d="M782 128L803 0L720 0Z" fill="#00041a" stroke="#00041a"></path><path d="M0 407L113 366L85 315Z" fill="#000a1d" stroke="#000a1d"></path><path d="M0 407L65 469L113 366Z" fill="#000a1d" stroke="#000a1d"></path><path d="M113 366L65 469L225 429Z" fill="#001021" stroke="#001021"></path><path d="M213 518L166 600L306 600Z" fill="#000219" stroke="#000219"></path><path d="M831 260L900 307L831 238Z" fill="#000d1f" stroke="#000d1f"></path><path d="M831 238L900 173L782 128Z" fill="#000d1f" stroke="#000d1f"></path><path d="M827 388L900 307L831 260Z" fill="#001122" stroke="#001122"></path><path d="M900 380L900 307L827 388Z" fill="#001122" stroke="#001122"></path><path d="M184 0L95 0L114 67Z" fill="#00081c" stroke="#00081c"></path><path d="M0 180L85 315L122 173Z" fill="#000000" stroke="#000000"></path><path d="M99 600L166 600L213 518Z" fill="#00061b" stroke="#00061b"></path><path d="M900 307L900 173L831 238Z" fill="#000d1f" stroke="#000d1f"></path><path d="M0 180L122 173L0 139Z" fill="#000e20" stroke="#000e20"></path><path d="M900 463L900 380L827 388Z" fill="#001122" stroke="#001122"></path><path d="M0 139L122 173L114 67Z" fill="#000d1f" stroke="#000d1f"></path><path d="M900 173L900 94L782 128Z" fill="#000000" stroke="#000000"></path><path d="M0 0L0 139L114 67Z" fill="#000a1d" stroke="#000a1d"></path><path d="M707 600L786 600L727 462Z" fill="#000a1d" stroke="#000a1d"></path><path d="M818 491L900 463L827 388Z" fill="#000c1e" stroke="#000c1e"></path><path d="M0 290L0 407L85 315Z" fill="#001021" stroke="#001021"></path><path d="M65 469L99 600L213 518Z" fill="#00061b" stroke="#00061b"></path><path d="M900 600L900 463L818 491Z" fill="#000e20" stroke="#000e20"></path><path d="M0 526L99 600L65 469Z" fill="#001021" stroke="#001021"></path><path d="M900 94L900 0L803 0Z" fill="#000d1f" stroke="#000d1f"></path><path d="M95 0L0 0L114 67Z" fill="#001021" stroke="#001021"></path><path d="M0 407L0 526L65 469Z" fill="#001122" stroke="#001122"></path><path d="M786 600L900 600L818 491Z" fill="#001122" stroke="#001122"></path><path d="M0 526L0 600L99 600Z" fill="#000000" stroke="#000000"></path></g></svg>