<svg id="visual" viewBox="0 0 900 600" width="900" height="600" xmlns="http://www.w3.org/2000/svg" xmlns:xlink="http://www.w3.org/1999/xlink" version="1.1"><path d="M0 97L13.7 104C27.3 111 54.7 125 82 120C109.3 115 136.7 91 163.8 95C191 99 218 131 245.2 138C272.3 145 299.7 127 327 115C354.3 103 381.7 97 409 101C436.3 105 463.7 119 491 120C518.3 121 545.7 109 573 96C600.3 83 627.7 69 654.8 72C682 75 709 95 736.2 102C763.3 109 790.7 103 818 103C845.3 103 872.7 109 886.3 112L900 115L900 0L886.3 0C872.7 0 845.3 0 818 0C790.7 0 763.3 0 736.2 0C709 0 682 0 654.8 0C627.7 0 600.3 0 573 0C545.7 0 518.3 0 491 0C463.7 0 436.3 0 409 0C381.7 0 354.3 0 327 0C299.7 0 272.3 0 245.2 0C218 0 191 0 163.8 0C136.7 0 109.3 0 82 0C54.7 0 27.3 0 13.7 0L0 0Z" fill="#3c3a3a"></path><path d="M0 145L13.7 158C27.3 171 54.7 197 82 199C109.3 201 136.7 179 163.8 181C191 183 218 209 245.2 214C272.3 219 299.7 203 327 186C354.3 169 381.7 151 409 154C436.3 157 463.7 181 491 186C518.3 191 545.7 177 573 167C600.3 157 627.7 151 654.8 149C682 147 709 149 736.2 147C763.3 145 790.7 139 818 147C845.3 155 872.7 177 886.3 188L900 199L900 113L886.3 110C872.7 107 845.3 101 818 101C790.7 101 763.3 107 736.2 100C709 93 682 73 654.8 70C627.7 67 600.3 81 573 94C545.7 107 518.3 119 491 118C463.7 117 436.3 103 409 99C381.7 95 354.3 101 327 113C299.7 125 272.3 143 245.2 136C218 129 191 97 163.8 93C136.7 89 109.3 113 82 118C54.7 123 27.3 109 13.7 102L0 95Z" fill="#2a2828"></path><path d="M0 433L13.7 413C27.3 393 54.7 353 82 326C109.3 299 136.7 285 163.8 306C191 327 218 383 245.2 408C272.3 433 299.7 427 327 396C354.3 365 381.7 309 409 293C436.3 277 463.7 301 491 316C518.3 331 545.7 337 573 337C600.3 337 627.7 331 654.8 335C682 339 709 353 736.2 349C763.3 345 790.7 323 818 334C845.3 345 872.7 389 886.3 411L900 433L900 197L886.3 186C872.7 175 845.3 153 818 145C790.7 137 763.3 143 736.2 145C709 147 682 145 654.8 147C627.7 149 600.3 155 573 165C545.7 175 518.3 189 491 184C463.7 179 436.3 155 409 152C381.7 149 354.3 167 327 184C299.7 201 272.3 217 245.2 212C218 207 191 181 163.8 179C136.7 177 109.3 199 82 197C54.7 195 27.3 169 13.7 156L0 143Z" fill="#191818"></path><path d="M0 475L13.7 462C27.3 449 54.7 423 82 408C109.3 393 136.7 389 163.8 403C191 417 218 449 245.2 470C272.3 491 299.7 501 327 473C354.3 445 381.7 379 409 363C436.3 347 463.7 381 491 397C518.3 413 545.7 411 573 411C600.3 411 627.7 413 654.8 428C682 443 709 471 736.2 469C763.3 467 790.7 435 818 434C845.3 433 872.7 463 886.3 478L900 493L900 431L886.3 409C872.7 387 845.3 343 818 332C790.7 321 763.3 343 736.2 347C709 351 682 337 654.8 333C627.7 329 600.3 335 573 335C545.7 335 518.3 329 491 314C463.7 299 436.3 275 409 291C381.7 307 354.3 363 327 394C299.7 425 272.3 431 245.2 406C218 381 191 325 163.8 304C136.7 283 109.3 297 82 324C54.7 351 27.3 391 13.7 411L0 431Z" fill="#171616"></path><path d="M0 601L13.7 601C27.3 601 54.7 601 82 601C109.3 601 136.7 601 163.8 601C191 601 218 601 245.2 601C272.3 601 299.7 601 327 601C354.3 601 381.7 601 409 601C436.3 601 463.7 601 491 601C518.3 601 545.7 601 573 601C600.3 601 627.7 601 654.8 601C682 601 709 601 736.2 601C763.3 601 790.7 601 818 601C845.3 601 872.7 601 886.3 601L900 601L900 491L886.3 476C872.7 461 845.3 431 818 432C790.7 433 763.3 465 736.2 467C709 469 682 441 654.8 426C627.7 411 600.3 409 573 409C545.7 409 518.3 411 491 395C463.7 379 436.3 345 409 361C381.7 377 354.3 443 327 471C299.7 499 272.3 489 245.2 468C218 447 191 415 163.8 401C136.7 387 109.3 391 82 406C54.7 421 27.3 447 13.7 460L0 473Z" fill="#141313"></path></svg>