<svg id="visual" viewBox="0 0 900 600" width="900" height="600" xmlns="http://www.w3.org/2000/svg" xmlns:xlink="http://www.w3.org/1999/xlink" version="1.1"><g stroke-width="1" stroke-linejoin="bevel"><path d="M432 322L470 229L434 236Z" fill="#f8f8f8" stroke="#f8f8f8"></path><path d="M432 322L527 334L470 229Z" fill="#fbfbfb" stroke="#fbfbfb"></path><path d="M527 334L561 280L470 229Z" fill="#fdfdfd" stroke="#fdfdfd"></path><path d="M432 322L503 394L527 334Z" fill="#f5f5f5" stroke="#f5f5f5"></path><path d="M527 334L618 407L561 280Z" fill="#fafafa" stroke="#fafafa"></path><path d="M432 322L432 412L503 394Z" fill="#f9f9f9" stroke="#f9f9f9"></path><path d="M429 94L330 225L434 236Z" fill="#f7f7f7" stroke="#f7f7f7"></path><path d="M434 236L330 225L432 322Z" fill="#ffffff" stroke="#ffffff"></path><path d="M432 322L310 393L432 412Z" fill="#fafafa" stroke="#fafafa"></path><path d="M708 286L600 231L561 280Z" fill="#f9f9f9" stroke="#f9f9f9"></path><path d="M561 280L600 231L470 229Z" fill="#f5f5f5" stroke="#f5f5f5"></path><path d="M470 229L429 94L434 236Z" fill="#fdfdfd" stroke="#fdfdfd"></path><path d="M330 225L287 280L432 322Z" fill="#ffffff" stroke="#ffffff"></path><path d="M600 231L536 118L470 229Z" fill="#fafafa" stroke="#fafafa"></path><path d="M536 118L429 94L470 229Z" fill="#fafafa" stroke="#fafafa"></path><path d="M204 236L203 265L287 280Z" fill="#ffffff" stroke="#ffffff"></path><path d="M287 280L310 393L432 322Z" fill="#f7f7f7" stroke="#f7f7f7"></path><path d="M600 231L586 125L536 118Z" fill="#f5f5f5" stroke="#f5f5f5"></path><path d="M536 118L522 0L429 94Z" fill="#f8f8f8" stroke="#f8f8f8"></path><path d="M580 480L618 407L503 394Z" fill="#fbfbfb" stroke="#fbfbfb"></path><path d="M503 394L618 407L527 334Z" fill="#fbfbfb" stroke="#fbfbfb"></path><path d="M534 536L580 480L503 394Z" fill="#f7f7f7" stroke="#f7f7f7"></path><path d="M534 536L503 394L432 412Z" fill="#fbfbfb" stroke="#fbfbfb"></path><path d="M429 94L323 86L330 225Z" fill="#f9f9f9" stroke="#f9f9f9"></path><path d="M693 398L708 286L618 407Z" fill="#f7f7f7" stroke="#f7f7f7"></path><path d="M618 407L708 286L561 280Z" fill="#fafafa" stroke="#fafafa"></path><path d="M600 231L730 192L586 125Z" fill="#fdfdfd" stroke="#fdfdfd"></path><path d="M204 236L287 280L330 225Z" fill="#fbfbfb" stroke="#fbfbfb"></path><path d="M287 280L174 413L310 393Z" fill="#fefefe" stroke="#fefefe"></path><path d="M295 508L401 532L310 393Z" fill="#fbfbfb" stroke="#fbfbfb"></path><path d="M310 393L401 532L432 412Z" fill="#fefefe" stroke="#fefefe"></path><path d="M730 518L693 398L618 407Z" fill="#fefefe" stroke="#fefefe"></path><path d="M213 111L204 236L330 225Z" fill="#fdfdfd" stroke="#fdfdfd"></path><path d="M401 532L534 536L432 412Z" fill="#fefefe" stroke="#fefefe"></path><path d="M730 518L765 407L693 398Z" fill="#f6f6f6" stroke="#f6f6f6"></path><path d="M174 413L295 508L310 393Z" fill="#fdfdfd" stroke="#fdfdfd"></path><path d="M806 322L730 192L708 286Z" fill="#f6f6f6" stroke="#f6f6f6"></path><path d="M708 286L730 192L600 231Z" fill="#f9f9f9" stroke="#f9f9f9"></path><path d="M635 0L522 0L586 125Z" fill="#fdfdfd" stroke="#fdfdfd"></path><path d="M586 125L522 0L536 118Z" fill="#fcfcfc" stroke="#fcfcfc"></path><path d="M429 94L394 0L323 86Z" fill="#fdfdfd" stroke="#fdfdfd"></path><path d="M522 0L394 0L429 94Z" fill="#f6f6f6" stroke="#f6f6f6"></path><path d="M234 0L213 111L323 86Z" fill="#f8f8f8" stroke="#f8f8f8"></path><path d="M323 86L213 111L330 225Z" fill="#fefefe" stroke="#fefefe"></path><path d="M118 263L203 265L204 236Z" fill="#fbfbfb" stroke="#fbfbfb"></path><path d="M118 263L174 413L203 265Z" fill="#f8f8f8" stroke="#f8f8f8"></path><path d="M203 265L174 413L287 280Z" fill="#f7f7f7" stroke="#f7f7f7"></path><path d="M394 0L312 0L323 86Z" fill="#f5f5f5" stroke="#f5f5f5"></path><path d="M401 532L435 600L534 536Z" fill="#ffffff" stroke="#ffffff"></path><path d="M267 600L435 600L401 532Z" fill="#f7f7f7" stroke="#f7f7f7"></path><path d="M435 600L535 600L534 536Z" fill="#ffffff" stroke="#ffffff"></path><path d="M534 536L587 600L580 480Z" fill="#fbfbfb" stroke="#fbfbfb"></path><path d="M729 80L635 0L586 125Z" fill="#fafafa" stroke="#fafafa"></path><path d="M730 518L618 407L580 480Z" fill="#f8f8f8" stroke="#f8f8f8"></path><path d="M693 398L765 407L708 286Z" fill="#f8f8f8" stroke="#f8f8f8"></path><path d="M760 130L729 80L730 192Z" fill="#fbfbfb" stroke="#fbfbfb"></path><path d="M730 192L729 80L586 125Z" fill="#f5f5f5" stroke="#f5f5f5"></path><path d="M836 184L760 130L730 192Z" fill="#ffffff" stroke="#ffffff"></path><path d="M70 182L118 263L204 236Z" fill="#fbfbfb" stroke="#fbfbfb"></path><path d="M535 600L587 600L534 536Z" fill="#fdfdfd" stroke="#fdfdfd"></path><path d="M765 407L806 322L708 286Z" fill="#fefefe" stroke="#fefefe"></path><path d="M673 600L730 518L580 480Z" fill="#f8f8f8" stroke="#f8f8f8"></path><path d="M900 361L900 299L806 322Z" fill="#f5f5f5" stroke="#f5f5f5"></path><path d="M312 0L234 0L323 86Z" fill="#ffffff" stroke="#ffffff"></path><path d="M213 111L124 119L204 236Z" fill="#fbfbfb" stroke="#fbfbfb"></path><path d="M174 413L181 523L295 508Z" fill="#fefefe" stroke="#fefefe"></path><path d="M295 508L267 600L401 532Z" fill="#fafafa" stroke="#fafafa"></path><path d="M104 519L181 523L174 413Z" fill="#f9f9f9" stroke="#f9f9f9"></path><path d="M234 0L124 119L213 111Z" fill="#fcfcfc" stroke="#fcfcfc"></path><path d="M231 600L267 600L295 508Z" fill="#fbfbfb" stroke="#fbfbfb"></path><path d="M0 304L104 394L118 263Z" fill="#f7f7f7" stroke="#f7f7f7"></path><path d="M118 263L104 394L174 413Z" fill="#f5f5f5" stroke="#f5f5f5"></path><path d="M783 0L719 0L729 80Z" fill="#fafafa" stroke="#fafafa"></path><path d="M729 80L719 0L635 0Z" fill="#f6f6f6" stroke="#f6f6f6"></path><path d="M730 518L784 486L765 407Z" fill="#fefefe" stroke="#fefefe"></path><path d="M587 600L673 600L580 480Z" fill="#f5f5f5" stroke="#f5f5f5"></path><path d="M730 518L764 600L784 486Z" fill="#fafafa" stroke="#fafafa"></path><path d="M900 299L836 184L806 322Z" fill="#fbfbfb" stroke="#fbfbfb"></path><path d="M806 322L836 184L730 192Z" fill="#f6f6f6" stroke="#f6f6f6"></path><path d="M760 130L783 0L729 80Z" fill="#f6f6f6" stroke="#f6f6f6"></path><path d="M181 523L231 600L295 508Z" fill="#ffffff" stroke="#ffffff"></path><path d="M124 119L70 182L204 236Z" fill="#fafafa" stroke="#fafafa"></path><path d="M900 125L783 0L760 130Z" fill="#fefefe" stroke="#fefefe"></path><path d="M0 503L104 519L104 394Z" fill="#f6f6f6" stroke="#f6f6f6"></path><path d="M104 394L104 519L174 413Z" fill="#fdfdfd" stroke="#fdfdfd"></path><path d="M181 523L79 600L231 600Z" fill="#fdfdfd" stroke="#fdfdfd"></path><path d="M900 361L806 322L765 407Z" fill="#fcfcfc" stroke="#fcfcfc"></path><path d="M836 184L900 125L760 130Z" fill="#fafafa" stroke="#fafafa"></path><path d="M673 600L764 600L730 518Z" fill="#f7f7f7" stroke="#f7f7f7"></path><path d="M784 486L900 361L765 407Z" fill="#fcfcfc" stroke="#fcfcfc"></path><path d="M900 522L900 361L784 486Z" fill="#f6f6f6" stroke="#f6f6f6"></path><path d="M900 299L900 181L836 184Z" fill="#f7f7f7" stroke="#f7f7f7"></path><path d="M0 222L0 304L118 263Z" fill="#f5f5f5" stroke="#f5f5f5"></path><path d="M0 63L0 222L70 182Z" fill="#ffffff" stroke="#ffffff"></path><path d="M70 182L0 222L118 263Z" fill="#f8f8f8" stroke="#f8f8f8"></path><path d="M0 63L70 182L124 119Z" fill="#fcfcfc" stroke="#fcfcfc"></path><path d="M900 181L900 125L836 184Z" fill="#f9f9f9" stroke="#f9f9f9"></path><path d="M234 0L82 0L124 119Z" fill="#fdfdfd" stroke="#fdfdfd"></path><path d="M0 304L0 386L104 394Z" fill="#ffffff" stroke="#ffffff"></path><path d="M0 503L79 600L104 519Z" fill="#fcfcfc" stroke="#fcfcfc"></path><path d="M104 519L79 600L181 523Z" fill="#f6f6f6" stroke="#f6f6f6"></path><path d="M764 600L900 522L784 486Z" fill="#fefefe" stroke="#fefefe"></path><path d="M82 0L0 63L124 119Z" fill="#fafafa" stroke="#fafafa"></path><path d="M0 386L0 503L104 394Z" fill="#fbfbfb" stroke="#fbfbfb"></path><path d="M900 125L900 0L783 0Z" fill="#fdfdfd" stroke="#fdfdfd"></path><path d="M82 0L0 0L0 63Z" fill="#f5f5f5" stroke="#f5f5f5"></path><path d="M764 600L900 600L900 522Z" fill="#f8f8f8" stroke="#f8f8f8"></path><path d="M0 503L0 600L79 600Z" fill="#fbfbfb" stroke="#fbfbfb"></path></g></svg>