<svg id="visual" viewBox="0 0 900 600" width="900" height="600" xmlns="http://www.w3.org/2000/svg" xmlns:xlink="http://www.w3.org/1999/xlink" version="1.1"><rect x="0" y="0" width="900" height="600" fill="#ffffff"></rect><defs><linearGradient id="grad1_0" x1="33.3%" y1="100%" x2="100%" y2="0%"><stop offset="20%" stop-color="#b1aced" stop-opacity="1"></stop><stop offset="80%" stop-color="#b1aced" stop-opacity="1"></stop></linearGradient></defs><defs><linearGradient id="grad1_1" x1="33.3%" y1="100%" x2="100%" y2="0%"><stop offset="20%" stop-color="#b1aced" stop-opacity="1"></stop><stop offset="80%" stop-color="#c5c0f2" stop-opacity="1"></stop></linearGradient></defs><defs><linearGradient id="grad1_2" x1="33.3%" y1="100%" x2="100%" y2="0%"><stop offset="20%" stop-color="#d9d5f6" stop-opacity="1"></stop><stop offset="80%" stop-color="#c5c0f2" stop-opacity="1"></stop></linearGradient></defs><defs><linearGradient id="grad1_3" x1="33.3%" y1="100%" x2="100%" y2="0%"><stop offset="20%" stop-color="#d9d5f6" stop-opacity="1"></stop><stop offset="80%" stop-color="#eceafb" stop-opacity="1"></stop></linearGradient></defs><defs><linearGradient id="grad1_4" x1="33.3%" y1="100%" x2="100%" y2="0%"><stop offset="20%" stop-color="#ffffff" stop-opacity="1"></stop><stop offset="80%" stop-color="#eceafb" stop-opacity="1"></stop></linearGradient></defs><defs><linearGradient id="grad2_0" x1="0%" y1="100%" x2="66.7%" y2="0%"><stop offset="20%" stop-color="#b1aced" stop-opacity="1"></stop><stop offset="80%" stop-color="#b1aced" stop-opacity="1"></stop></linearGradient></defs><defs><linearGradient id="grad2_1" x1="0%" y1="100%" x2="66.7%" y2="0%"><stop offset="20%" stop-color="#c5c0f2" stop-opacity="1"></stop><stop offset="80%" stop-color="#b1aced" stop-opacity="1"></stop></linearGradient></defs><defs><linearGradient id="grad2_2" x1="0%" y1="100%" x2="66.7%" y2="0%"><stop offset="20%" stop-color="#c5c0f2" stop-opacity="1"></stop><stop offset="80%" stop-color="#d9d5f6" stop-opacity="1"></stop></linearGradient></defs><defs><linearGradient id="grad2_3" x1="0%" y1="100%" x2="66.7%" y2="0%"><stop offset="20%" stop-color="#eceafb" stop-opacity="1"></stop><stop offset="80%" stop-color="#d9d5f6" stop-opacity="1"></stop></linearGradient></defs><defs><linearGradient id="grad2_4" x1="0%" y1="100%" x2="66.7%" y2="0%"><stop offset="20%" stop-color="#eceafb" stop-opacity="1"></stop><stop offset="80%" stop-color="#ffffff" stop-opacity="1"></stop></linearGradient></defs><g transform="translate(900, 600)"><path d="M-432.7 0C-437.5 -66.9 -442.4 -133.8 -399.7 -165.6C-357.1 -197.4 -266.9 -194.1 -220.6 -220.6C-174.3 -247.1 -171.8 -303.4 -142.4 -343.7C-112.9 -384 -56.4 -408.3 0 -432.7L0 0Z" fill="#f6f4fd"></path><path d="M-346.1 0C-350 -53.5 -353.9 -107 -319.8 -132.5C-285.7 -157.9 -213.5 -155.3 -176.5 -176.5C-139.4 -197.7 -137.5 -242.7 -113.9 -274.9C-90.3 -307.2 -45.2 -326.7 0 -346.1L0 0Z" fill="#e2dff9"></path><path d="M-259.6 0C-262.5 -40.1 -265.4 -80.3 -239.8 -99.3C-214.3 -118.4 -160.2 -116.5 -132.4 -132.4C-104.6 -148.3 -103.1 -182 -85.4 -206.2C-67.7 -230.4 -33.9 -245 0 -259.6L0 0Z" fill="#cfcaf4"></path><path d="M-173.1 0C-175 -26.8 -177 -53.5 -159.9 -66.2C-142.8 -79 -106.8 -77.6 -88.2 -88.2C-69.7 -98.8 -68.7 -121.4 -56.9 -137.5C-45.2 -153.6 -22.6 -163.3 0 -173.1L0 0Z" fill="#bbb6ef"></path><path d="M-86.5 0C-87.5 -13.4 -88.5 -26.8 -79.9 -33.1C-71.4 -39.5 -53.4 -38.8 -44.1 -44.1C-34.9 -49.4 -34.4 -60.7 -28.5 -68.7C-22.6 -76.8 -11.3 -81.7 0 -86.5L0 0Z" fill="#b1aced"></path></g><g transform="translate(0, 0)"><path d="M432.7 0C437.3 67.7 441.9 135.4 399.7 165.6C357.6 195.7 268.6 188.3 227.7 227.7C186.7 267.1 193.7 353.4 163.8 395.4C133.8 437.4 66.9 435 0 432.7L0 0Z" fill="#f6f4fd"></path><path d="M346.1 0C349.8 54.2 353.5 108.4 319.8 132.5C286.1 156.6 214.9 150.6 182.2 182.2C149.4 213.7 155 282.8 131 316.3C107.1 349.9 53.5 348 0 346.1L0 0Z" fill="#e2dff9"></path><path d="M259.6 0C262.4 40.6 265.1 81.3 239.8 99.3C214.5 117.4 161.2 113 136.6 136.6C112 160.3 116.2 212.1 98.3 237.3C80.3 262.4 40.2 261 0 259.6L0 0Z" fill="#cfcaf4"></path><path d="M173.1 0C174.9 27.1 176.8 54.2 159.9 66.2C143 78.3 107.5 75.3 91.1 91.1C74.7 106.8 77.5 141.4 65.5 158.2C53.5 175 26.8 174 0 173.1L0 0Z" fill="#bbb6ef"></path><path d="M86.5 0C87.5 13.5 88.4 27.1 79.9 33.1C71.5 39.1 53.7 37.7 45.5 45.5C37.3 53.4 38.7 70.7 32.8 79.1C26.8 87.5 13.4 87 0 86.5L0 0Z" fill="#b1aced"></path></g></svg>