<svg id="visual" viewBox="0 0 900 600" width="900" height="600" xmlns="http://www.w3.org/2000/svg" xmlns:xlink="http://www.w3.org/1999/xlink" version="1.1"><path d="M0 85L6.5 90C13 95 26 105 39 108C52 111 65 107 78 108C91 109 104 115 117.2 115C130.3 115 143.7 109 156.8 109C170 109 183 115 196 119C209 123 222 125 235 123C248 121 261 115 274 113C287 111 300 113 313 113C326 113 339 111 352 113C365 115 378 121 391 120C404 119 417 111 430.2 110C443.3 109 456.7 115 469.8 117C483 119 496 117 509 118C522 119 535 123 548 121C561 119 574 111 587 109C600 107 613 111 626 116C639 121 652 127 665 124C678 121 691 109 704 107C717 105 730 113 743.2 116C756.3 119 769.7 117 782.8 117C796 117 809 119 822 118C835 117 848 113 861 108C874 103 887 97 893.5 94L900 91L900 0L893.5 0C887 0 874 0 861 0C848 0 835 0 822 0C809 0 796 0 782.8 0C769.7 0 756.3 0 743.2 0C730 0 717 0 704 0C691 0 678 0 665 0C652 0 639 0 626 0C613 0 600 0 587 0C574 0 561 0 548 0C535 0 522 0 509 0C496 0 483 0 469.8 0C456.7 0 443.3 0 430.2 0C417 0 404 0 391 0C378 0 365 0 352 0C339 0 326 0 313 0C300 0 287 0 274 0C261 0 248 0 235 0C222 0 209 0 196 0C183 0 170 0 156.8 0C143.7 0 130.3 0 117.2 0C104 0 91 0 78 0C65 0 52 0 39 0C26 0 13 0 6.5 0L0 0Z" fill="#02120f"></path><path d="M0 115L6.5 119C13 123 26 131 39 135C52 139 65 139 78 141C91 143 104 147 117.2 147C130.3 147 143.7 143 156.8 142C170 141 183 143 196 145C209 147 222 149 235 149C248 149 261 147 274 145C287 143 300 141 313 139C326 137 339 135 352 138C365 141 378 149 391 148C404 147 417 137 430.2 136C443.3 135 456.7 143 469.8 147C483 151 496 151 509 153C522 155 535 159 548 155C561 151 574 139 587 137C600 135 613 143 626 150C639 157 652 163 665 158C678 153 691 137 704 134C717 131 730 141 743.2 144C756.3 147 769.7 143 782.8 142C796 141 809 143 822 144C835 145 848 145 861 141C874 137 887 129 893.5 125L900 121L900 89L893.5 92C887 95 874 101 861 106C848 111 835 115 822 116C809 117 796 115 782.8 115C769.7 115 756.3 117 743.2 114C730 111 717 103 704 105C691 107 678 119 665 122C652 125 639 119 626 114C613 109 600 105 587 107C574 109 561 117 548 119C535 121 522 117 509 116C496 115 483 117 469.8 115C456.7 113 443.3 107 430.2 108C417 109 404 117 391 118C378 119 365 113 352 111C339 109 326 111 313 111C300 111 287 109 274 111C261 113 248 119 235 121C222 123 209 121 196 117C183 113 170 107 156.8 107C143.7 107 130.3 113 117.2 113C104 113 91 107 78 106C65 105 52 109 39 106C26 103 13 93 6.5 88L0 83Z" fill="#071410"></path><path d="M0 157L6.5 159C13 161 26 165 39 169C52 173 65 177 78 181C91 185 104 189 117.2 188C130.3 187 143.7 181 156.8 178C170 175 183 175 196 177C209 179 222 183 235 183C248 183 261 179 274 177C287 175 300 175 313 174C326 173 339 171 352 175C365 179 378 189 391 188C404 187 417 175 430.2 172C443.3 169 456.7 175 469.8 180C483 185 496 189 509 191C522 193 535 193 548 189C561 185 574 177 587 177C600 177 613 185 626 191C639 197 652 201 665 195C678 189 691 173 704 169C717 165 730 173 743.2 177C756.3 181 769.7 181 782.8 181C796 181 809 181 822 180C835 179 848 177 861 173C874 169 887 163 893.5 160L900 157L900 119L893.5 123C887 127 874 135 861 139C848 143 835 143 822 142C809 141 796 139 782.8 140C769.7 141 756.3 145 743.2 142C730 139 717 129 704 132C691 135 678 151 665 156C652 161 639 155 626 148C613 141 600 133 587 135C574 137 561 149 548 153C535 157 522 153 509 151C496 149 483 149 469.8 145C456.7 141 443.3 133 430.2 134C417 135 404 145 391 146C378 147 365 139 352 136C339 133 326 135 313 137C300 139 287 141 274 143C261 145 248 147 235 147C222 147 209 145 196 143C183 141 170 139 156.8 140C143.7 141 130.3 145 117.2 145C104 145 91 141 78 139C65 137 52 137 39 133C26 129 13 121 6.5 117L0 113Z" fill="#0d1512"></path><path d="M0 205L6.5 209C13 213 26 221 39 226C52 231 65 233 78 238C91 243 104 251 117.2 249C130.3 247 143.7 235 156.8 230C170 225 183 227 196 232C209 237 222 245 235 246C248 247 261 241 274 238C287 235 300 235 313 235C326 235 339 235 352 237C365 239 378 243 391 239C404 235 417 223 430.2 223C443.3 223 456.7 235 469.8 242C483 249 496 251 509 252C522 253 535 253 548 247C561 241 574 229 587 229C600 229 613 241 626 246C639 251 652 249 665 241C678 233 691 219 704 218C717 217 730 229 743.2 233C756.3 237 769.7 233 782.8 234C796 235 809 241 822 242C835 243 848 239 861 235C874 231 887 227 893.5 225L900 223L900 155L893.5 158C887 161 874 167 861 171C848 175 835 177 822 178C809 179 796 179 782.8 179C769.7 179 756.3 179 743.2 175C730 171 717 163 704 167C691 171 678 187 665 193C652 199 639 195 626 189C613 183 600 175 587 175C574 175 561 183 548 187C535 191 522 191 509 189C496 187 483 183 469.8 178C456.7 173 443.3 167 430.2 170C417 173 404 185 391 186C378 187 365 177 352 173C339 169 326 171 313 172C300 173 287 173 274 175C261 177 248 181 235 181C222 181 209 177 196 175C183 173 170 173 156.8 176C143.7 179 130.3 185 117.2 186C104 187 91 183 78 179C65 175 52 171 39 167C26 163 13 159 6.5 157L0 155Z" fill="#111713"></path><path d="M0 343L6.5 345C13 347 26 351 39 356C52 361 65 367 78 370C91 373 104 373 117.2 371C130.3 369 143.7 365 156.8 363C170 361 183 361 196 363C209 365 222 369 235 370C248 371 261 369 274 366C287 363 300 359 313 359C326 359 339 363 352 366C365 369 378 371 391 369C404 367 417 361 430.2 357C443.3 353 456.7 351 469.8 354C483 357 496 365 509 370C522 375 535 377 548 375C561 373 574 367 587 366C600 365 613 369 626 367C639 365 652 357 665 353C678 349 691 349 704 350C717 351 730 353 743.2 355C756.3 357 769.7 359 782.8 358C796 357 809 353 822 355C835 357 848 365 861 367C874 369 887 365 893.5 363L900 361L900 221L893.5 223C887 225 874 229 861 233C848 237 835 241 822 240C809 239 796 233 782.8 232C769.7 231 756.3 235 743.2 231C730 227 717 215 704 216C691 217 678 231 665 239C652 247 639 249 626 244C613 239 600 227 587 227C574 227 561 239 548 245C535 251 522 251 509 250C496 249 483 247 469.8 240C456.7 233 443.3 221 430.2 221C417 221 404 233 391 237C378 241 365 237 352 235C339 233 326 233 313 233C300 233 287 233 274 236C261 239 248 245 235 244C222 243 209 235 196 230C183 225 170 223 156.8 228C143.7 233 130.3 245 117.2 247C104 249 91 241 78 236C65 231 52 229 39 224C26 219 13 211 6.5 207L0 203Z" fill="#141815"></path><path d="M0 367L6.5 370C13 373 26 379 39 385C52 391 65 397 78 399C91 401 104 399 117.2 397C130.3 395 143.7 393 156.8 392C170 391 183 391 196 393C209 395 222 399 235 399C248 399 261 395 274 391C287 387 300 383 313 384C326 385 339 391 352 395C365 399 378 401 391 398C404 395 417 387 430.2 382C443.3 377 456.7 375 469.8 378C483 381 496 389 509 394C522 399 535 401 548 400C561 399 574 395 587 394C600 393 613 395 626 393C639 391 652 385 665 381C678 377 691 375 704 375C717 375 730 377 743.2 380C756.3 383 769.7 387 782.8 386C796 385 809 379 822 380C835 381 848 389 861 391C874 393 887 389 893.5 387L900 385L900 359L893.5 361C887 363 874 367 861 365C848 363 835 355 822 353C809 351 796 355 782.8 356C769.7 357 756.3 355 743.2 353C730 351 717 349 704 348C691 347 678 347 665 351C652 355 639 363 626 365C613 367 600 363 587 364C574 365 561 371 548 373C535 375 522 373 509 368C496 363 483 355 469.8 352C456.7 349 443.3 351 430.2 355C417 359 404 365 391 367C378 369 365 367 352 364C339 361 326 357 313 357C300 357 287 361 274 364C261 367 248 369 235 368C222 367 209 363 196 361C183 359 170 359 156.8 361C143.7 363 130.3 367 117.2 369C104 371 91 371 78 368C65 365 52 359 39 354C26 349 13 345 6.5 343L0 341Z" fill="#171a17"></path><path d="M0 421L6.5 424C13 427 26 433 39 438C52 443 65 447 78 448C91 449 104 447 117.2 445C130.3 443 143.7 441 156.8 441C170 441 183 443 196 444C209 445 222 445 235 443C248 441 261 437 274 433C287 429 300 425 313 427C326 429 339 437 352 441C365 445 378 445 391 443C404 441 417 437 430.2 434C443.3 431 456.7 429 469.8 430C483 431 496 435 509 440C522 445 535 451 548 449C561 447 574 437 587 434C600 431 613 435 626 436C639 437 652 435 665 432C678 429 691 425 704 425C717 425 730 429 743.2 431C756.3 433 769.7 433 782.8 432C796 431 809 429 822 432C835 435 848 443 861 443C874 443 887 435 893.5 431L900 427L900 383L893.5 385C887 387 874 391 861 389C848 387 835 379 822 378C809 377 796 383 782.8 384C769.7 385 756.3 381 743.2 378C730 375 717 373 704 373C691 373 678 375 665 379C652 383 639 389 626 391C613 393 600 391 587 392C574 393 561 397 548 398C535 399 522 397 509 392C496 387 483 379 469.8 376C456.7 373 443.3 375 430.2 380C417 385 404 393 391 396C378 399 365 397 352 393C339 389 326 383 313 382C300 381 287 385 274 389C261 393 248 397 235 397C222 397 209 393 196 391C183 389 170 389 156.8 390C143.7 391 130.3 393 117.2 395C104 397 91 399 78 397C65 395 52 389 39 383C26 377 13 371 6.5 368L0 365Z" fill="#1a1c19"></path><path d="M0 445L6.5 448C13 451 26 457 39 462C52 467 65 471 78 472C91 473 104 471 117.2 470C130.3 469 143.7 469 156.8 470C170 471 183 473 196 473C209 473 222 471 235 468C248 465 261 461 274 458C287 455 300 453 313 456C326 459 339 467 352 470C365 473 378 471 391 468C404 465 417 461 430.2 459C443.3 457 456.7 457 469.8 458C483 459 496 461 509 465C522 469 535 475 548 473C561 471 574 461 587 458C600 455 613 459 626 461C639 463 652 463 665 460C678 457 691 451 704 450C717 449 730 453 743.2 456C756.3 459 769.7 461 782.8 461C796 461 809 459 822 462C835 465 848 473 861 473C874 473 887 465 893.5 461L900 457L900 425L893.5 429C887 433 874 441 861 441C848 441 835 433 822 430C809 427 796 429 782.8 430C769.7 431 756.3 431 743.2 429C730 427 717 423 704 423C691 423 678 427 665 430C652 433 639 435 626 434C613 433 600 429 587 432C574 435 561 445 548 447C535 449 522 443 509 438C496 433 483 429 469.8 428C456.7 427 443.3 429 430.2 432C417 435 404 439 391 441C378 443 365 443 352 439C339 435 326 427 313 425C300 423 287 427 274 431C261 435 248 439 235 441C222 443 209 443 196 442C183 441 170 439 156.8 439C143.7 439 130.3 441 117.2 443C104 445 91 447 78 446C65 445 52 441 39 436C26 431 13 425 6.5 422L0 419Z" fill="#1c1d1b"></path><path d="M0 475L6.5 477C13 479 26 483 39 488C52 493 65 499 78 501C91 503 104 501 117.2 499C130.3 497 143.7 495 156.8 495C170 495 183 497 196 498C209 499 222 499 235 496C248 493 261 487 274 484C287 481 300 481 313 485C326 489 339 497 352 500C365 503 378 501 391 498C404 495 417 491 430.2 489C443.3 487 456.7 487 469.8 487C483 487 496 487 509 490C522 493 535 499 548 497C561 495 574 485 587 483C600 481 613 487 626 490C639 493 652 493 665 490C678 487 691 481 704 480C717 479 730 483 743.2 486C756.3 489 769.7 491 782.8 490C796 489 809 485 822 487C835 489 848 497 861 497C874 497 887 489 893.5 485L900 481L900 455L893.5 459C887 463 874 471 861 471C848 471 835 463 822 460C809 457 796 459 782.8 459C769.7 459 756.3 457 743.2 454C730 451 717 447 704 448C691 449 678 455 665 458C652 461 639 461 626 459C613 457 600 453 587 456C574 459 561 469 548 471C535 473 522 467 509 463C496 459 483 457 469.8 456C456.7 455 443.3 455 430.2 457C417 459 404 463 391 466C378 469 365 471 352 468C339 465 326 457 313 454C300 451 287 453 274 456C261 459 248 463 235 466C222 469 209 471 196 471C183 471 170 469 156.8 468C143.7 467 130.3 467 117.2 468C104 469 91 471 78 470C65 469 52 465 39 460C26 455 13 449 6.5 446L0 443Z" fill="#1f1f1d"></path><path d="M0 553L6.5 554C13 555 26 557 39 560C52 563 65 567 78 568C91 569 104 567 117.2 565C130.3 563 143.7 561 156.8 561C170 561 183 563 196 563C209 563 222 561 235 559C248 557 261 555 274 556C287 557 300 561 313 562C326 563 339 561 352 561C365 561 378 563 391 563C404 563 417 561 430.2 561C443.3 561 456.7 563 469.8 563C483 563 496 561 509 561C522 561 535 563 548 563C561 563 574 561 587 560C600 559 613 559 626 561C639 563 652 567 665 568C678 569 691 567 704 565C717 563 730 561 743.2 562C756.3 563 769.7 567 782.8 567C796 567 809 563 822 562C835 561 848 563 861 564C874 565 887 565 893.5 565L900 565L900 479L893.5 483C887 487 874 495 861 495C848 495 835 487 822 485C809 483 796 487 782.8 488C769.7 489 756.3 487 743.2 484C730 481 717 477 704 478C691 479 678 485 665 488C652 491 639 491 626 488C613 485 600 479 587 481C574 483 561 493 548 495C535 497 522 491 509 488C496 485 483 485 469.8 485C456.7 485 443.3 485 430.2 487C417 489 404 493 391 496C378 499 365 501 352 498C339 495 326 487 313 483C300 479 287 479 274 482C261 485 248 491 235 494C222 497 209 497 196 496C183 495 170 493 156.8 493C143.7 493 130.3 495 117.2 497C104 499 91 501 78 499C65 497 52 491 39 486C26 481 13 477 6.5 475L0 473Z" fill="#212120"></path><path d="M0 601L6.5 601C13 601 26 601 39 601C52 601 65 601 78 601C91 601 104 601 117.2 601C130.3 601 143.7 601 156.8 601C170 601 183 601 196 601C209 601 222 601 235 601C248 601 261 601 274 601C287 601 300 601 313 601C326 601 339 601 352 601C365 601 378 601 391 601C404 601 417 601 430.2 601C443.3 601 456.7 601 469.8 601C483 601 496 601 509 601C522 601 535 601 548 601C561 601 574 601 587 601C600 601 613 601 626 601C639 601 652 601 665 601C678 601 691 601 704 601C717 601 730 601 743.2 601C756.3 601 769.7 601 782.8 601C796 601 809 601 822 601C835 601 848 601 861 601C874 601 887 601 893.5 601L900 601L900 563L893.5 563C887 563 874 563 861 562C848 561 835 559 822 560C809 561 796 565 782.8 565C769.7 565 756.3 561 743.2 560C730 559 717 561 704 563C691 565 678 567 665 566C652 565 639 561 626 559C613 557 600 557 587 558C574 559 561 561 548 561C535 561 522 559 509 559C496 559 483 561 469.8 561C456.7 561 443.3 559 430.2 559C417 559 404 561 391 561C378 561 365 559 352 559C339 559 326 561 313 560C300 559 287 555 274 554C261 553 248 555 235 557C222 559 209 561 196 561C183 561 170 559 156.8 559C143.7 559 130.3 561 117.2 563C104 565 91 567 78 566C65 565 52 561 39 558C26 555 13 553 6.5 552L0 551Z" fill="#232322"></path></svg>