<svg id="visual" viewBox="0 0 900 600" width="900" height="600" xmlns="http://www.w3.org/2000/svg" xmlns:xlink="http://www.w3.org/1999/xlink" version="1.1"><path d="M0 31L75 31C150 31 300 31 450 31C600 31 750 31 825 31L900 31L900 0L825 0C750 0 600 0 450 0C300 0 150 0 75 0L0 0Z" fill="#63acc6"></path><path d="M0 151L75 151C150 151 300 151 450 152C600 153 750 155 825 156L900 157L900 29L825 29C750 29 600 29 450 29C300 29 150 29 75 29L0 29Z" fill="#57a5c1"></path><path d="M0 193L75 193C150 193 300 193 450 194C600 195 750 197 825 198L900 199L900 155L825 154C750 153 600 151 450 150C300 149 150 149 75 149L0 149Z" fill="#4a9fbc"></path><path d="M0 241L75 240C150 239 300 237 450 238C600 239 750 243 825 245L900 247L900 197L825 196C750 195 600 193 450 192C300 191 150 191 75 191L0 191Z" fill="#3c99b7"></path><path d="M0 313L75 313C150 313 300 313 450 314C600 315 750 317 825 318L900 319L900 245L825 243C750 241 600 237 450 236C300 235 150 237 75 238L0 239Z" fill="#2c92b2"></path><path d="M0 349L75 349C150 349 300 349 450 350C600 351 750 353 825 354L900 355L900 317L825 316C750 315 600 313 450 312C300 311 150 311 75 311L0 311Z" fill="#208bab"></path><path d="M0 475L75 475C150 475 300 475 450 476C600 477 750 479 825 480L900 481L900 353L825 352C750 351 600 349 450 348C300 347 150 347 75 347L0 347Z" fill="#1e82a0"></path><path d="M0 535L75 535C150 535 300 535 450 535C600 535 750 535 825 535L900 535L900 479L825 478C750 477 600 475 450 474C300 473 150 473 75 473L0 473Z" fill="#1c7a95"></path><path d="M0 571L75 571C150 571 300 571 450 571C600 571 750 571 825 571L900 571L900 533L825 533C750 533 600 533 450 533C300 533 150 533 75 533L0 533Z" fill="#1a718a"></path><path d="M0 601L75 601C150 601 300 601 450 601C600 601 750 601 825 601L900 601L900 569L825 569C750 569 600 569 450 569C300 569 150 569 75 569L0 569Z" fill="#186980"></path></svg>