<svg id="visual" viewBox="0 0 900 600" width="900" height="600" xmlns="http://www.w3.org/2000/svg" xmlns:xlink="http://www.w3.org/1999/xlink" version="1.1"><rect x="0" y="0" width="900" height="600" fill="#3c3c3c"></rect><path d="M0 249L129 249L129 317L257 317L257 334L386 334L386 359L514 359L514 263L643 263L643 287L771 287L771 381L900 381L900 290L900 601L900 601L771 601L771 601L643 601L643 601L514 601L514 601L386 601L386 601L257 601L257 601L129 601L129 601L0 601Z" fill="#ff6f61"></path><path d="M0 394L129 394L129 376L257 376L257 459L386 459L386 397L514 397L514 390L643 390L643 430L771 430L771 377L900 377L900 419L900 601L900 601L771 601L771 601L643 601L643 601L514 601L514 601L386 601L386 601L257 601L257 601L129 601L129 601L0 601Z" fill="#ff9d98"></path><path d="M0 479L129 479L129 459L257 459L257 498L386 498L386 499L514 499L514 461L643 461L643 444L771 444L771 480L900 480L900 488L900 601L900 601L771 601L771 601L643 601L643 601L514 601L514 601L386 601L386 601L257 601L257 601L129 601L129 601L0 601Z" fill="#f7caca"></path></svg>