<svg id="visual" viewBox="0 0 900 600" width="900" height="600" xmlns="http://www.w3.org/2000/svg" xmlns:xlink="http://www.w3.org/1999/xlink" version="1.1"><path d="M0 25L53 85L106 103L159 109L212 109L265 73L318 13L371 73L424 91L476 25L529 97L582 19L635 31L688 121L741 85L794 49L847 19L900 127L900 0L847 0L794 0L741 0L688 0L635 0L582 0L529 0L476 0L424 0L371 0L318 0L265 0L212 0L159 0L106 0L53 0L0 0Z" fill="#f8f8f8"></path><path d="M0 85L53 109L106 121L159 121L212 151L265 85L318 49L371 79L424 133L476 49L529 145L582 55L635 37L688 163L741 139L794 85L847 25L900 133L900 125L847 17L794 47L741 83L688 119L635 29L582 17L529 95L476 23L424 89L371 71L318 11L265 71L212 107L159 107L106 101L53 83L0 23Z" fill="#f5f5f5"></path><path d="M0 169L53 283L106 187L159 223L212 175L265 277L318 307L371 169L424 151L476 205L529 241L582 133L635 199L688 307L741 313L794 289L847 67L900 277L900 131L847 23L794 83L741 137L688 161L635 35L582 53L529 143L476 47L424 131L371 77L318 47L265 83L212 149L159 119L106 119L53 107L0 83Z" fill="#f3f3f3"></path><path d="M0 235L53 325L106 193L159 295L212 193L265 283L318 367L371 223L424 205L476 217L529 265L582 199L635 217L688 367L741 337L794 361L847 79L900 283L900 275L847 65L794 287L741 311L688 305L635 197L582 131L529 239L476 203L424 149L371 167L318 305L265 275L212 173L159 221L106 185L53 281L0 167Z" fill="#f0f0f0"></path><path d="M0 391L53 391L106 319L159 475L212 337L265 331L318 451L371 373L424 349L476 313L529 433L582 313L635 373L688 445L741 427L794 409L847 259L900 415L900 281L847 77L794 359L741 335L688 365L635 215L582 197L529 263L476 215L424 203L371 221L318 365L265 281L212 191L159 293L106 191L53 323L0 233Z" fill="#eeeeee"></path><path d="M0 445L53 409L106 379L159 529L212 361L265 355L318 499L371 415L424 385L476 355L529 493L582 367L635 439L688 469L741 463L794 445L847 277L900 433L900 413L847 257L794 407L741 425L688 443L635 371L582 311L529 431L476 311L424 347L371 371L318 449L265 329L212 335L159 473L106 317L53 389L0 389Z" fill="#ebebeb"></path><path d="M0 481L53 523L106 457L159 571L212 481L265 499L318 535L371 499L424 493L476 457L529 559L582 511L635 547L688 565L741 565L794 535L847 421L900 487L900 431L847 275L794 443L741 461L688 467L635 437L582 365L529 491L476 353L424 383L371 413L318 497L265 353L212 359L159 527L106 377L53 407L0 443Z" fill="#e9e9e9"></path><path d="M0 529L53 595L106 541L159 577L212 565L265 571L318 571L371 535L424 553L476 505L529 583L582 577L635 583L688 583L741 583L794 565L847 499L900 571L900 485L847 419L794 533L741 563L688 563L635 545L582 509L529 557L476 455L424 491L371 497L318 533L265 497L212 479L159 569L106 455L53 521L0 479Z" fill="#e6e6e6"></path><path d="M0 601L53 601L106 601L159 601L212 601L265 601L318 601L371 601L424 601L476 601L529 601L582 601L635 601L688 601L741 601L794 601L847 601L900 601L900 569L847 497L794 563L741 581L688 581L635 581L582 575L529 581L476 503L424 551L371 533L318 569L265 569L212 563L159 575L106 539L53 593L0 527Z" fill="#e4e4e4"></path></svg>