<svg id="visual" viewBox="0 0 900 600" width="900" height="600" xmlns="http://www.w3.org/2000/svg" xmlns:xlink="http://www.w3.org/1999/xlink" version="1.1"><rect x="0" y="0" width="900" height="600" fill="#001220"></rect><path d="M0 320L21.5 322C43 324 86 328 128.8 327.7C171.7 327.3 214.3 322.7 257.2 332.8C300 343 343 368 385.8 364.2C428.7 360.3 471.3 327.7 514.2 318.7C557 309.7 600 324.3 642.8 330.3C685.7 336.3 728.3 333.7 771.2 326.2C814 318.7 857 306.3 878.5 300.2L900 294L900 601L878.5 601C857 601 814 601 771.2 601C728.3 601 685.7 601 642.8 601C600 601 557 601 514.2 601C471.3 601 428.7 601 385.8 601C343 601 300 601 257.2 601C214.3 601 171.7 601 128.8 601C86 601 43 601 21.5 601L0 601Z" fill="#fa7268"></path><path d="M0 414L21.5 407.7C43 401.3 86 388.7 128.8 386.3C171.7 384 214.3 392 257.2 394.5C300 397 343 394 385.8 382.2C428.7 370.3 471.3 349.7 514.2 352.7C557 355.7 600 382.3 642.8 384.2C685.7 386 728.3 363 771.2 360.7C814 358.3 857 376.7 878.5 385.8L900 395L900 601L878.5 601C857 601 814 601 771.2 601C728.3 601 685.7 601 642.8 601C600 601 557 601 514.2 601C471.3 601 428.7 601 385.8 601C343 601 300 601 257.2 601C214.3 601 171.7 601 128.8 601C86 601 43 601 21.5 601L0 601Z" fill="#f56967"></path><path d="M0 431L21.5 428.3C43 425.7 86 420.3 128.8 421.8C171.7 423.3 214.3 431.7 257.2 432.8C300 434 343 428 385.8 428.5C428.7 429 471.3 436 514.2 432.8C557 429.7 600 416.3 642.8 413.8C685.7 411.3 728.3 419.7 771.2 413.8C814 408 857 388 878.5 378L900 368L900 601L878.5 601C857 601 814 601 771.2 601C728.3 601 685.7 601 642.8 601C600 601 557 601 514.2 601C471.3 601 428.7 601 385.8 601C343 601 300 601 257.2 601C214.3 601 171.7 601 128.8 601C86 601 43 601 21.5 601L0 601Z" fill="#ef5f67"></path><path d="M0 443L21.5 434C43 425 86 407 128.8 403.3C171.7 399.7 214.3 410.3 257.2 416.7C300 423 343 425 385.8 428.2C428.7 431.3 471.3 435.7 514.2 430C557 424.3 600 408.7 642.8 409.7C685.7 410.7 728.3 428.3 771.2 430.2C814 432 857 418 878.5 411L900 404L900 601L878.5 601C857 601 814 601 771.2 601C728.3 601 685.7 601 642.8 601C600 601 557 601 514.2 601C471.3 601 428.7 601 385.8 601C343 601 300 601 257.2 601C214.3 601 171.7 601 128.8 601C86 601 43 601 21.5 601L0 601Z" fill="#e95667"></path><path d="M0 434L21.5 434.7C43 435.3 86 436.7 128.8 444.7C171.7 452.7 214.3 467.3 257.2 474.5C300 481.7 343 481.3 385.8 482.5C428.7 483.7 471.3 486.3 514.2 478.8C557 471.3 600 453.7 642.8 447.8C685.7 442 728.3 448 771.2 448.7C814 449.3 857 444.7 878.5 442.3L900 440L900 601L878.5 601C857 601 814 601 771.2 601C728.3 601 685.7 601 642.8 601C600 601 557 601 514.2 601C471.3 601 428.7 601 385.8 601C343 601 300 601 257.2 601C214.3 601 171.7 601 128.8 601C86 601 43 601 21.5 601L0 601Z" fill="#e34c67"></path><path d="M0 489L21.5 485.3C43 481.7 86 474.3 128.8 471.5C171.7 468.7 214.3 470.3 257.2 469C300 467.7 343 463.3 385.8 462.8C428.7 462.3 471.3 465.7 514.2 467.8C557 470 600 471 642.8 471.3C685.7 471.7 728.3 471.3 771.2 470.5C814 469.7 857 468.3 878.5 467.7L900 467L900 601L878.5 601C857 601 814 601 771.2 601C728.3 601 685.7 601 642.8 601C600 601 557 601 514.2 601C471.3 601 428.7 601 385.8 601C343 601 300 601 257.2 601C214.3 601 171.7 601 128.8 601C86 601 43 601 21.5 601L0 601Z" fill="#dc4267"></path><path d="M0 525L21.5 526.3C43 527.7 86 530.3 128.8 525.3C171.7 520.3 214.3 507.7 257.2 504.3C300 501 343 507 385.8 507.5C428.7 508 471.3 503 514.2 505C557 507 600 516 642.8 514.5C685.7 513 728.3 501 771.2 494.5C814 488 857 487 878.5 486.5L900 486L900 601L878.5 601C857 601 814 601 771.2 601C728.3 601 685.7 601 642.8 601C600 601 557 601 514.2 601C471.3 601 428.7 601 385.8 601C343 601 300 601 257.2 601C214.3 601 171.7 601 128.8 601C86 601 43 601 21.5 601L0 601Z" fill="#d53867"></path><path d="M0 545L21.5 545.2C43 545.3 86 545.7 128.8 541.2C171.7 536.7 214.3 527.3 257.2 524.3C300 521.3 343 524.7 385.8 527.8C428.7 531 471.3 534 514.2 531.7C557 529.3 600 521.7 642.8 517.8C685.7 514 728.3 514 771.2 516C814 518 857 522 878.5 524L900 526L900 601L878.5 601C857 601 814 601 771.2 601C728.3 601 685.7 601 642.8 601C600 601 557 601 514.2 601C471.3 601 428.7 601 385.8 601C343 601 300 601 257.2 601C214.3 601 171.7 601 128.8 601C86 601 43 601 21.5 601L0 601Z" fill="#ce2e68"></path><path d="M0 557L21.5 555.5C43 554 86 551 128.8 553.7C171.7 556.3 214.3 564.7 257.2 567.3C300 570 343 567 385.8 563C428.7 559 471.3 554 514.2 554.8C557 555.7 600 562.3 642.8 567.7C685.7 573 728.3 577 771.2 574.5C814 572 857 563 878.5 558.5L900 554L900 601L878.5 601C857 601 814 601 771.2 601C728.3 601 685.7 601 642.8 601C600 601 557 601 514.2 601C471.3 601 428.7 601 385.8 601C343 601 300 601 257.2 601C214.3 601 171.7 601 128.8 601C86 601 43 601 21.5 601L0 601Z" fill="#c62368"></path></svg>