<svg id="visual" viewBox="0 0 900 600" width="900" height="600" xmlns="http://www.w3.org/2000/svg" xmlns:xlink="http://www.w3.org/1999/xlink" version="1.1"><g stroke-width="1" stroke-linejoin="bevel"><path d="M521 324L524 428L586 331Z" fill="#ededed" stroke="#ededed"></path><path d="M524 428L607 403L586 331Z" fill="#f1f1f1" stroke="#f1f1f1"></path><path d="M521 324L428 399L524 428Z" fill="#ededed" stroke="#ededed"></path><path d="M524 503L585 494L524 428Z" fill="#ffffff" stroke="#ffffff"></path><path d="M524 428L585 494L607 403Z" fill="#f6f6f6" stroke="#f6f6f6"></path><path d="M392 467L524 503L524 428Z" fill="#f4f4f4" stroke="#f4f4f4"></path><path d="M685 272L604 225L586 331Z" fill="#ffffff" stroke="#ffffff"></path><path d="M586 331L604 225L521 324Z" fill="#fdfdfd" stroke="#fdfdfd"></path><path d="M521 324L382 336L428 399Z" fill="#f1f1f1" stroke="#f1f1f1"></path><path d="M604 225L486 219L521 324Z" fill="#f8f8f8" stroke="#f8f8f8"></path><path d="M486 219L382 336L521 324Z" fill="#f2f2f2" stroke="#f2f2f2"></path><path d="M736 414L685 272L607 403Z" fill="#f2f2f2" stroke="#f2f2f2"></path><path d="M607 403L685 272L586 331Z" fill="#fafafa" stroke="#fafafa"></path><path d="M382 336L392 467L428 399Z" fill="#f2f2f2" stroke="#f2f2f2"></path><path d="M428 399L392 467L524 428Z" fill="#f6f6f6" stroke="#f6f6f6"></path><path d="M722 485L736 414L607 403Z" fill="#efefef" stroke="#efefef"></path><path d="M668 600L722 485L585 494Z" fill="#fbfbfb" stroke="#fbfbfb"></path><path d="M585 494L722 485L607 403Z" fill="#fdfdfd" stroke="#fdfdfd"></path><path d="M486 219L373 236L382 336Z" fill="#efefef" stroke="#efefef"></path><path d="M382 336L272 361L392 467Z" fill="#fbfbfb" stroke="#fbfbfb"></path><path d="M470 600L614 600L524 503Z" fill="#f1f1f1" stroke="#f1f1f1"></path><path d="M524 503L614 600L585 494Z" fill="#f1f1f1" stroke="#f1f1f1"></path><path d="M392 467L470 600L524 503Z" fill="#fafafa" stroke="#fafafa"></path><path d="M373 236L316 320L382 336Z" fill="#ffffff" stroke="#ffffff"></path><path d="M736 414L769 260L685 272Z" fill="#ededed" stroke="#ededed"></path><path d="M685 272L710 162L604 225Z" fill="#ededed" stroke="#ededed"></path><path d="M826 428L769 260L736 414Z" fill="#f6f6f6" stroke="#f6f6f6"></path><path d="M614 600L668 600L585 494Z" fill="#efefef" stroke="#efefef"></path><path d="M392 467L404 600L470 600Z" fill="#fbfbfb" stroke="#fbfbfb"></path><path d="M312 512L404 600L392 467Z" fill="#fdfdfd" stroke="#fdfdfd"></path><path d="M769 260L710 162L685 272Z" fill="#f4f4f4" stroke="#f4f4f4"></path><path d="M604 225L598 103L486 219Z" fill="#f2f2f2" stroke="#f2f2f2"></path><path d="M433 84L335 167L373 236Z" fill="#fbfbfb" stroke="#fbfbfb"></path><path d="M272 361L312 512L392 467Z" fill="#efefef" stroke="#efefef"></path><path d="M221 292L272 361L316 320Z" fill="#ffffff" stroke="#ffffff"></path><path d="M316 320L272 361L382 336Z" fill="#ffffff" stroke="#ffffff"></path><path d="M710 162L598 103L604 225Z" fill="#f6f6f6" stroke="#f6f6f6"></path><path d="M598 103L498 99L486 219Z" fill="#ffffff" stroke="#ffffff"></path><path d="M830 516L826 428L722 485Z" fill="#ededed" stroke="#ededed"></path><path d="M722 485L826 428L736 414Z" fill="#fdfdfd" stroke="#fdfdfd"></path><path d="M433 84L373 236L486 219Z" fill="#fafafa" stroke="#fafafa"></path><path d="M373 236L221 292L316 320Z" fill="#ffffff" stroke="#ffffff"></path><path d="M794 90L690 107L710 162Z" fill="#ffffff" stroke="#ffffff"></path><path d="M710 162L690 107L598 103Z" fill="#f1f1f1" stroke="#f1f1f1"></path><path d="M900 178L783 181L769 260Z" fill="#efefef" stroke="#efefef"></path><path d="M769 260L783 181L710 162Z" fill="#f2f2f2" stroke="#f2f2f2"></path><path d="M312 512L334 600L404 600Z" fill="#f1f1f1" stroke="#f1f1f1"></path><path d="M220 600L334 600L312 512Z" fill="#ededed" stroke="#ededed"></path><path d="M430 0L433 84L498 99Z" fill="#f6f6f6" stroke="#f6f6f6"></path><path d="M498 99L433 84L486 219Z" fill="#f1f1f1" stroke="#f1f1f1"></path><path d="M527 0L498 99L598 103Z" fill="#efefef" stroke="#efefef"></path><path d="M771 600L830 516L722 485Z" fill="#fbfbfb" stroke="#fbfbfb"></path><path d="M668 600L771 600L722 485Z" fill="#f2f2f2" stroke="#f2f2f2"></path><path d="M335 167L221 292L373 236Z" fill="#f6f6f6" stroke="#f6f6f6"></path><path d="M188 424L222 513L312 512Z" fill="#f8f8f8" stroke="#f8f8f8"></path><path d="M900 515L900 390L826 428Z" fill="#f4f4f4" stroke="#f4f4f4"></path><path d="M826 428L900 312L769 260Z" fill="#fafafa" stroke="#fafafa"></path><path d="M188 424L312 512L272 361Z" fill="#ededed" stroke="#ededed"></path><path d="M900 390L900 312L826 428Z" fill="#f2f2f2" stroke="#f2f2f2"></path><path d="M221 292L188 424L272 361Z" fill="#f2f2f2" stroke="#f2f2f2"></path><path d="M637 0L527 0L598 103Z" fill="#fbfbfb" stroke="#fbfbfb"></path><path d="M234 131L202 227L335 167Z" fill="#ffffff" stroke="#ffffff"></path><path d="M783 181L794 90L710 162Z" fill="#fbfbfb" stroke="#fbfbfb"></path><path d="M690 107L637 0L598 103Z" fill="#f4f4f4" stroke="#f4f4f4"></path><path d="M900 107L794 90L783 181Z" fill="#fdfdfd" stroke="#fdfdfd"></path><path d="M335 167L202 227L221 292Z" fill="#fafafa" stroke="#fafafa"></path><path d="M221 292L132 375L188 424Z" fill="#fdfdfd" stroke="#fdfdfd"></path><path d="M298 83L335 167L433 84Z" fill="#fdfdfd" stroke="#fdfdfd"></path><path d="M900 600L900 515L830 516Z" fill="#f2f2f2" stroke="#f2f2f2"></path><path d="M830 516L900 515L826 428Z" fill="#f6f6f6" stroke="#f6f6f6"></path><path d="M333 0L298 83L433 84Z" fill="#f2f2f2" stroke="#f2f2f2"></path><path d="M665 0L637 0L690 107Z" fill="#fbfbfb" stroke="#fbfbfb"></path><path d="M794 90L665 0L690 107Z" fill="#ededed" stroke="#ededed"></path><path d="M527 0L430 0L498 99Z" fill="#ffffff" stroke="#ffffff"></path><path d="M101 539L220 600L222 513Z" fill="#fafafa" stroke="#fafafa"></path><path d="M222 513L220 600L312 512Z" fill="#f6f6f6" stroke="#f6f6f6"></path><path d="M298 83L234 131L335 167Z" fill="#f6f6f6" stroke="#f6f6f6"></path><path d="M900 312L900 178L769 260Z" fill="#ededed" stroke="#ededed"></path><path d="M128 262L221 292L202 227Z" fill="#ffffff" stroke="#ffffff"></path><path d="M128 262L132 375L221 292Z" fill="#fdfdfd" stroke="#fdfdfd"></path><path d="M188 424L101 539L222 513Z" fill="#fafafa" stroke="#fafafa"></path><path d="M771 600L900 600L830 516Z" fill="#f2f2f2" stroke="#f2f2f2"></path><path d="M430 0L333 0L433 84Z" fill="#fafafa" stroke="#fafafa"></path><path d="M298 83L188 0L234 131Z" fill="#ededed" stroke="#ededed"></path><path d="M98 174L202 227L234 131Z" fill="#f8f8f8" stroke="#f8f8f8"></path><path d="M98 174L128 262L202 227Z" fill="#f4f4f4" stroke="#f4f4f4"></path><path d="M900 178L900 107L783 181Z" fill="#f2f2f2" stroke="#f2f2f2"></path><path d="M794 90L806 0L665 0Z" fill="#ffffff" stroke="#ffffff"></path><path d="M900 0L806 0L794 90Z" fill="#fdfdfd" stroke="#fdfdfd"></path><path d="M0 423L101 539L132 375Z" fill="#fdfdfd" stroke="#fdfdfd"></path><path d="M132 375L101 539L188 424Z" fill="#efefef" stroke="#efefef"></path><path d="M62 108L98 174L234 131Z" fill="#ededed" stroke="#ededed"></path><path d="M0 276L0 423L132 375Z" fill="#ededed" stroke="#ededed"></path><path d="M101 539L106 600L220 600Z" fill="#fdfdfd" stroke="#fdfdfd"></path><path d="M900 107L900 0L794 90Z" fill="#f6f6f6" stroke="#f6f6f6"></path><path d="M333 0L188 0L298 83Z" fill="#f8f8f8" stroke="#f8f8f8"></path><path d="M0 276L132 375L128 262Z" fill="#fbfbfb" stroke="#fbfbfb"></path><path d="M101 539L0 600L106 600Z" fill="#ffffff" stroke="#ffffff"></path><path d="M117 0L62 108L234 131Z" fill="#f8f8f8" stroke="#f8f8f8"></path><path d="M0 213L0 276L128 262Z" fill="#ededed" stroke="#ededed"></path><path d="M0 213L128 262L98 174Z" fill="#ffffff" stroke="#ffffff"></path><path d="M0 423L0 485L101 539Z" fill="#f8f8f8" stroke="#f8f8f8"></path><path d="M188 0L117 0L234 131Z" fill="#f8f8f8" stroke="#f8f8f8"></path><path d="M0 116L98 174L62 108Z" fill="#f6f6f6" stroke="#f6f6f6"></path><path d="M0 116L0 213L98 174Z" fill="#fdfdfd" stroke="#fdfdfd"></path><path d="M0 485L0 600L101 539Z" fill="#f4f4f4" stroke="#f4f4f4"></path><path d="M0 0L0 116L62 108Z" fill="#f2f2f2" stroke="#f2f2f2"></path><path d="M117 0L0 0L62 108Z" fill="#f8f8f8" stroke="#f8f8f8"></path></g></svg>