<svg id="visual" viewBox="0 0 900 600" width="900" height="600" xmlns="http://www.w3.org/2000/svg" xmlns:xlink="http://www.w3.org/1999/xlink" version="1.1"><path d="M0 259L82 145L164 235L245 187L327 91L409 199L491 85L573 181L655 229L736 91L818 217L900 103L900 0L818 0L736 0L655 0L573 0L491 0L409 0L327 0L245 0L164 0L82 0L0 0Z" fill="#1b1f1e"></path><path d="M0 373L82 337L164 367L245 301L327 337L409 397L491 283L573 337L655 301L736 337L818 301L900 355L900 101L818 215L736 89L655 227L573 179L491 83L409 197L327 89L245 185L164 233L82 143L0 257Z" fill="#7e5000"></path><path d="M0 415L82 439L164 409L245 385L327 373L409 451L491 385L573 433L655 361L736 433L818 379L900 439L900 353L818 299L736 335L655 299L573 335L491 281L409 395L327 335L245 299L164 365L82 335L0 371Z" fill="#ff0066"></path><path d="M0 547L82 499L164 511L245 523L327 493L409 517L491 493L573 547L655 523L736 547L818 493L900 541L900 437L818 377L736 431L655 359L573 431L491 383L409 449L327 371L245 383L164 407L82 437L0 413Z" fill="#7e5000"></path><path d="M0 601L82 601L164 601L245 601L327 601L409 601L491 601L573 601L655 601L736 601L818 601L900 601L900 539L818 491L736 545L655 521L573 545L491 491L409 515L327 491L245 521L164 509L82 497L0 545Z" fill="#1b1f1e"></path></svg>