<svg id="visual" viewBox="0 0 900 600" width="900" height="600" xmlns="http://www.w3.org/2000/svg" xmlns:xlink="http://www.w3.org/1999/xlink" version="1.1"><rect x="0" y="0" width="900" height="600" fill="#23272c"></rect><path d="M0 444L21.5 433.2C43 422.3 86 400.7 128.8 405.5C171.7 410.3 214.3 441.7 257.2 442.7C300 443.7 343 414.3 385.8 405C428.7 395.7 471.3 406.3 514.2 420.2C557 434 600 451 642.8 461.8C685.7 472.7 728.3 477.3 771.2 467.3C814 457.3 857 432.7 878.5 420.3L900 408L900 601L878.5 601C857 601 814 601 771.2 601C728.3 601 685.7 601 642.8 601C600 601 557 601 514.2 601C471.3 601 428.7 601 385.8 601C343 601 300 601 257.2 601C214.3 601 171.7 601 128.8 601C86 601 43 601 21.5 601L0 601Z" fill="#404e5c" stroke-linecap="round" stroke-linejoin="miter"></path></svg>